<?xml version="1.0" ?><!DOCTYPE svg  PUBLIC '-//W3C//DTD SVG 1.1//EN'  'http://www.w3.org/Graphics/SVG/1.1/DTD/svg11.dtd'><svg enable-background="new 0 0 32 32" height="32px" version="1.1" viewBox="0 0 32 32" width="32px" xml:space="preserve" xmlns="http://www.w3.org/2000/svg" xmlns:xlink="http://www.w3.org/1999/xlink"><g id="Guides"/><g id="Mail"/><g id="Cloud"/><g id="Home"><path d="M29.707,17.293l-13-13c-0.3906-0.3906-1.0234-0.3906-1.4141,0l-13,13c-0.2861,0.2861-0.3716,0.7158-0.2168,1.0898   C2.231,18.7563,2.5957,19,3,19h3v8c0,0.5522,0.4478,1,1,1h6.208H19h6c0.5527,0,1-0.4478,1-1v-8h3   c0.4043,0,0.7695-0.2437,0.9238-0.6172C30.0791,18.0088,29.9932,17.5791,29.707,17.293z M14,26v-5c0-1.103,0.897-2,2-2   c1.1025,0,2,0.897,2,2v5H14z M25,17c-0.5527,0-1,0.4478-1,1v8h-4v-5c0-2.2056-1.7939-4-4-4c-2.2056,0-4,1.7944-4,4v5H8v-8   c0-0.5522-0.4478-1-1-1H5.4141L16,6.4141L26.5859,17H25z"/></g><g id="Back"/><g id="Next"/><g id="Reload"/><g id="Buble"/><g id="Accept"/><g id="Reject"/><g id="User"/><g id="Download"/><g id="Upload"/><g id="Camera"/><g id="Notification"/><g id="About"/><g id="Search"/><g id="Cart"/><g id="Sound"/><g id="List"/><g id="Settings"/></svg>