<?xml version="1.0" ?><!DOCTYPE svg  PUBLIC '-//W3C//DTD SVG 1.1//EN'  'http://www.w3.org/Graphics/SVG/1.1/DTD/svg11.dtd'><svg height="100%" style="fill-rule:evenodd;clip-rule:evenodd;stroke-linejoin:round;stroke-miterlimit:2;" version="1.1" viewBox="0 0 512 512" width="100%" xml:space="preserve" xmlns="http://www.w3.org/2000/svg" xmlns:serif="http://www.serif.com/" xmlns:xlink="http://www.w3.org/1999/xlink"><path d="M256.375,0c-141.727,0 -256.375,114.746 -256.375,255.816c0,141.069 114.648,256.184 256.375,256.184c140.944,0 255.625,-115.115 255.625,-256.184c0,-141.824 -114.681,-255.816 -255.625,-255.816Zm16.962,187.373l0,-75.937l-46.557,0c-2.154,33.438 -20.913,72.051 -65.742,83.704l0,47.887l40.75,0l0,88.442c0,55.226 33.409,78.314 78.237,78.314l49.788,0l0,-58.681l-26.297,0c-18.565,-0.023 -30.179,-8.013 -30.179,-31.064l0,-77.011l54.322,0l0,-55.654l-54.322,0Z"/></svg>