<svg xmlns="http://www.w3.org/2000/svg" xmlns:xlink="http://www.w3.org/1999/xlink" width="375" height="760" viewBox="0 0 375 760">
  <defs>
    <clipPath id="clip-Checkout">
      <rect width="375" height="760"/>
    </clipPath>
  </defs>
  <g id="Checkout" clip-path="url(#clip-Checkout)">
    <rect width="375" height="760" fill="#fff"/>
    <text id="GREEN_TEA" data-name="GREEN TEA" transform="translate(17 37)" font-size="20" font-family="SegoeUI-Semibold, Segoe UI" font-weight="600"><tspan x="0" y="0">GREEN TEA</tspan></text>
    <text id="Checkout-2" data-name="Checkout" transform="translate(42 111)" font-size="23" font-family="SegoeUI-Bold, Segoe UI" font-weight="700"><tspan x="0" y="0">Checkout</tspan></text>
    <text id="_Size_" data-name="~ Size ~" transform="translate(261.75 114.204)" font-size="18" font-family="SegoeUI-Bold, Segoe UI" font-weight="700"><tspan x="0" y="0">~ Size ~</tspan></text>
    <text id="Qty:" transform="translate(226.75 267)" font-size="18" font-family="SegoeUI-Bold, Segoe UI" font-weight="700"><tspan x="0" y="0">Qty:</tspan></text>
    <path id="Line_8" data-name="Line 8" d="M339,1H0V-1H339Z" transform="translate(18.25 301.5)"/>
    <path id="Line_9" data-name="Line 9" d="M339,1H0V-1H339Z" transform="translate(18 419.5)"/>
    <rect id="Rectangle_7" data-name="Rectangle 7" width="60.125" height="39" rx="10" transform="translate(281.625 241.5)" fill="#fff"/>
    <path id="Rectangle_7_-_Outline" data-name="Rectangle 7 - Outline" d="M10,2a8.009,8.009,0,0,0-8,8V29a8.009,8.009,0,0,0,8,8H50.125a8.009,8.009,0,0,0,8-8V10a8.009,8.009,0,0,0-8-8H10m0-2H50.125a10,10,0,0,1,10,10V29a10,10,0,0,1-10,10H10A10,10,0,0,1,0,29V10A10,10,0,0,1,10,0Z" transform="translate(281.625 241.5)"/>
    <text id="_1" data-name="1" transform="translate(319.75 269)" font-size="22" font-family="SegoeUI-Bold, Segoe UI" font-weight="700"><tspan x="0" y="0">1</tspan></text>
    <circle id="Ellipse_2" data-name="Ellipse 2" cx="11" cy="11" r="11" transform="translate(244.25 136)" fill="#fff"/>
    <path id="Ellipse_2_-_Outline" data-name="Ellipse 2 - Outline" d="M11,2a9,9,0,1,0,9,9,9.01,9.01,0,0,0-9-9m0-2A11,11,0,1,1,0,11,11,11,0,0,1,11,0Z" transform="translate(244.25 136)"/>
    <circle id="Ellipse_4" data-name="Ellipse 4" cx="11" cy="11" r="11" transform="translate(244.25 169.389)" fill="#fff"/>
    <path id="Ellipse_4_-_Outline" data-name="Ellipse 4 - Outline" d="M11,2a9,9,0,1,0,9,9,9.01,9.01,0,0,0-9-9m0-2A11,11,0,1,1,0,11,11,11,0,0,1,11,0Z" transform="translate(244.25 169.389)"/>
    <circle id="Ellipse_5" data-name="Ellipse 5" cx="11" cy="11" r="11" transform="translate(244.25 202.704)" fill="#fff"/>
    <path id="Ellipse_5_-_Outline" data-name="Ellipse 5 - Outline" d="M11,2a9,9,0,1,0,9,9,9.01,9.01,0,0,0-9-9m0-2A11,11,0,1,1,0,11,11,11,0,0,1,11,0Z" transform="translate(244.25 202.704)"/>
    <circle id="Ellipse_3" data-name="Ellipse 3" cx="5" cy="5" r="5" transform="matrix(0.999, 0.035, -0.035, 0.999, 250.428, 141.829)"/>
    <path id="Ellipse_3_-_Outline" data-name="Ellipse 3 - Outline" d="M5,2A3,3,0,1,0,8,5,3,3,0,0,0,5,2M5,0A5,5,0,1,1,0,5,5,5,0,0,1,5,0Z" transform="matrix(0.999, 0.035, -0.035, 0.999, 250.428, 141.829)"/>
    <text id="_0.5_kg" data-name="0.5 kg" transform="translate(304.75 152)" font-size="15" font-family="SegoeUI-Bold, Segoe UI" font-weight="700"><tspan x="0" y="0">0.5 kg</tspan></text>
    <text id="_1.0_kg" data-name="1.0 kg" transform="translate(304.75 184.316)" font-size="15" font-family="SegoeUI-Bold, Segoe UI" font-weight="700"><tspan x="0" y="0">1.0 kg</tspan></text>
    <text id="_1.5_kg" data-name="1.5 kg" transform="translate(304.75 216.224)" font-size="15" font-family="SegoeUI-Bold, Segoe UI" font-weight="700"><tspan x="0" y="0">1.5 kg</tspan></text>
    <text id="Product_Name:" data-name="Product Name:" transform="translate(26 334)" font-size="18" font-family="SegoeUI-Semibold, Segoe UI" font-weight="600"><tspan x="0" y="0">Product Name:</tspan></text>
    <text id="Shipping:" transform="translate(28 367)" font-size="18" font-family="SegoeUI-Semibold, Segoe UI" font-weight="600"><tspan x="0" y="0">Shipping:</tspan></text>
    <text id="Total:" transform="translate(28 400)" font-size="18" font-family="SegoeUI-Bold, Segoe UI" font-weight="700"><tspan x="0" y="0">Total:</tspan></text>
    <text id="_14.40" data-name="$14.40" transform="translate(294 334)" font-size="18" font-family="SegoeUI-Semibold, Segoe UI" font-weight="600"><tspan x="0" y="0">$14.40</tspan></text>
    <text id="_14.40-2" data-name="$14.40" transform="translate(296 367)" font-size="18" font-family="SegoeUI-Semibold, Segoe UI" font-weight="600"><tspan x="0" y="0">$14.40</tspan></text>
    <text id="_14.40-3" data-name="$14.40" transform="translate(294 400)" font-size="18" font-family="SegoeUI-Bold, Segoe UI" font-weight="700"><tspan x="0" y="0">$14.40</tspan></text>
    <rect id="Rectangle_8" data-name="Rectangle 8" width="302" height="51" transform="translate(36 449)" fill="#fff"/>
    <path id="Rectangle_8_-_Outline" data-name="Rectangle 8 - Outline" d="M2,2V49H300V2H2M0,0H302V51H0Z" transform="translate(36 449)" fill="#070707"/>
    <rect id="Rectangle_9" data-name="Rectangle 9" width="302" height="51" transform="translate(36 516)" fill="#fff"/>
    <path id="Rectangle_9_-_Outline" data-name="Rectangle 9 - Outline" d="M2,2V49H300V2H2M0,0H302V51H0Z" transform="translate(36 516)" fill="#070707"/>
    <rect id="Rectangle_10" data-name="Rectangle 10" width="302" height="51" transform="translate(36 583)" fill="#fff"/>
    <path id="Rectangle_10_-_Outline" data-name="Rectangle 10 - Outline" d="M2,2V49H300V2H2M0,0H302V51H0Z" transform="translate(36 583)" fill="#070707"/>
    <text id="Name" transform="translate(42 481)" font-size="18" font-family="SegoeUI-Bold, Segoe UI" font-weight="700" opacity="0.63"><tspan x="0" y="0">Name</tspan></text>
    <text id="Email" transform="translate(41 547)" font-size="18" font-family="SegoeUI-Bold, Segoe UI" font-weight="700" opacity="0.63"><tspan x="0" y="0">Email</tspan></text>
    <text id="Mobile_Number" data-name="Mobile Number" transform="translate(41 614)" font-size="18" font-family="SegoeUI-Bold, Segoe UI" font-weight="700" opacity="0.63"><tspan x="0" y="0">Mobile Number</tspan></text>
    <g id="Button_-_Purchase" data-name="Button - Purchase" transform="translate(21 173)">
      <rect id="Rectangle_3" data-name="Rectangle 3" width="153" height="42" rx="15" transform="translate(167 491)" fill="#75ffb1"/>
      <path id="Rectangle_3_-_Outline" data-name="Rectangle 3 - Outline" d="M15,2A13,13,0,0,0,2,15V27A13,13,0,0,0,15,40H138a13,13,0,0,0,13-13V15A13,13,0,0,0,138,2H15m0-2H138a15,15,0,0,1,15,15V27a15,15,0,0,1-15,15H15A15,15,0,0,1,0,27V15A15,15,0,0,1,15,0Z" transform="translate(167 491)"/>
      <text id="Purchase" transform="translate(247 518)" font-size="20" font-family="SegoeUI-Semibold, Segoe UI" font-weight="600"><tspan x="-40.659" y="0">Purchase</tspan></text>
    </g>
    <g id="Group_33" data-name="Group 33">
      <g id="Group_5" data-name="Group 5" transform="translate(18 126)">
        <rect id="Rectangle_4" data-name="Rectangle 4" width="148.132" height="140.335" rx="15" transform="translate(0 0)" fill="#75ffb1"/>
        <path id="Rectangle_4_-_Outline" data-name="Rectangle 4 - Outline" d="M15,2A13,13,0,0,0,2,15V125.335a13,13,0,0,0,13,13H133.132a13,13,0,0,0,13-13V15a13,13,0,0,0-13-13H15m0-2H133.132a15,15,0,0,1,15,15V125.335a15,15,0,0,1-15,15H15a15,15,0,0,1-15-15V15A15,15,0,0,1,15,0Z" transform="translate(0 0)"/>
        <path id="Path_1021" data-name="Path 1021" transform="translate(6.448 5.917)" fill="#0c0c0c"/>
      </g>
      <g id="Group_16" data-name="Group 16" transform="translate(-589.21 -86.425)">
        <g id="Group_15" data-name="Group 15" transform="translate(0 -6)">
          <path id="Path_1016" data-name="Path 1016" d="M2638.9,3098.14a1.1,1.1,0,0,0-.039-.274c-.361-2.384-2.159-3.331-4.515-3.356q-3.7-.04-7.394-.057c-6.307-.029-12.616-.027-18.921.122-2.349.055-5.195-.192-6.2,2.444a7.326,7.326,0,0,0-.24,2.668l.042,10.42c.013,3.171-.012,6.346.038,9.517a4.048,4.048,0,0,0,1.409,3.391,5.839,5.839,0,0,0,3.58.865c1.7.08,3.4.149,5.1.164,3.494.031,6.988-.066,10.482-.073,3.315-.008,6.662.138,9.972-.067,2.424-.15,5.713.049,6.7-2.7a7.415,7.415,0,0,0,.212-2.631Q2639.014,3108.356,2638.9,3098.14Zm-35.211.181c.223-1.875,2.176-1.61,3.608-1.646s2.876-.064,4.314-.085q4.716-.069,9.433-.066,4.347,0,8.693.028c1.724.012,6.823-.762,7.059,1.589q.073,6.529.145,13.057-1.683-1.556-3.384-3.093c-1.065-.96-2.224-2.257-3.765-2.357-1.522-.1-2.75.965-3.851,1.863a33.038,33.038,0,0,0-3.438,3.233,22.238,22.238,0,0,0-7.313-5.187c-2.6-1.015-4.046.569-5.8,2.245l-5.641,5.392-.037-9.209A48.5,48.5,0,0,1,2603.69,3098.32Zm33.349,21.6c-.255,2.455-5.208,1.955-7.1,1.964-3.047.015-6.094-.01-9.141.005-3.014.016-6.029.095-9.043.068-1.323-.011-2.643-.053-3.964-.112-1.491-.067-3.763.286-4.017-1.679a24.809,24.809,0,0,1-.057-3.97c.027-.022.054-.038.08-.062l5.37-5.133c.957-.914,1.883-1.986,2.929-2.8,1.529-1.189,2.577-.6,4,.3,3.931,2.489,7.049,6.08,10.125,9.5.9,1,2.385-.474,1.488-1.472-1.189-1.323-2.438-2.777-3.765-4.2,1.576-1.816,4.548-5.029,6.333-4.23,1.2.535,2.31,1.938,3.275,2.817q1.721,1.568,3.423,3.158A49.073,49.073,0,0,1,2637.039,3119.925Z" transform="translate(-1939.37 -2821.013)"/>
          <path id="Path_1016_-_Outline" data-name="Path 1016 - Outline" d="M2621.28,3093.938c1.71,0,3.514,0,5.675.015,2.428.011,4.917.03,7.4.057a5.857,5.857,0,0,1,3.281.88,4.076,4.076,0,0,1,1.719,2.876,1.576,1.576,0,0,1,.049.37q.076,6.822.151,13.645l.075,6.788c0,.136,0,.274.008.411a6.423,6.423,0,0,1-.25,2.395,3.978,3.978,0,0,1-2.716,2.513,13.831,13.831,0,0,1-3.59.476c-.293.013-.569.025-.837.042-1.223.075-2.554.111-4.19.111-.93,0-1.875-.011-2.788-.022s-1.847-.021-2.767-.021h-.256c-1.433,0-2.891.021-4.3.04-1.552.02-3.156.04-4.735.04-.5,0-.991,0-1.452-.006-1.767-.016-3.5-.089-5.116-.165l-.318-.014a5.743,5.743,0,0,1-3.547-.957,4.6,4.6,0,0,1-1.6-3.777c-.034-2.12-.034-4.275-.034-6.359,0-1.037,0-2.11,0-3.164l-.042-10.42c0-.138,0-.277-.006-.416a6.345,6.345,0,0,1,.278-2.432c1.031-2.7,3.772-2.732,5.976-2.756.236,0,.458,0,.68-.01C2611.974,3093.981,2616.188,3093.938,2621.28,3093.938Zm6.772,29.575c1.615,0,2.927-.034,4.129-.109.277-.017.558-.03.855-.042a12.9,12.9,0,0,0,3.324-.428,3,3,0,0,0,2.084-1.9,5.593,5.593,0,0,0,.191-2.032c0-.142-.007-.283-.008-.424l-.075-6.788q-.075-6.823-.151-13.645a.589.589,0,0,0-.023-.152l-.007-.026,0-.027c-.291-1.92-1.646-2.906-4.026-2.931-2.478-.027-4.965-.046-7.391-.057-2.16-.01-3.962-.015-5.67-.015-5.085,0-9.291.043-13.237.136-.228.005-.465.008-.693.01a11.26,11.26,0,0,0-3.094.31,2.838,2.838,0,0,0-1.957,1.8,5.506,5.506,0,0,0-.212,2.058c0,.144,0,.287.006.43l.042,10.42c0,1.056,0,2.129,0,3.168,0,2.08,0,4.231.034,6.343a3.5,3.5,0,0,0,1.217,3,4.843,4.843,0,0,0,2.974.746l.322.014c1.6.076,3.328.148,5.078.164.457,0,.943.006,1.443.006,1.573,0,3.174-.02,4.723-.04,1.412-.018,2.873-.036,4.311-.04,1.007,0,2.041.01,3.037.021C2626.187,3123.5,2627.128,3123.513,2628.052,3123.513Zm4.794-27.576a8.945,8.945,0,0,1,2.787.343,2.124,2.124,0,0,1,1.662,1.809l0,.044q.073,6.529.145,13.057l.013,1.16-.852-.787c-1.3-1.2-2.374-2.183-3.379-3.089-.151-.136-.306-.281-.455-.42a5.343,5.343,0,0,0-3.007-1.809c-.054,0-.109-.005-.164-.005a5.459,5.459,0,0,0-3.2,1.643l-.14.114a32.668,32.668,0,0,0-3.386,3.184l-.352.382-.368-.366a21.389,21.389,0,0,0-7.142-5.076,3.755,3.755,0,0,0-1.373-.285c-1.378,0-2.419,1-3.624,2.16l-.276.265-6.482,6.2-.042-10.372c0-.609-.029-1.225-.057-1.877a24.815,24.815,0,0,1,.038-3.948,2.075,2.075,0,0,1,1.385-1.833,5.938,5.938,0,0,1,2.086-.25h.166c.141,0,.3,0,.454,0,1.306-.034,2.719-.062,4.32-.086,2.828-.041,5.916-.063,9.44-.066h.9c2.5,0,5.047.009,7.8.028h.037c.282,0,.66-.021,1.1-.044C2631.473,3095.974,2632.15,3095.938,2632.846,3095.938Zm3.451,2.232c-.1-.829-1.229-1.232-3.451-1.232-.67,0-1.332.036-1.916.067-.452.024-.842.046-1.151.046h-.044c-2.75-.019-5.3-.028-7.793-.028h-.9c-3.52,0-6.6.025-9.427.066-1.6.023-3.007.052-4.309.085-.163,0-.333,0-.48,0h-.166c-1.615,0-2.356.174-2.479,1.2a24.077,24.077,0,0,0-.031,3.786c.027.633.056,1.288.058,1.916l.032,8.046,4.8-4.588.274-.263c1.3-1.255,2.536-2.44,4.317-2.44a4.733,4.733,0,0,1,1.736.354,21.7,21.7,0,0,1,7.117,4.937,33.7,33.7,0,0,1,3.137-2.9l.138-.113a6.269,6.269,0,0,1,3.833-1.869c.076,0,.152,0,.228.007a6.149,6.149,0,0,1,3.625,2.076c.153.143.3.278.442.408.78.7,1.6,1.451,2.536,2.312Q2636.364,3104.107,2636.3,3098.17Zm-22.537,8.868a5.019,5.019,0,0,1,2.6,1.044c3.762,2.382,6.778,5.743,9.695,8.993l.534.6a.433.433,0,0,0,.323.169.636.636,0,0,0,.521-.389.506.506,0,0,0-.1-.583c-.417-.464-.832-.933-1.272-1.431-.8-.906-1.628-1.842-2.487-2.762l-.307-.329.295-.34c1.687-1.944,4.155-4.528,6.1-4.528a1.987,1.987,0,0,1,.817.169,9.456,9.456,0,0,1,2.58,2.088c.292.3.567.578.828.816,1.075.979,2.2,2.013,3.427,3.162l.155.145,0,.212c.01.578.04,1.183.067,1.769a27.727,27.727,0,0,1-.008,4.14c-.1,1-.8,1.705-2.075,2.086a11.854,11.854,0,0,1-3.339.363c-.465,0-.909-.011-1.3-.021-.318-.008-.592-.015-.825-.015h-.052c-.677,0-1.418,0-2.265,0l-2.269,0-2.267,0c-.889,0-1.633,0-2.34.005-1.128.006-2.277.021-3.387.035-1.431.019-2.91.038-4.367.038-.455,0-.878,0-1.3-.006-1.225-.011-2.528-.047-3.982-.112a10.919,10.919,0,0,1-2.961-.248,2.128,2.128,0,0,1-1.53-1.867,23.9,23.9,0,0,1-.068-3.853l.015-.426.176-.143c.018-.015.036-.028.054-.041l.006,0,5.361-5.125c.312-.3.615-.607.936-.935a20.88,20.88,0,0,1,2.032-1.9A3.186,3.186,0,0,1,2613.761,3107.038Zm13.155,11.8a1.413,1.413,0,0,1-1.066-.5l-.535-.6c-2.871-3.2-5.84-6.508-9.485-8.816a4.254,4.254,0,0,0-2.069-.888,2.211,2.211,0,0,0-1.355.563,20.1,20.1,0,0,0-1.931,1.808c-.313.319-.636.649-.959.958l-5.3,5.069a23.037,23.037,0,0,0,.061,3.671c.147,1.142,1.2,1.229,2.789,1.232.264,0,.514,0,.754.012,1.442.064,2.733.1,3.946.111.414,0,.835.006,1.287.006,1.45,0,2.927-.02,4.354-.038,1.112-.015,2.263-.03,3.4-.036.709,0,1.455-.005,2.346-.005l2.269,0,2.267,0c.845,0,1.584,0,2.26,0H2630c.245,0,.539.008.85.015.386.01.823.021,1.276.021,2.865,0,4.311-.508,4.419-1.552a27.016,27.016,0,0,0,0-3.989c-.025-.522-.051-1.059-.064-1.585-1.168-1.089-2.238-2.075-3.264-3.01-.282-.257-.567-.547-.869-.855a8.8,8.8,0,0,0-2.274-1.875.979.979,0,0,0-.409-.082c-1.089,0-2.786,1.293-5.047,3.846.758.822,1.488,1.648,2.2,2.45.438.5.852.964,1.266,1.425a1.506,1.506,0,0,1,.269,1.659A1.62,1.62,0,0,1,2626.916,3118.839Z" transform="translate(-1939.37 -2821.013)" fill="rgba(0,0,0,0)"/>
          <path id="Path_1017" data-name="Path 1017" d="M2651.574,3113.257a4.083,4.083,0,0,0,4.2-3.961,4.25,4.25,0,0,0-4.2-4.2c-2.476-.03-3.876,1.773-3.935,4.079A3.944,3.944,0,0,0,2651.574,3113.257Zm-.179-6.083a2.147,2.147,0,0,1,2.271,2.122,1.943,1.943,0,0,1-1.915,1.868,1.838,1.838,0,0,1-2.017-1.99C2649.763,3108.089,2650.167,3107.228,2651.4,3107.174Z" transform="translate(-1969.277 -2827.972)"/>
          <path id="Path_1017_-_Outline" data-name="Path 1017 - Outline" d="M2651.561,3113.757a4.279,4.279,0,0,1-3.2-1.371,4.86,4.86,0,0,1-1.232-3.2v-.023c.069-2.731,1.826-4.567,4.373-4.567h.067a4.762,4.762,0,0,1,3.312,1.4,4.61,4.61,0,0,1,1.385,3.307,4.325,4.325,0,0,1-1.421,3.2,4.838,4.838,0,0,1-3.274,1.262Zm-3.429-4.582a3.459,3.459,0,0,0,3.429,3.582h.011a3.565,3.565,0,0,0,3.7-3.463,3.73,3.73,0,0,0-3.71-3.7h-.055C2649.515,3105.594,2648.192,3107,2648.133,3109.175Zm3.429,2.5a2.341,2.341,0,0,1-2.326-2.488v-.023c.052-2.084,1.361-2.452,2.137-2.487l.121,0a2.723,2.723,0,0,1,1.918.794,2.563,2.563,0,0,1,.754,1.832,2.44,2.44,0,0,1-2.374,2.364C2651.716,3111.668,2651.638,3111.671,2651.562,3111.671Zm-1.326-2.5a1.351,1.351,0,0,0,1.326,1.5c.049,0,.1,0,.15-.006a1.456,1.456,0,0,0,1.455-1.372,1.569,1.569,0,0,0-.463-1.122,1.716,1.716,0,0,0-1.209-.5l-.077,0C2650.853,3107.7,2650.271,3107.9,2650.236,3109.174Z" transform="translate(-1969.277 -2827.972)" fill="rgba(0,0,0,0)"/>
        </g>
      </g>
    </g>
    <g id="Icon_-_Cart" data-name="Icon - Cart">
      <rect id="Rectangle_12" data-name="Rectangle 12" width="35" height="30" transform="translate(268 12)" fill="#fff"/>
      <g id="Icon_-_Cart-2" data-name="Icon - Cart" transform="translate(271.268 15.362)">
        <g id="Icon-Cart" transform="translate(0 0)">
          <path id="Fill-110" d="M-44-448.261H-61.769a.682.682,0,0,1-.645-.333.653.653,0,0,1-.059-.722l1.525-3.666-1.525-13.663H-67.4V-468.2h5.631a.81.81,0,0,1,.821.667l1.642,14.5a1.031,1.031,0,0,1-.059.389l-1.173,2.777h16.119c4.135,0,.422,1.611.422,1.611h0" transform="translate(67.798 468.599)"/>
          <path id="Fill-110_-_Outline" data-name="Fill-110 - Outline" d="M-53.6-457.463H-71.371a1.081,1.081,0,0,1-.979-.513,1.05,1.05,0,0,1-.077-1.128l1.47-3.537-1.474-13.206H-77.4V-478.2h6.029a1.2,1.2,0,0,1,1.214,1.006l1.647,14.533v.023a1.43,1.43,0,0,1-.081.522l-.948,2.245H-54.02c1.552,0,2.23.216,2.339.746.136.657-.882,1.249-1.76,1.63l-.158-.366ZM-76.6-476.645h4.885l1.576,14.12-1.565,3.761a.281.281,0,0,0,0,.32l.023.029.017.033a.321.321,0,0,0,.294.121h17.689a4.939,4.939,0,0,0,1.136-.678,5.255,5.255,0,0,0-1.474-.134H-70.74l1.407-3.332a.586.586,0,0,0,.027-.211l-1.64-14.473a.411.411,0,0,0-.426-.313H-76.6Z" transform="translate(77.4 478.2)"/>
          <path id="Fill-111" d="M-55.4-448.829l-.352-1.589,18.712-3.884v-6.65H-56.4V-462.6h20.178a.8.8,0,0,1,.821.824v8.122a.765.765,0,0,1-.645.765L-55.4-448.829" transform="translate(63.25 465.454)"/>
          <path id="Fill-111_-_Outline" data-name="Fill-111 - Outline" d="M-65.308-457.959l-.525-2.369,18.79-3.9v-5.926H-66.4V-472.6h20.576a1.208,1.208,0,0,1,1.219,1.223v8.122a1.169,1.169,0,0,1-.978,1.159Zm.427-1.751.179.809,18.972-3.98a.372.372,0,0,0,.329-.375v-8.122a.406.406,0,0,0-.424-.425H-65.6v.85h19.357v7.374Z" transform="translate(72.852 475.055)"/>
          <path id="Fill-112" d="M-28.374-428.527a3.26,3.26,0,0,1-3.226-3.237A3.26,3.26,0,0,1-28.374-435a3.26,3.26,0,0,1,3.226,3.237,3.26,3.26,0,0,1-3.226,3.237Zm0-4.885a1.662,1.662,0,0,0-.321.032,1.638,1.638,0,0,0-1.321,1.616,1.606,1.606,0,0,0,1.642,1.648,1.606,1.606,0,0,0,1.642-1.648,1.642,1.642,0,0,0-1.642-1.648Z" transform="translate(52.957 453.67)"/>
          <path id="Fill-112_-_Outline" data-name="Fill-112 - Outline" d="M-37.976-437.729a3.678,3.678,0,0,1-3.624-3.636A3.678,3.678,0,0,1-37.976-445a3.678,3.678,0,0,1,3.624,3.636A3.678,3.678,0,0,1-37.976-437.729Zm0-6.474a2.871,2.871,0,0,0-2.828,2.838,2.871,2.871,0,0,0,2.828,2.838,2.871,2.871,0,0,0,2.828-2.838A2.871,2.871,0,0,0-37.976-444.2Zm0,4.885a2,2,0,0,1-2.04-2.047,2.041,2.041,0,0,1,1.644-2.008,2.063,2.063,0,0,1,.4-.039,2.046,2.046,0,0,1,2.04,2.047A2,2,0,0,1-37.976-439.318Zm0-3.3a1.27,1.27,0,0,0-.246.025,1.243,1.243,0,0,0-1,1.224,1.206,1.206,0,0,0,1.245,1.249,1.206,1.206,0,0,0,1.245-1.249A1.248,1.248,0,0,0-37.976-442.614Z" transform="translate(62.559 463.271)"/>
          <path id="Fill-113" d="M-61.374-428.527a3.26,3.26,0,0,1-3.226-3.237A3.26,3.26,0,0,1-61.374-435a3.26,3.26,0,0,1,3.226,3.237,3.26,3.26,0,0,1-3.226,3.237Zm0-4.885a1.642,1.642,0,0,0-1.642,1.648,1.606,1.606,0,0,0,1.642,1.648,1.606,1.606,0,0,0,1.642-1.648,1.642,1.642,0,0,0-1.642-1.648Z" transform="translate(66.64 453.749)"/>
          <path id="Fill-113_-_Outline" data-name="Fill-113 - Outline" d="M-70.976-437.729a3.678,3.678,0,0,1-3.624-3.636A3.678,3.678,0,0,1-70.976-445a3.678,3.678,0,0,1,3.624,3.636A3.678,3.678,0,0,1-70.976-437.729Zm0-6.474a2.871,2.871,0,0,0-2.828,2.838,2.871,2.871,0,0,0,2.828,2.838,2.871,2.871,0,0,0,2.828-2.838A2.871,2.871,0,0,0-70.976-444.2Zm0,4.885a2,2,0,0,1-2.04-2.047,2.046,2.046,0,0,1,2.04-2.047,2.046,2.046,0,0,1,2.04,2.047A2,2,0,0,1-70.976-439.318Zm0-3.3a1.248,1.248,0,0,0-1.245,1.249,1.206,1.206,0,0,0,1.245,1.249,1.206,1.206,0,0,0,1.245-1.249A1.248,1.248,0,0,0-70.976-442.614Z" transform="translate(76.242 463.35)"/>
        </g>
      </g>
    </g>
    <g id="Icon_-_Home" data-name="Icon - Home">
      <rect id="Rectangle_16" data-name="Rectangle 16" width="35" height="30" transform="translate(176 13)" fill="#fff"/>
      <g id="Home" transform="translate(178 14.012)">
        <path id="Path_1025" data-name="Path 1025" d="M32.279,18.575,18.072,4.321a1.09,1.09,0,0,0-1.545,0L2.32,18.575a1.1,1.1,0,0,0,.773,1.872H6.371v8.772a1.1,1.1,0,0,0,1.093,1.1H27.135a1.094,1.094,0,0,0,1.093-1.1V20.447h3.279a1.1,1.1,0,0,0,.773-1.872ZM15.114,28.122V22.64a2.186,2.186,0,1,1,4.371,0v5.482Zm12.021-9.868a1.094,1.094,0,0,0-1.093,1.1v8.772H21.671V22.64a4.371,4.371,0,1,0-8.743,0v5.482H8.557V19.35a1.1,1.1,0,0,0-1.093-1.1H5.731L17.3,6.647,28.868,18.254Z" transform="translate(-1.84 -3.84)"/>
        <path id="Path_1025_-_Outline" data-name="Path 1025 - Outline" d="M26.794,30.136H7.123A1.256,1.256,0,0,1,5.87,28.879V20.268H2.752a1.257,1.257,0,0,1-.886-2.145L16.073,3.868a1.249,1.249,0,0,1,1.771,0L32.051,18.122a1.257,1.257,0,0,1-.886,2.145H28.047v8.611A1.256,1.256,0,0,1,26.794,30.136ZM16.958,3.821a.926.926,0,0,0-.66.274L2.092,18.349a.936.936,0,0,0,.66,1.6H6.19v8.932a.936.936,0,0,0,.933.936H26.794a.936.936,0,0,0,.933-.936V19.947h3.438a.936.936,0,0,0,.66-1.6L17.618,4.095A.925.925,0,0,0,16.958,3.821Zm8.9,24.122H21.17V22.3a4.212,4.212,0,1,0-8.423,0v5.643H8.056V19.011a.936.936,0,0,0-.933-.936H5L16.958,6.081,28.913,18.075H26.794a.936.936,0,0,0-.933.936Zm-4.371-.321h4.052V19.011a1.256,1.256,0,0,1,1.253-1.257h1.347L16.958,6.534,5.776,17.754H7.123a1.256,1.256,0,0,1,1.253,1.257v8.611h4.052V22.3a4.531,4.531,0,1,1,9.062,0Zm-2.186.321H14.613V22.3a2.345,2.345,0,1,1,4.691,0Zm-4.371-.321h4.052V22.3a2.026,2.026,0,1,0-4.052,0Z" transform="translate(-1.498 -3.5)"/>
      </g>
    </g>
    <g id="Icon_-_Menu" data-name="Icon - Menu">
      <rect id="Rectangle_13" data-name="Rectangle 13" width="35" height="30" transform="translate(318 13)" fill="#fff"/>
      <g id="Group_18" data-name="Group 18" transform="translate(322 20)">
        <path id="Line_1" data-name="Line 1" d="M28,1.5H0A1.5,1.5,0,0,1-1.5,0,1.5,1.5,0,0,1,0-1.5H28A1.5,1.5,0,0,1,29.5,0,1.5,1.5,0,0,1,28,1.5Z" transform="translate(0 0)"/>
        <path id="Line_2" data-name="Line 2" d="M28,1.5H0A1.5,1.5,0,0,1-1.5,0,1.5,1.5,0,0,1,0-1.5H28A1.5,1.5,0,0,1,29.5,0,1.5,1.5,0,0,1,28,1.5Z" transform="translate(0 8)"/>
        <path id="Line_3" data-name="Line 3" d="M28,1.5H0A1.5,1.5,0,0,1-1.5,0,1.5,1.5,0,0,1,0-1.5H28A1.5,1.5,0,0,1,29.5,0,1.5,1.5,0,0,1,28,1.5Z" transform="translate(0 16)"/>
      </g>
    </g>
    <g id="Icon_-_Account" data-name="Icon - Account">
      <rect id="Rectangle_14" data-name="Rectangle 14" width="35" height="30" transform="translate(224 13)" fill="#fff"/>
      <g id="Group_19" data-name="Group 19" transform="translate(228.036 14.52)">
        <path id="Icon_-_Account-2" data-name="Icon - Account" d="M27.75,14.42A13.375,13.375,0,1,0,5.095,24.062a.817.817,0,0,0,.211.192,13.265,13.265,0,0,0,18.14,0,.817.817,0,0,0,.211-.192A13.393,13.393,0,0,0,27.75,14.42ZM14.375,2.677a11.733,11.733,0,0,1,9.173,19.012,7.981,7.981,0,0,0-5.6-5.028,6.1,6.1,0,1,0-7.137,0,7.981,7.981,0,0,0-5.6,5.028A11.733,11.733,0,0,1,14.375,2.677ZM9.946,11.714a4.429,4.429,0,1,1,4.429,4.436A4.437,4.437,0,0,1,9.946,11.714ZM6.607,23.178c.251-3.075,3.5-5.351,7.768-5.351s7.517,2.276,7.768,5.351a11.6,11.6,0,0,1-15.536,0Z" transform="translate(-0.68 -1)"/>
        <path id="Icon_-_Account_-_Outline" data-name="Icon - Account - Outline" d="M13.695,0a13.733,13.733,0,0,1,9.518,23.6,1.125,1.125,0,0,1-.251.23,13.584,13.584,0,0,1-18.535,0,1.125,1.125,0,0,1-.251-.23,13.76,13.76,0,0,1-3.047-4.405A13.738,13.738,0,0,1,13.695,0Zm0,26.839a12.978,12.978,0,0,0,8.853-3.5l.021-.019.024-.015a.5.5,0,0,0,.13-.118l.014-.019.017-.016a13.056,13.056,0,1,0-18.117,0l.017.016.014.019a.5.5,0,0,0,.13.118l.024.015.021.019A12.978,12.978,0,0,0,13.695,26.839Zm0-25.162a12.051,12.051,0,0,1,9.423,19.532l-.376.477-.18-.581a7.638,7.638,0,0,0-5.391-4.815l-.62-.186.524-.38a5.781,5.781,0,1,0-6.762,0l.524.38-.62.186a7.638,7.638,0,0,0-5.391,4.815l-.18.581-.376-.477a12.1,12.1,0,0,1-1.908-3.447A12.059,12.059,0,0,1,13.695,1.677Zm9.273,18.667a11.293,11.293,0,0,0,2.111-6.6,11.384,11.384,0,1,0-22.767,0,11.293,11.293,0,0,0,2.111,6.6,6.893,6.893,0,0,1,.62-1.167A7.643,7.643,0,0,1,6.33,17.694a9.6,9.6,0,0,1,3.136-1.831A6.514,6.514,0,0,1,8,14a6.42,6.42,0,1,1,11.384,0,6.514,6.514,0,0,1-1.463,1.859,9.6,9.6,0,0,1,3.136,1.831,7.642,7.642,0,0,1,1.288,1.483A6.893,6.893,0,0,1,22.967,20.344ZM13.695,6.278a4.756,4.756,0,1,1-4.749,4.756A4.758,4.758,0,0,1,13.695,6.278Zm0,8.871a4.115,4.115,0,1,0-4.109-4.115A4.117,4.117,0,0,0,13.695,15.149Zm0,1.677a11.091,11.091,0,0,1,3.066.416,8.525,8.525,0,0,1,2.5,1.163,5.516,5.516,0,0,1,2.515,4.067l.013.159-.119.106a12.061,12.061,0,0,1-3.637,2.244,11.9,11.9,0,0,1-8.686,0,12.061,12.061,0,0,1-3.637-2.244L5.6,22.632l.013-.159a5.516,5.516,0,0,1,2.515-4.067,8.525,8.525,0,0,1,2.5-1.163A11.091,11.091,0,0,1,13.695,16.827Zm7.434,5.54A4.928,4.928,0,0,0,18.9,18.934a9.218,9.218,0,0,0-5.208-1.466,9.218,9.218,0,0,0-5.208,1.466,4.928,4.928,0,0,0-2.225,3.433,11.282,11.282,0,0,0,14.867,0Z" transform="translate(0 0)"/>
        <path id="Icon_-_Account_-_Outline-2" data-name="Icon - Account - Outline" d="M9.562-4a13.6,13.6,0,0,1,9.41,23.383.913.913,0,0,1-.239.215,13.446,13.446,0,0,1-18.367-.02.879.879,0,0,1-.232-.215A13.485,13.485,0,0,1-4,9.607,13.6,13.6,0,0,1,9.562-4Zm0,26.839A13.111,13.111,0,0,0,18.5,19.3a.759.759,0,0,0,.189-.169A13.19,13.19,0,1,0,.411,19.114a.722.722,0,0,0,.182.169A13.148,13.148,0,0,0,9.562,22.839Zm0-25.162A11.923,11.923,0,0,1,21.451,9.607a11.817,11.817,0,0,1-2.571,7.386l-.22.278-.1-.339a7.768,7.768,0,0,0-5.48-4.9l-.362-.109.306-.222a5.914,5.914,0,1,0-6.918,0l.306.222-.362.109a7.768,7.768,0,0,0-5.48,4.9l-.1.339-.22-.278A11.817,11.817,0,0,1-2.328,9.607,11.923,11.923,0,0,1,9.562-2.323ZM18.8,16.485a11.432,11.432,0,0,0,2.28-6.879,11.517,11.517,0,1,0-23.034,0,11.432,11.432,0,0,0,2.28,6.879A8.133,8.133,0,0,1,5.6,11.779a6.287,6.287,0,1,1,7.93,0A8.133,8.133,0,0,1,18.8,16.485ZM9.562,2.278A4.623,4.623,0,1,1,4.946,6.9,4.624,4.624,0,0,1,9.562,2.278Zm0,8.871A4.248,4.248,0,1,0,5.319,6.9,4.25,4.25,0,0,0,9.562,11.149Zm0,1.677c4.347,0,7.692,2.323,7.954,5.523l.008.093-.069.062a11.79,11.79,0,0,1-15.784,0L1.6,18.443l.008-.093C1.869,15.15,5.214,12.827,9.562,12.827Zm7.574,5.461c-.3-2.953-3.468-5.087-7.574-5.087s-7.271,2.134-7.574,5.087a11.416,11.416,0,0,0,15.147,0Z" transform="translate(4.133 4)"/>
      </g>
    </g>
  </g>
</svg>
