<svg xmlns="http://www.w3.org/2000/svg" xmlns:xlink="http://www.w3.org/1999/xlink" width="1920" height="634" viewBox="0 0 1920 634">
  <defs>
    <filter id="Rectangle_66" x="-9" y="-6" width="1938" height="194" filterUnits="userSpaceOnUse">
      <feOffset dy="3" input="SourceAlpha"/>
      <feGaussianBlur stdDeviation="3" result="blur"/>
      <feFlood flood-opacity="0.161"/>
      <feComposite operator="in" in2="blur"/>
    </filter>
    <filter id="Rectangle_66-2" x="-9" y="-6" width="1938" height="194" filterUnits="userSpaceOnUse">
      <feOffset dy="3" input="SourceAlpha"/>
      <feGaussianBlur stdDeviation="3" result="blur-2"/>
      <feFlood flood-opacity="0.161" result="color"/>
      <feComposite operator="out" in="SourceGraphic" in2="blur-2"/>
      <feComposite operator="in" in="color"/>
      <feComposite operator="in" in2="SourceGraphic"/>
    </filter>
    <filter id="Subtraction_1" x="1489.101" y="32.207" width="48.16" height="38.156" filterUnits="userSpaceOnUse">
      <feOffset dy="3" input="SourceAlpha"/>
      <feGaussianBlur stdDeviation="3" result="blur-3"/>
      <feFlood flood-opacity="0.161"/>
      <feComposite operator="in" in2="blur-3"/>
      <feComposite in="SourceGraphic"/>
    </filter>
    <filter id="Subtraction_1-2" x="1489.101" y="32.207" width="48.16" height="38.156" filterUnits="userSpaceOnUse">
      <feOffset dy="3" input="SourceAlpha"/>
      <feGaussianBlur stdDeviation="3" result="blur-4"/>
      <feFlood flood-opacity="0.161" result="color-2"/>
      <feComposite operator="out" in="SourceGraphic" in2="blur-4"/>
      <feComposite operator="in" in="color-2"/>
      <feComposite operator="in" in2="SourceGraphic"/>
    </filter>
    <filter id="Subtraction_2" x="1520.405" y="40.189" width="39.037" height="31.895" filterUnits="userSpaceOnUse">
      <feOffset dy="3" input="SourceAlpha"/>
      <feGaussianBlur stdDeviation="3" result="blur-5"/>
      <feFlood flood-opacity="0.161"/>
      <feComposite operator="in" in2="blur-5"/>
      <feComposite in="SourceGraphic"/>
    </filter>
    <filter id="Subtraction_2-2" x="1520.405" y="40.189" width="39.037" height="31.895" filterUnits="userSpaceOnUse">
      <feOffset dy="3" input="SourceAlpha"/>
      <feGaussianBlur stdDeviation="3" result="blur-6"/>
      <feFlood flood-opacity="0.161" result="color-3"/>
      <feComposite operator="out" in="SourceGraphic" in2="blur-6"/>
      <feComposite operator="in" in="color-3"/>
      <feComposite operator="in" in2="SourceGraphic"/>
    </filter>
    <filter id="Path_1127" x="1341.517" y="61.946" width="47.936" height="45.76" filterUnits="userSpaceOnUse">
      <feOffset dy="3" input="SourceAlpha"/>
      <feGaussianBlur stdDeviation="3" result="blur-7"/>
      <feFlood flood-opacity="0.161"/>
      <feComposite operator="in" in2="blur-7"/>
      <feComposite in="SourceGraphic"/>
    </filter>
    <filter id="Path_1127-2" x="1341.517" y="61.946" width="47.936" height="45.76" filterUnits="userSpaceOnUse">
      <feOffset dy="3" input="SourceAlpha"/>
      <feGaussianBlur stdDeviation="3" result="blur-8"/>
      <feFlood flood-opacity="0.161" result="color-4"/>
      <feComposite operator="out" in="SourceGraphic" in2="blur-8"/>
      <feComposite operator="in" in="color-4"/>
      <feComposite operator="in" in2="SourceGraphic"/>
    </filter>
    <filter id="Search_The_Entire_Store_Here_:_" x="599" y="49" width="596" height="90" filterUnits="userSpaceOnUse">
      <feOffset dy="3" input="SourceAlpha"/>
      <feGaussianBlur stdDeviation="3" result="blur-9"/>
      <feFlood flood-opacity="0.161"/>
      <feComposite operator="in" in2="blur-9"/>
      <feComposite in="SourceGraphic"/>
    </filter>
    <filter id="Search_The_Entire_Store_Here_:_2" x="599" y="49" width="596" height="90" filterUnits="userSpaceOnUse">
      <feOffset dy="3" input="SourceAlpha"/>
      <feGaussianBlur stdDeviation="3" result="blur-10"/>
      <feFlood flood-opacity="0.161" result="color-5"/>
      <feComposite operator="out" in="SourceGraphic" in2="blur-10"/>
      <feComposite operator="in" in="color-5"/>
      <feComposite operator="in" in2="SourceGraphic"/>
    </filter>
    <filter id="Rectangle_48" x="1537" y="471" width="283" height="119" filterUnits="userSpaceOnUse">
      <feOffset dy="3" input="SourceAlpha"/>
      <feGaussianBlur stdDeviation="3" result="blur-11"/>
      <feFlood flood-opacity="0.161"/>
      <feComposite operator="in" in2="blur-11"/>
      <feComposite in="SourceGraphic"/>
    </filter>
    <filter id="Rectangle_48-2" x="1537" y="471" width="283" height="119" filterUnits="userSpaceOnUse">
      <feOffset dy="3" input="SourceAlpha"/>
      <feGaussianBlur stdDeviation="3" result="blur-12"/>
      <feFlood flood-opacity="0.161" result="color-6"/>
      <feComposite operator="out" in="SourceGraphic" in2="blur-12"/>
      <feComposite operator="in" in="color-6"/>
      <feComposite operator="in" in2="SourceGraphic"/>
    </filter>
    <filter id="Buy_Now_" x="1587" y="485" width="185" height="75" filterUnits="userSpaceOnUse">
      <feOffset dy="3" input="SourceAlpha"/>
      <feGaussianBlur stdDeviation="3" result="blur-13"/>
      <feFlood flood-opacity="0.161" result="color-7"/>
      <feComposite operator="out" in="SourceGraphic" in2="blur-13"/>
      <feComposite operator="in" in="color-7"/>
      <feComposite operator="in" in2="SourceGraphic"/>
    </filter>
    <filter id="Path_1127-3" x="1741.517" y="234.625" width="47.936" height="45.76" filterUnits="userSpaceOnUse">
      <feOffset dy="3" input="SourceAlpha"/>
      <feGaussianBlur stdDeviation="3" result="blur-14"/>
      <feFlood flood-opacity="0.161"/>
      <feComposite operator="in" in2="blur-14"/>
      <feComposite in="SourceGraphic"/>
    </filter>
    <filter id="Path_1127-4" x="1741.517" y="234.625" width="47.936" height="45.76" filterUnits="userSpaceOnUse">
      <feOffset dy="3" input="SourceAlpha"/>
      <feGaussianBlur stdDeviation="3" result="blur-15"/>
      <feFlood flood-opacity="0.161" result="color-8"/>
      <feComposite operator="out" in="SourceGraphic" in2="blur-15"/>
      <feComposite operator="in" in="color-8"/>
      <feComposite operator="in" in2="SourceGraphic"/>
    </filter>
    <filter id="Path_1153" x="1592.31" y="203.478" width="54.569" height="45.632" filterUnits="userSpaceOnUse">
      <feOffset dy="3" input="SourceAlpha"/>
      <feGaussianBlur stdDeviation="3" result="blur-16"/>
      <feFlood flood-opacity="0.161"/>
      <feComposite operator="in" in2="blur-16"/>
      <feComposite in="SourceGraphic"/>
    </filter>
    <filter id="Path_1153-2" x="1592.31" y="203.478" width="54.569" height="45.632" filterUnits="userSpaceOnUse">
      <feOffset dy="3" input="SourceAlpha"/>
      <feGaussianBlur stdDeviation="3" result="blur-17"/>
      <feFlood flood-opacity="0.161" result="color-9"/>
      <feComposite operator="out" in="SourceGraphic" in2="blur-17"/>
      <feComposite operator="in" in="color-9"/>
      <feComposite operator="in" in2="SourceGraphic"/>
    </filter>
    <filter id="Path_1152" x="1642.034" y="206.044" width="43.476" height="37.095" filterUnits="userSpaceOnUse">
      <feOffset dy="3" input="SourceAlpha"/>
      <feGaussianBlur stdDeviation="3" result="blur-18"/>
      <feFlood flood-opacity="0.161"/>
      <feComposite operator="in" in2="blur-18"/>
      <feComposite in="SourceGraphic"/>
    </filter>
    <filter id="Path_1152-2" x="1642.034" y="206.044" width="43.476" height="37.095" filterUnits="userSpaceOnUse">
      <feOffset dy="3" input="SourceAlpha"/>
      <feGaussianBlur stdDeviation="3" result="blur-19"/>
      <feFlood flood-opacity="0.161" result="color-10"/>
      <feComposite operator="out" in="SourceGraphic" in2="blur-19"/>
      <feComposite operator="in" in="color-10"/>
      <feComposite operator="in" in2="SourceGraphic"/>
    </filter>
    <clipPath id="clip-Components-Web">
      <rect width="1920" height="634"/>
    </clipPath>
  </defs>
  <g id="Components-Web" clip-path="url(#clip-Components-Web)">
    <rect width="1920" height="634" fill="#fff"/>
    <g id="Nav_Bar" data-name="Nav Bar">
      <g data-type="innerShadowGroup">
        <g transform="matrix(1, 0, 0, 1, 0, 0)" filter="url(#Rectangle_66)">
          <g id="Rectangle_66-3" data-name="Rectangle 66" fill="#fff" stroke="#707070" stroke-width="1">
            <rect width="1920" height="176" stroke="none"/>
            <rect x="0.5" y="0.5" width="1919" height="175" fill="none"/>
          </g>
        </g>
        <rect id="Rectangle_66-4" data-name="Rectangle 66" width="1920" height="176" fill="#fff"/>
        <g transform="matrix(1, 0, 0, 1, 0, 0)" filter="url(#Rectangle_66-2)">
          <rect id="Rectangle_66-5" data-name="Rectangle 66" width="1920" height="176" fill="#fff"/>
        </g>
        <g id="Rectangle_66-6" data-name="Rectangle 66" fill="none" stroke="#707070" stroke-width="1">
          <rect width="1920" height="176" stroke="none"/>
          <rect x="0.5" y="0.5" width="1919" height="175" fill="none"/>
        </g>
      </g>
      <g id="Component_11_1" data-name="Component 11 – 1" transform="translate(1623.086 41.207)">
        <path id="Path_1050" data-name="Path 1050" d="M864.718,163.993l-.809-.5a41.058,41.058,0,0,1-5.768-4.41,18.56,18.56,0,0,1-3.654-4.428,6.332,6.332,0,0,1-.632-5.63,5.635,5.635,0,0,1,1.992-2.6,4.865,4.865,0,0,1,2.81-.844,9.441,9.441,0,0,1,6.3,3.063,14.516,14.516,0,0,1,1.164-1.005,7.725,7.725,0,0,1,4.67-1.839,6.119,6.119,0,0,1,5.007,2.861l.157.215.085.252c.788,2.349.646,6.071-4.5,10.459a33.01,33.01,0,0,1-5.969,3.978Zm-6.06-14.984c-.544,0-1.163.156-1.633,1.312l0,.008c-.574,1.389.672,3.656,3.418,6.22a37.6,37.6,0,0,0,4.447,3.5,29.555,29.555,0,0,0,4.473-3.1c1.95-1.67,4.1-4.128,3.508-6.485-.991-1.238-1.8-1.238-2.075-1.238-.858,0-2.335.518-4.5,2.984-.067.077-.12.137-.169.189a1.747,1.747,0,0,1-1.319.608H863.76l-.477-.929C862.572,150.7,860.3,149.009,858.657,149.009Z" transform="translate(-819.984 -85.019)" fill="#6da581"/>
        <path id="Path_1047" data-name="Path 1047" d="M860.813,124.641c1.254,0,3.365.621,9.523,5.23,3.711,2.777,8.459,6.7,13.369,11.041,4.7,4.158,9.216,8.4,12.712,11.94,1.825,1.848,3.312,3.445,4.42,4.747a12.6,12.6,0,0,1,2.423,3.536,2.537,2.537,0,0,1-.6,2.936l-.058.049c-1.314,1.07-3.413,1.091-5.843,1.116-1.06.011-2.155.022-3.061.128a4.847,4.847,0,0,0-1.246.271c.02.846.11,2.839.221,5.3.269,5.951.719,15.911.843,24.3.069,4.66.03,8.349-.116,10.964a29.553,29.553,0,0,1-.384,3.675c-.141.747-.472,2.5-1.992,3.035-.469.166-1.255.445-11.894.661-6.086.124-14.131.195-22.071.195-7.439,0-14.374-.062-19.527-.176-9.2-.2-10.319-.5-10.8-.63a3.137,3.137,0,0,1-1.337-.8,2.13,2.13,0,0,1-.208-.216,4.7,4.7,0,0,1-.751-2.966c-.037-.923-.035-2.182.005-3.847.075-3.06.274-7.161.484-11.5.507-10.456,1.137-23.445.294-27.62a16.028,16.028,0,0,0-2.046-.3c-.476-.051-.969-.1-1.474-.176a9.624,9.624,0,0,0-1.342-.075c-.474,0-.962.018-1.435.035-.448.016-.871.032-1.265.032a6.842,6.842,0,0,1-1.311-.1,2.518,2.518,0,0,1-1.331-4.409q.055-.059.114-.115c4.406-4.121,14.457-13.185,24.085-21.266,5.183-4.35,9.511-7.8,12.862-10.259C857.749,125.215,859.628,124.641,860.813,124.641Zm37.239,36.3c-.836-1.024-2.242-2.606-4.6-5-3.352-3.4-7.7-7.494-12.251-11.528-4.729-4.194-9.332-8.015-12.962-10.761-5.257-3.977-7.009-4.612-7.406-4.712-.375.107-1.977.734-6.808,4.321-3.306,2.455-7.532,5.845-12.559,10.076-7.583,6.382-15.375,13.323-20.342,17.86a11.688,11.688,0,0,1,1.184.1c.429.061.884.11,1.324.157a13.859,13.859,0,0,1,3.186.584,4.165,4.165,0,0,1,1.7,1.083,3.43,3.43,0,0,1,.893,2.022c.436,2.151.581,5.975.456,12-.107,5.194-.4,11.305-.665,16.7-.193,3.972-.375,7.724-.46,10.636-.07,2.4-.056,3.73-.023,4.466,1.123.1,3.6.256,9,.373,5.11.111,11.978.173,19.338.173,7.668,0,15.5-.067,21.477-.184,6.316-.123,9.093-.269,10.3-.366a36.6,36.6,0,0,0,.361-4.6c.091-2.67.095-6.235.012-10.6-.151-7.956-.55-16.772-.813-22.607-.134-2.968-.223-4.929-.229-5.674a3.782,3.782,0,0,1,1.279-2.935,5.447,5.447,0,0,1,2.414-1.175,22.459,22.459,0,0,1,4.852-.389C897.178,160.954,897.63,160.949,898.052,160.937Z" transform="translate(-814.148 -124.641)" fill="#565e62"/>
        <path id="Path_1049" data-name="Path 1049" d="M874.737,219.957l-4.239-.581c.01-.072.993-7.294,1.492-14.912a97.291,97.291,0,0,0,.215-10.956c-.239-4.6-.987-5.526-1.044-5.59-.817-.747-3.256-1.547-6.7-1.547h-.035c-3.216.005-5.653.75-6.313,1.449l-.008.009c-.048.057-.77,1.006-1,5.687a104.907,104.907,0,0,0,.195,10.991c.461,7.621,1.371,14.818,1.38,14.89l-4.245.54c-.01-.074-.95-7.516-1.416-15.339a106.373,106.373,0,0,1-.176-11.51c.231-4.353.9-6.887,2.165-8.212a8.646,8.646,0,0,1,4.214-2.182,21.572,21.572,0,0,1,5.2-.6h.04a22.4,22.4,0,0,1,5.225.585,9.834,9.834,0,0,1,4.38,2.1c1.4,1.295,2.141,3.834,2.394,8.233a98.508,98.508,0,0,1-.191,11.537C875.767,212.4,874.748,219.883,874.737,219.957Z" transform="translate(-819.717 -133.928)" fill="#565e62"/>
      </g>
      <g id="Component_10_1" data-name="Component 10 – 1" transform="translate(1468.152 38.207)">
        <path id="Path_1052" data-name="Path 1052" d="M722.472,217.571h-.038L661.862,216.5a2.123,2.123,0,0,1-1.423-3.669,19.053,19.053,0,0,0,2.809-3.731,18.837,18.837,0,0,0,2.73-9.637c0-2.752.04-5.6.082-8.614.1-6.849.214-15.373-.081-27.493-.091-3.723-1.215-6.3-3.437-7.879-2.776-1.973-6.856-2.06-9.789-1.784a31.169,31.169,0,0,0-5.961,1.152,2.126,2.126,0,0,1-1.3-4.047,35.283,35.283,0,0,1,6.869-1.339,25.775,25.775,0,0,1,6.28.119A14.709,14.709,0,0,1,665,152.009a11.536,11.536,0,0,1,3.726,4.424,16.472,16.472,0,0,1,1.5,6.819c.3,12.2.178,20.77.082,27.656-.042,3-.081,5.832-.081,8.555a23.531,23.531,0,0,1-3.976,12.862l56.262,1a2.126,2.126,0,0,1-.037,4.252Z" transform="translate(-644.017 -139.905)" fill="#565e62"/>
        <path id="Ellipse_7" data-name="Ellipse 7" d="M8.945,4.209a4.736,4.736,0,1,0,4.736,4.736A4.741,4.741,0,0,0,8.945,4.209M8.945,0A8.945,8.945,0,1,1,0,8.945,8.945,8.945,0,0,1,8.945,0Z" transform="translate(72.22 72.903)" fill="#565e62"/>
        <path id="Ellipse_8" data-name="Ellipse 8" d="M8.945,3.157a5.788,5.788,0,1,0,5.788,5.788A5.794,5.794,0,0,0,8.945,3.157M8.945,0A8.945,8.945,0,1,1,0,8.945,8.945,8.945,0,0,1,8.945,0Z" transform="translate(3.139 72.903)" fill="#565e62" stroke="#565e62" stroke-linecap="round" stroke-width="1"/>
        <g data-type="innerShadowGroup">
          <g transform="matrix(1, 0, 0, 1, -1468.15, -38.21)" filter="url(#Subtraction_1)">
            <path id="Subtraction_1-3" data-name="Subtraction 1" d="M6.581,20.156h0A28.492,28.492,0,0,1,5.117,16.1c-.234-.936-.455-1.9-.688-2.915A62.04,62.04,0,0,0,2.456,5.91,50.727,50.727,0,0,0,0,0H0L.028,0A88.322,88.322,0,0,1,11.735,2.421a53.218,53.218,0,0,1,9.441,3.534,19.789,19.789,0,0,1,7.176,5.534A8.633,8.633,0,0,1,30,18.408a8.128,8.128,0,0,1-.352,1.272c-2.9-.231-5.784-.39-8.568-.472a10.476,10.476,0,0,0-4.034-3.373,1.279,1.279,0,0,0,.128.139,20.49,20.49,0,0,1,2.547,3.2c-.967-.02-1.959-.031-2.947-.031-2.77,0-5.4.085-7.812.253a5.379,5.379,0,0,0-2.383.76Z" transform="translate(1498.1 38.21)" fill="#6da581"/>
          </g>
          <g transform="matrix(1, 0, 0, 1, -1468.15, -38.21)" filter="url(#Subtraction_1-2)">
            <path id="Subtraction_1-4" data-name="Subtraction 1" d="M6.581,20.156h0A28.492,28.492,0,0,1,5.117,16.1c-.234-.936-.455-1.9-.688-2.915A62.04,62.04,0,0,0,2.456,5.91,50.727,50.727,0,0,0,0,0H0L.028,0A88.322,88.322,0,0,1,11.735,2.421a53.218,53.218,0,0,1,9.441,3.534,19.789,19.789,0,0,1,7.176,5.534A8.633,8.633,0,0,1,30,18.408a8.128,8.128,0,0,1-.352,1.272c-2.9-.231-5.784-.39-8.568-.472a10.476,10.476,0,0,0-4.034-3.373,1.279,1.279,0,0,0,.128.139,20.49,20.49,0,0,1,2.547,3.2c-.967-.02-1.959-.031-2.947-.031-2.77,0-5.4.085-7.812.253a5.379,5.379,0,0,0-2.383.76Z" transform="translate(1498.1 38.21)" fill="#fff"/>
          </g>
        </g>
        <g data-type="innerShadowGroup">
          <g transform="matrix(1, 0, 0, 1, -1468.15, -38.21)" filter="url(#Subtraction_2)">
            <path id="Subtraction_2-3" data-name="Subtraction 2" d="M15.6,13.895h0c-2.706-.513-5.66-.972-8.779-1.364A13.734,13.734,0,0,1,8.833,10.2a.892.892,0,0,0,.091-.089,7.175,7.175,0,0,0-2.99,2.31c-1.9-.229-3.853-.433-5.8-.6-.032-.148-.058-.29-.075-.425C-.425,7.77,2.252,5.5,4.582,4.227,11.013.711,20.937.007,21.037,0a33.92,33.92,0,0,0-1.874,3.913A42.039,42.039,0,0,0,17.57,8.76c-.195.682-.379,1.327-.572,1.954a18.377,18.377,0,0,1-1.4,3.18Z" transform="translate(1529.4 46.19)" fill="#6da581"/>
          </g>
          <g transform="matrix(1, 0, 0, 1, -1468.15, -38.21)" filter="url(#Subtraction_2-2)">
            <path id="Subtraction_2-4" data-name="Subtraction 2" d="M15.6,13.895h0c-2.706-.513-5.66-.972-8.779-1.364A13.734,13.734,0,0,1,8.833,10.2a.892.892,0,0,0,.091-.089,7.175,7.175,0,0,0-2.99,2.31c-1.9-.229-3.853-.433-5.8-.6-.032-.148-.058-.29-.075-.425C-.425,7.77,2.252,5.5,4.582,4.227,11.013.711,20.937.007,21.037,0a33.92,33.92,0,0,0-1.874,3.913A42.039,42.039,0,0,0,17.57,8.76c-.195.682-.379,1.327-.572,1.954a18.377,18.377,0,0,1-1.4,3.18Z" transform="translate(1529.4 46.19)" fill="#fff"/>
          </g>
        </g>
        <g id="Group_55" data-name="Group 55" transform="translate(22.225 18.634)">
          <path id="Path_1053" data-name="Path 1053" d="M666.6,200.831a2.1,2.1,0,0,1-.027-4.209c.13,0,13.14-.18,26.607-.9,7.883-.42,14.372-.939,19.286-1.543,7.063-.868,9.222-1.729,9.822-2.058l.108-.535c.624-3.077,1.922-9.479,2.727-15.5a68.874,68.874,0,0,0,.695-8.187,10.47,10.47,0,0,0-.421-3.881c-2.821-1.347-9.487-2.816-17.257-3.789a139.772,139.772,0,0,0-25.6-.987c-8.258.574-13.44,2.47-13.526,4.949a2.1,2.1,0,0,1-4.207-.145c.069-2.015,1.133-4.821,5.8-6.741a38.668,38.668,0,0,1,11.637-2.263,144.115,144.115,0,0,1,26.41,1.009c4.213.527,8.16,1.2,11.415,1.938a32.457,32.457,0,0,1,7.674,2.5,2.108,2.108,0,0,1,.348.236c1.28,1.068,1.873,3.05,1.925,6.429a64.881,64.881,0,0,1-.646,8.856c-.817,6.35-2.194,13.146-2.856,16.411-.077.378-.144.708-.2.983-.378,1.89-2.453,2.745-4.219,3.279a48.648,48.648,0,0,1-6.981,1.39c-4.882.69-11.594,1.28-19.949,1.754-14.172.8-28.405,1-28.547,1Z" transform="translate(-664.492 -154.81)" fill="#565e62"/>
        </g>
      </g>
      <g id="Component_7_1" data-name="Component 7 – 1" transform="translate(1775.043 50.952)">
        <path id="Path_1072" data-name="Path 1072" d="M0,0H82.159" fill="none" stroke="#565e62" stroke-linecap="round" stroke-width="5"/>
        <line id="Line_17" data-name="Line 17" x2="82.159" transform="translate(0 32.719)" fill="none" stroke="#565e62" stroke-linecap="round" stroke-width="5"/>
        <line id="Line_17-2" data-name="Line 17" x2="82.159" transform="translate(0 65.438)" fill="none" stroke="#565e62" stroke-linecap="round" stroke-width="5"/>
      </g>
      <text id="Green_Tea" data-name="Green Tea" transform="translate(54 107)" fill="#8c9295" font-size="62" font-family="Pacifico-Regular, Pacifico" letter-spacing="0.05em"><tspan x="0" y="0">Green </tspan><tspan y="0" font-family="JosefinSans-Regular, Josefin Sans">Tea</tspan></text>
      <g id="Search_Icon" data-name="Search Icon" transform="translate(1331 48.321)">
        <g id="Path_1128" data-name="Path 1128" fill="none" stroke-linecap="round">
          <path d="M33.415,0A33.415,33.415,0,1,1,0,33.415,33.415,33.415,0,0,1,33.415,0Z" stroke="none"/>
          <path d="M 33.415283203125 4.500003814697266 C 29.50975799560547 4.500003814697266 25.72344589233398 5.263889312744141 22.16152191162109 6.770454406738281 C 18.71884536743164 8.226577758789062 15.62607192993164 10.31209182739258 12.96908187866211 12.96906661987305 C 10.31210708618164 15.62604141235352 8.226581573486328 18.71881484985352 6.770458221435547 22.16149139404297 C 5.263881683349609 25.72339248657227 4.499996185302734 29.50968933105469 4.499996185302734 33.41520309448242 C 4.499996185302734 37.32071685791016 5.263881683349609 41.10700225830078 6.770458221435547 44.66891479492188 C 8.226581573486328 48.11157989501953 10.31210708618164 51.20435333251953 12.96908187866211 53.861328125 C 15.62607192993164 56.51830291748047 18.71884536743164 58.60382843017578 22.16153335571289 60.05995178222656 C 25.72344589233398 61.5665168762207 29.50975799560547 62.33040237426758 33.415283203125 62.33040237426758 C 37.32080841064453 62.33040237426758 41.10712051391602 61.5665168762207 44.66903305053711 60.05995178222656 C 48.11172103881836 58.60382843017578 51.20449447631836 56.51830291748047 53.86148452758789 53.861328125 C 56.51845932006836 51.20435333251953 58.60398101806641 48.11157989501953 60.06010818481445 44.66891479492188 C 61.56668472290039 41.10700225830078 62.33057022094727 37.32071685791016 62.33057022094727 33.41520309448242 C 62.33057022094727 29.50968933105469 61.56668472290039 25.72339248657227 60.06010818481445 22.16149139404297 C 58.60398101806641 18.71881484985352 56.51845932006836 15.62604141235352 53.86148452758789 12.96906661987305 C 51.20449447631836 10.31209182739258 48.11172103881836 8.226577758789062 44.66904449462891 6.770454406738281 C 41.10712051391602 5.263889312744141 37.32080841064453 4.500003814697266 33.415283203125 4.500003814697266 M 33.415283203125 0 C 51.87003326416016 0 66.83057403564453 14.96049118041992 66.83057403564453 33.41520309448242 C 66.83057403564453 51.86990356445312 51.87003326416016 66.83040618896484 33.415283203125 66.83040618896484 C 14.96053314208984 66.83040618896484 -7.62939453125e-06 51.86990356445312 -7.62939453125e-06 33.41520309448242 C -7.62939453125e-06 14.96049118041992 14.96053314208984 0 33.415283203125 0 Z" stroke="none" fill="#565e62"/>
        </g>
        <path id="Path_1129" data-name="Path 1129" d="M0,0,24.068,25.629" transform="translate(52.987 58.715)" fill="none" stroke="#565e62" stroke-linecap="round" stroke-width="4.5"/>
        <g data-type="innerShadowGroup">
          <g transform="matrix(1, 0, 0, 1, -1331, -48.32)" filter="url(#Path_1127)">
            <path id="Path_1127-5" data-name="Path 1127" d="M0,21.2S26.059,19.446,24.523,7.882a7.563,7.563,0,0,0-4.588-5.871c-.05-.1-1.172,5.526-5.778,7.369,0-.05,4.151-3.438,4.47-8.217-1.04-.2-9.542-5.288-13.906,7.514A83.189,83.189,0,0,1,2.19,16.627,39.829,39.829,0,0,1,0,21.2Z" transform="matrix(-0.95, 0.31, -0.31, -0.95, 1380.45, 88.11)" fill="#6da581"/>
          </g>
          <g transform="matrix(1, 0, 0, 1, -1331, -48.32)" filter="url(#Path_1127-2)">
            <path id="Path_1127-6" data-name="Path 1127" d="M0,21.2S26.059,19.446,24.523,7.882a7.563,7.563,0,0,0-4.588-5.871c-.05-.1-1.172,5.526-5.778,7.369,0-.05,4.151-3.438,4.47-8.217-1.04-.2-9.542-5.288-13.906,7.514A83.189,83.189,0,0,1,2.19,16.627,39.829,39.829,0,0,1,0,21.2Z" transform="matrix(-0.95, 0.31, -0.31, -0.95, 1380.45, 88.11)" fill="#fff"/>
          </g>
        </g>
      </g>
      <g id="Search_Bar" data-name="Search Bar" transform="translate(149.302 7.027)">
        <g id="Rectangle_71" data-name="Rectangle 71" transform="translate(369.698 36.973)" fill="#fff" stroke="#707070" stroke-width="4.5" opacity="0.6">
          <rect width="759" height="93" rx="46.5" stroke="none"/>
          <rect x="2.25" y="2.25" width="754.5" height="88.5" rx="44.25" fill="none"/>
        </g>
        <g data-type="innerShadowGroup">
          <g transform="matrix(1, 0, 0, 1, -149.3, -7.03)" filter="url(#Search_The_Entire_Store_Here_:_)">
            <text id="Search_The_Entire_Store_Here_:_3" data-name="Search The Entire Store Here :)" transform="translate(897 108)" fill="#8c9295" font-size="41" font-family="Pacifico-Regular, Pacifico" opacity="0.23"><tspan x="-288.66" y="0">Search The Entire Store Here :)</tspan></text>
          </g>
          <g transform="matrix(1, 0, 0, 1, -149.3, -7.03)" filter="url(#Search_The_Entire_Store_Here_:_2)">
            <text id="Search_The_Entire_Store_Here_:_4" data-name="Search The Entire Store Here :)" transform="translate(897 108)" fill="#fff" font-size="41" font-family="Pacifico-Regular, Pacifico" opacity="0.23"><tspan x="-288.66" y="0">Search The Entire Store Here :)</tspan></text>
          </g>
        </g>
      </g>
    </g>
    <g id="Component_9_1" data-name="Component 9 – 1" transform="translate(1546 477)">
      <g data-type="innerShadowGroup">
        <g transform="matrix(1, 0, 0, 1, -1546, -477)" filter="url(#Rectangle_48)">
          <rect id="Rectangle_48-3" data-name="Rectangle 48" width="265" height="101" rx="17" transform="translate(1546 477)" fill="#fefba5"/>
        </g>
        <g transform="matrix(1, 0, 0, 1, -1546, -477)" filter="url(#Rectangle_48-2)">
          <rect id="Rectangle_48-4" data-name="Rectangle 48" width="265" height="101" rx="17" transform="translate(1546 477)" fill="#fff"/>
        </g>
      </g>
      <g data-type="innerShadowGroup">
        <text id="Buy_Now_2" data-name="Buy Now!" transform="translate(133 63)" fill="#2b6060" font-size="42" font-family="Pacifico-Regular, Pacifico"><tspan x="-91.014" y="0">Buy Now!</tspan></text>
        <g transform="matrix(1, 0, 0, 1, -1546, -477)" filter="url(#Buy_Now_)">
          <text id="Buy_Now_3" data-name="Buy Now!" transform="translate(1679 540)" fill="#fff" font-size="42" font-family="Pacifico-Regular, Pacifico"><tspan x="-91.014" y="0">Buy Now!</tspan></text>
        </g>
      </g>
    </g>
    <g id="Search_Icon-2" data-name="Search Icon" transform="translate(1731 221)">
      <g id="Path_1128-2" data-name="Path 1128" fill="none" stroke-linecap="round">
        <path d="M33.415,0A33.415,33.415,0,1,1,0,33.415,33.415,33.415,0,0,1,33.415,0Z" stroke="none"/>
        <path d="M 33.415283203125 4.500003814697266 C 29.50975799560547 4.500003814697266 25.72344589233398 5.263889312744141 22.16152191162109 6.770454406738281 C 18.71884536743164 8.226577758789062 15.62607192993164 10.31209182739258 12.96908187866211 12.96906661987305 C 10.31210708618164 15.62604141235352 8.226581573486328 18.71881484985352 6.770458221435547 22.16149139404297 C 5.263881683349609 25.72339248657227 4.499996185302734 29.50968933105469 4.499996185302734 33.41520309448242 C 4.499996185302734 37.32071685791016 5.263881683349609 41.10700225830078 6.770458221435547 44.66891479492188 C 8.226581573486328 48.11157989501953 10.31210708618164 51.20435333251953 12.96908187866211 53.861328125 C 15.62607192993164 56.51830291748047 18.71884536743164 58.60382843017578 22.16153335571289 60.05995178222656 C 25.72344589233398 61.5665168762207 29.50975799560547 62.33040237426758 33.415283203125 62.33040237426758 C 37.32080841064453 62.33040237426758 41.10712051391602 61.5665168762207 44.66903305053711 60.05995178222656 C 48.11172103881836 58.60382843017578 51.20449447631836 56.51830291748047 53.86148452758789 53.861328125 C 56.51845932006836 51.20435333251953 58.60398101806641 48.11157989501953 60.06010818481445 44.66891479492188 C 61.56668472290039 41.10700225830078 62.33057022094727 37.32071685791016 62.33057022094727 33.41520309448242 C 62.33057022094727 29.50968933105469 61.56668472290039 25.72339248657227 60.06010818481445 22.16149139404297 C 58.60398101806641 18.71881484985352 56.51845932006836 15.62604141235352 53.86148452758789 12.96906661987305 C 51.20449447631836 10.31209182739258 48.11172103881836 8.226577758789062 44.66904449462891 6.770454406738281 C 41.10712051391602 5.263889312744141 37.32080841064453 4.500003814697266 33.415283203125 4.500003814697266 M 33.415283203125 0 C 51.87003326416016 0 66.83057403564453 14.96049118041992 66.83057403564453 33.41520309448242 C 66.83057403564453 51.86990356445312 51.87003326416016 66.83040618896484 33.415283203125 66.83040618896484 C 14.96053314208984 66.83040618896484 -7.62939453125e-06 51.86990356445312 -7.62939453125e-06 33.41520309448242 C -7.62939453125e-06 14.96049118041992 14.96053314208984 0 33.415283203125 0 Z" stroke="none" fill="#565e62"/>
      </g>
      <path id="Path_1129-2" data-name="Path 1129" d="M0,0,24.068,25.629" transform="translate(52.987 58.715)" fill="none" stroke="#565e62" stroke-linecap="round" stroke-width="4.5"/>
      <g data-type="innerShadowGroup">
        <g transform="matrix(1, 0, 0, 1, -1731, -221)" filter="url(#Path_1127-3)">
          <path id="Path_1127-7" data-name="Path 1127" d="M0,21.2S26.059,19.446,24.523,7.882a7.563,7.563,0,0,0-4.588-5.871c-.05-.1-1.172,5.526-5.778,7.369,0-.05,4.151-3.438,4.47-8.217-1.04-.2-9.542-5.288-13.906,7.514A83.189,83.189,0,0,1,2.19,16.627,39.829,39.829,0,0,1,0,21.2Z" transform="matrix(-0.95, 0.31, -0.31, -0.95, 1780.45, 260.79)" fill="#6da581"/>
        </g>
        <g transform="matrix(1, 0, 0, 1, -1731, -221)" filter="url(#Path_1127-4)">
          <path id="Path_1127-8" data-name="Path 1127" d="M0,21.2S26.059,19.446,24.523,7.882a7.563,7.563,0,0,0-4.588-5.871c-.05-.1-1.172,5.526-5.778,7.369,0-.05,4.151-3.438,4.47-8.217-1.04-.2-9.542-5.288-13.906,7.514A83.189,83.189,0,0,1,2.19,16.627,39.829,39.829,0,0,1,0,21.2Z" transform="matrix(-0.95, 0.31, -0.31, -0.95, 1780.45, 260.79)" fill="#fff"/>
        </g>
      </g>
    </g>
    <g id="Cart" transform="translate(1577.111 209.478)">
      <path id="Path_1052-2" data-name="Path 1052" d="M86.413,75.169h-.042l-66.716-1.18a2.338,2.338,0,0,1-1.568-4.041,20.983,20.983,0,0,0,3.094-4.11,20.747,20.747,0,0,0,3.007-10.615c0-3.031.044-6.167.09-9.488.1-7.544.236-16.933-.09-30.282-.1-4.1-1.338-6.939-3.785-8.678C17.347,4.6,12.853,4.508,9.622,4.811A34.33,34.33,0,0,0,3.056,6.079,2.341,2.341,0,0,1,1.621,1.622,38.863,38.863,0,0,1,9.186.148,28.39,28.39,0,0,1,16.1.279,16.2,16.2,0,0,1,23.11,2.957a12.706,12.706,0,0,1,4.1,4.872,18.143,18.143,0,0,1,1.651,7.511c.327,13.439.2,22.877.09,30.461-.046,3.3-.089,6.424-.089,9.422a25.918,25.918,0,0,1-4.38,14.166l61.969,1.1a2.342,2.342,0,0,1-.04,4.683Z" transform="matrix(0.985, -0.174, 0.174, 0.985, 0, 19.169)" fill="#565e62"/>
      <path id="Ellipse_7-2" data-name="Ellipse 7" d="M9.852,4.636a5.216,5.216,0,1,0,5.216,5.216A5.222,5.222,0,0,0,9.852,4.636M9.852,0A9.852,9.852,0,1,1,0,9.852,9.852,9.852,0,0,1,9.852,0Z" transform="matrix(0.985, -0.174, 0.174, 0.985, 90.479, 74.216)" fill="#565e62"/>
      <path id="Ellipse_8-2" data-name="Ellipse 8" d="M9.852,3.477a6.375,6.375,0,1,0,6.375,6.375A6.382,6.382,0,0,0,9.852,3.477M9.852,0A9.852,9.852,0,1,1,0,9.852,9.852,9.852,0,0,1,9.852,0Z" transform="matrix(0.985, -0.174, 0.174, 0.985, 15.547, 87.429)" fill="#565e62" stroke="#565e62" stroke-linecap="round" stroke-width="1"/>
      <g data-type="innerShadowGroup">
        <g transform="matrix(1, 0, 0, 1, -1577.11, -209.48)" filter="url(#Path_1153)">
          <path id="Path_1153-3" data-name="Path 1153" d="M7.249,22.2h0a31.382,31.382,0,0,1-1.612-4.467c-.258-1.031-.5-2.089-.758-3.21A68.333,68.333,0,0,0,2.7,6.51,55.872,55.872,0,0,0,0,0H0L.031,0A97.281,97.281,0,0,1,12.926,2.667a58.617,58.617,0,0,1,10.4,3.892,21.8,21.8,0,0,1,7.9,6.1,9.509,9.509,0,0,1,1.818,7.62,8.952,8.952,0,0,1-.388,1.4c-3.2-.254-6.371-.429-9.437-.519a11.538,11.538,0,0,0-4.443-3.715,1.409,1.409,0,0,0,.141.153,22.568,22.568,0,0,1,2.806,3.525c-1.065-.022-2.157-.034-3.246-.034-3.051,0-5.946.094-8.6.279A5.924,5.924,0,0,0,7.25,22.2Z" transform="matrix(0.98, -0.17, 0.17, 0.98, 1601.31, 215.25)" fill="#6da581"/>
        </g>
        <g transform="matrix(1, 0, 0, 1, -1577.11, -209.48)" filter="url(#Path_1153-2)">
          <path id="Path_1153-4" data-name="Path 1153" d="M7.249,22.2h0a31.382,31.382,0,0,1-1.612-4.467c-.258-1.031-.5-2.089-.758-3.21A68.333,68.333,0,0,0,2.7,6.51,55.872,55.872,0,0,0,0,0H0L.031,0A97.281,97.281,0,0,1,12.926,2.667a58.617,58.617,0,0,1,10.4,3.892,21.8,21.8,0,0,1,7.9,6.1,9.509,9.509,0,0,1,1.818,7.62,8.952,8.952,0,0,1-.388,1.4c-3.2-.254-6.371-.429-9.437-.519a11.538,11.538,0,0,0-4.443-3.715,1.409,1.409,0,0,0,.141.153,22.568,22.568,0,0,1,2.806,3.525c-1.065-.022-2.157-.034-3.246-.034-3.051,0-5.946.094-8.6.279A5.924,5.924,0,0,0,7.25,22.2Z" transform="matrix(0.98, -0.17, 0.17, 0.98, 1601.31, 215.25)" fill="#fff"/>
        </g>
      </g>
      <g data-type="innerShadowGroup">
        <g transform="matrix(1, 0, 0, 1, -1577.11, -209.48)" filter="url(#Path_1152)">
          <path id="Path_1152-3" data-name="Path 1152" d="M17.178,15.3h0c-2.981-.565-6.234-1.07-9.67-1.5A15.127,15.127,0,0,1,9.73,11.236a.983.983,0,0,0,.1-.1,7.9,7.9,0,0,0-3.293,2.544c-2.094-.253-4.244-.476-6.391-.665-.036-.163-.063-.32-.083-.468C-.468,8.558,2.48,6.054,5.047,4.656,12.131.783,23.061.007,23.171,0a37.36,37.36,0,0,0-2.064,4.309,46.3,46.3,0,0,0-1.755,5.339c-.215.752-.418,1.462-.63,2.152a20.241,20.241,0,0,1-1.544,3.5Z" transform="matrix(0.98, -0.17, 0.17, 0.98, 1651.03, 216.07)" fill="#6da581"/>
        </g>
        <g transform="matrix(1, 0, 0, 1, -1577.11, -209.48)" filter="url(#Path_1152-2)">
          <path id="Path_1152-4" data-name="Path 1152" d="M17.178,15.3h0c-2.981-.565-6.234-1.07-9.67-1.5A15.127,15.127,0,0,1,9.73,11.236a.983.983,0,0,0,.1-.1,7.9,7.9,0,0,0-3.293,2.544c-2.094-.253-4.244-.476-6.391-.665-.036-.163-.063-.32-.083-.468C-.468,8.558,2.48,6.054,5.047,4.656,12.131.783,23.061.007,23.171,0a37.36,37.36,0,0,0-2.064,4.309,46.3,46.3,0,0,0-1.755,5.339c-.215.752-.418,1.462-.63,2.152a20.241,20.241,0,0,1-1.544,3.5Z" transform="matrix(0.98, -0.17, 0.17, 0.98, 1651.03, 216.07)" fill="#fff"/>
        </g>
      </g>
      <path id="Path_1053-2" data-name="Path 1053" d="M2.318,50.689a2.318,2.318,0,0,1-.03-4.636c.143,0,14.473-.2,29.306-.988,8.683-.462,15.83-1.034,21.243-1.7,7.779-.956,10.157-1.9,10.818-2.267l.12-.589c.687-3.389,2.117-10.441,3-17.077a75.864,75.864,0,0,0,.765-9.017,11.533,11.533,0,0,0-.464-4.274c-3.107-1.484-10.45-3.1-19.007-4.173A153.95,153.95,0,0,0,19.88,4.881c-9.1.632-14.8,2.72-14.9,5.451a2.318,2.318,0,0,1-4.634-.159C.425,7.953,1.6,4.863,6.741,2.748A42.59,42.59,0,0,1,19.559.255,158.733,158.733,0,0,1,48.648,1.367c4.64.581,8.988,1.319,12.573,2.135a35.75,35.75,0,0,1,8.452,2.757,2.319,2.319,0,0,1,.383.26c1.409,1.176,2.063,3.36,2.12,7.081a71.453,71.453,0,0,1-.712,9.754c-.9,6.994-2.417,14.479-3.146,18.076-.084.416-.158.78-.218,1.083-.417,2.081-2.7,3.023-4.646,3.612a53.579,53.579,0,0,1-7.689,1.531c-5.377.76-12.77,1.41-21.973,1.932-15.61.885-31.287,1.1-31.443,1.1Z" transform="matrix(0.985, -0.174, 0.174, 0.985, 25.87, 24.912)" fill="#565e62"/>
    </g>
    <g id="Component_11" data-name="Component 11" transform="translate(1471 211)">
      <path id="Path_1050-2" data-name="Path 1050" d="M864.718,163.993l-.809-.5a41.058,41.058,0,0,1-5.768-4.41,18.56,18.56,0,0,1-3.654-4.428,6.332,6.332,0,0,1-.632-5.63,5.635,5.635,0,0,1,1.992-2.6,4.865,4.865,0,0,1,2.81-.844,9.441,9.441,0,0,1,6.3,3.063,14.516,14.516,0,0,1,1.164-1.005,7.725,7.725,0,0,1,4.67-1.839,6.119,6.119,0,0,1,5.007,2.861l.157.215.085.252c.788,2.349.646,6.071-4.5,10.459a33.01,33.01,0,0,1-5.969,3.978Zm-6.06-14.984c-.544,0-1.163.156-1.633,1.312l0,.008c-.574,1.389.672,3.656,3.418,6.22a37.6,37.6,0,0,0,4.447,3.5,29.555,29.555,0,0,0,4.473-3.1c1.95-1.67,4.1-4.128,3.508-6.485-.991-1.238-1.8-1.238-2.075-1.238-.858,0-2.335.518-4.5,2.984-.067.077-.12.137-.169.189a1.747,1.747,0,0,1-1.319.608H863.76l-.477-.929C862.572,150.7,860.3,149.009,858.657,149.009Z" transform="translate(-819.984 -84.019)" fill="#6da581"/>
      <path id="Path_1047-2" data-name="Path 1047" d="M860.813,124.641c1.254,0,3.365.621,9.523,5.23,3.711,2.777,8.459,6.7,13.369,11.041,4.7,4.158,9.216,8.4,12.712,11.94,1.825,1.848,3.312,3.445,4.42,4.747a12.6,12.6,0,0,1,2.423,3.536,2.537,2.537,0,0,1-.6,2.936l-.058.049c-1.314,1.07-3.413,1.091-5.843,1.116-1.06.011-2.155.022-3.061.128a4.847,4.847,0,0,0-1.246.271c.02.846.11,2.839.221,5.3.269,5.951.719,15.911.843,24.3.069,4.66.03,8.349-.116,10.964a29.553,29.553,0,0,1-.384,3.675c-.141.747-.472,2.5-1.992,3.035-.469.166-1.255.445-11.894.661-6.086.124-14.131.195-22.071.195-7.439,0-14.374-.062-19.527-.176-9.2-.2-10.319-.5-10.8-.63a3.137,3.137,0,0,1-1.337-.8,2.13,2.13,0,0,1-.208-.216,4.7,4.7,0,0,1-.751-2.966c-.037-.923-.035-2.182.005-3.847.075-3.06.274-7.161.484-11.5.507-10.456,1.137-23.445.294-27.62a16.028,16.028,0,0,0-2.046-.3c-.476-.051-.969-.1-1.474-.176a9.624,9.624,0,0,0-1.342-.075c-.474,0-.962.018-1.435.035-.448.016-.871.032-1.265.032a6.842,6.842,0,0,1-1.311-.1,2.518,2.518,0,0,1-1.331-4.409q.055-.059.114-.115c4.406-4.121,14.457-13.185,24.085-21.266,5.183-4.35,9.511-7.8,12.862-10.259C857.749,125.215,859.628,124.641,860.813,124.641Zm37.239,36.3c-.836-1.024-2.242-2.606-4.6-5-3.352-3.4-7.7-7.494-12.251-11.528-4.729-4.194-9.332-8.015-12.962-10.761-5.257-3.977-7.009-4.612-7.406-4.712-.375.107-1.977.734-6.808,4.321-3.306,2.455-7.532,5.845-12.559,10.076-7.583,6.382-15.375,13.323-20.342,17.86a11.688,11.688,0,0,1,1.184.1c.429.061.884.11,1.324.157a13.859,13.859,0,0,1,3.186.584,4.165,4.165,0,0,1,1.7,1.083,3.43,3.43,0,0,1,.893,2.022c.436,2.151.581,5.975.456,12-.107,5.194-.4,11.305-.665,16.7-.193,3.972-.375,7.724-.46,10.636-.07,2.4-.056,3.73-.023,4.466,1.123.1,3.6.256,9,.373,5.11.111,11.978.173,19.338.173,7.668,0,15.5-.067,21.477-.184,6.316-.123,9.093-.269,10.3-.366a36.6,36.6,0,0,0,.361-4.6c.091-2.67.095-6.235.012-10.6-.151-7.956-.55-16.772-.813-22.607-.134-2.968-.223-4.929-.229-5.674a3.782,3.782,0,0,1,1.279-2.935,5.447,5.447,0,0,1,2.414-1.175,22.459,22.459,0,0,1,4.852-.389C897.178,160.954,897.63,160.949,898.052,160.937Z" transform="translate(-814.148 -124.641)" fill="#565e62"/>
      <path id="Path_1049-2" data-name="Path 1049" d="M874.737,219.957l-4.239-.581c.01-.072.993-7.294,1.492-14.912a97.291,97.291,0,0,0,.215-10.956c-.239-4.6-.987-5.526-1.044-5.59-.817-.747-3.256-1.547-6.7-1.547h-.035c-3.216.005-5.653.75-6.313,1.449l-.008.009c-.048.057-.77,1.006-1,5.687a104.907,104.907,0,0,0,.195,10.991c.461,7.621,1.371,14.818,1.38,14.89l-4.245.54c-.01-.074-.95-7.516-1.416-15.339a106.373,106.373,0,0,1-.176-11.51c.231-4.353.9-6.887,2.165-8.212a8.646,8.646,0,0,1,4.214-2.182,21.572,21.572,0,0,1,5.2-.6h.04a22.4,22.4,0,0,1,5.225.585,9.834,9.834,0,0,1,4.38,2.1c1.4,1.295,2.141,3.834,2.394,8.233a98.508,98.508,0,0,1-.191,11.537C875.767,212.4,874.748,219.883,874.737,219.957Z" transform="translate(-819.717 -132.928)" fill="#565e62"/>
    </g>
    <g id="Component_7" data-name="Component 7" transform="translate(1336 230)">
      <path id="Path_1072-2" data-name="Path 1072" d="M0,0H82.159" fill="none" stroke="#565e62" stroke-linecap="round" stroke-width="5"/>
      <line id="Line_17-3" data-name="Line 17" x2="82.159" transform="translate(0 32.719)" fill="none" stroke="#565e62" stroke-linecap="round" stroke-width="5"/>
      <line id="Line_17-4" data-name="Line 17" x2="82.159" transform="translate(0 65.438)" fill="none" stroke="#565e62" stroke-linecap="round" stroke-width="5"/>
    </g>
  </g>
</svg>
