<svg xmlns="http://www.w3.org/2000/svg" xmlns:xlink="http://www.w3.org/1999/xlink" width="375" height="667" viewBox="0 0 375 667">
  <defs>
    <clipPath id="clip-Confirmation">
      <rect width="375" height="667"/>
    </clipPath>
  </defs>
  <g id="Confirmation" clip-path="url(#clip-Confirmation)">
    <rect width="375" height="667" fill="#fff"/>
    <text id="GREEN_TEA" data-name="GREEN TEA" transform="translate(17 37)" font-size="20" font-family="SegoeUI-Semibold, Segoe UI" font-weight="600"><tspan x="0" y="0">GREEN TEA</tspan></text>
    <text id="Order_Received_" data-name="Order Received!" transform="translate(187.5 143.19)" font-size="35" font-family="SegoeUI-Bold, Segoe UI" font-weight="700"><tspan x="-130.9" y="0">Order Received!</tspan></text>
    <text id="Thank_You_for_you_Order_" data-name="Thank You for you Order!" transform="translate(187.5 197.19)" font-size="20" font-family="SegoeUI-Semibold, Segoe UI" font-weight="600"><tspan x="-114.512" y="0">Thank You for you Order!</tspan></text>
    <text id="Estimated_Delivery_by_22-24_March_:_" data-name="Estimated Delivery by
22-24 March :)" transform="translate(187.5 230.19)" font-size="20" font-family="SegoeUI-Semibold, Segoe UI" font-weight="600"><tspan x="-98.491" y="0">Estimated Delivery by</tspan><tspan x="-66.265" y="27">22-24 March :)</tspan></text>
    <g id="Icon_-_Cart" data-name="Icon - Cart">
      <rect id="Rectangle_12" data-name="Rectangle 12" width="35" height="30" transform="translate(268 12)" fill="#fff"/>
      <g id="Icon_-_Cart-2" data-name="Icon - Cart" transform="translate(271.268 15.362)">
        <g id="Icon-Cart" transform="translate(0 0)">
          <path id="Fill-110" d="M-44-448.261H-61.769a.682.682,0,0,1-.645-.333.653.653,0,0,1-.059-.722l1.525-3.666-1.525-13.663H-67.4V-468.2h5.631a.81.81,0,0,1,.821.667l1.642,14.5a1.031,1.031,0,0,1-.059.389l-1.173,2.777h16.119c4.135,0,.422,1.611.422,1.611h0" transform="translate(67.798 468.599)"/>
          <path id="Fill-110_-_Outline" data-name="Fill-110 - Outline" d="M-53.6-457.463H-71.371a1.081,1.081,0,0,1-.979-.513,1.05,1.05,0,0,1-.077-1.128l1.47-3.537-1.474-13.206H-77.4V-478.2h6.029a1.2,1.2,0,0,1,1.214,1.006l1.647,14.533v.023a1.43,1.43,0,0,1-.081.522l-.948,2.245H-54.02c1.552,0,2.23.216,2.339.746.136.657-.882,1.249-1.76,1.63l-.158-.366ZM-76.6-476.645h4.885l1.576,14.12-1.565,3.761a.281.281,0,0,0,0,.32l.023.029.017.033a.321.321,0,0,0,.294.121h17.689a4.939,4.939,0,0,0,1.136-.678,5.255,5.255,0,0,0-1.474-.134H-70.74l1.407-3.332a.586.586,0,0,0,.027-.211l-1.64-14.473a.411.411,0,0,0-.426-.313H-76.6Z" transform="translate(77.4 478.2)"/>
          <path id="Fill-111" d="M-55.4-448.829l-.352-1.589,18.712-3.884v-6.65H-56.4V-462.6h20.178a.8.8,0,0,1,.821.824v8.122a.765.765,0,0,1-.645.765L-55.4-448.829" transform="translate(63.25 465.454)"/>
          <path id="Fill-111_-_Outline" data-name="Fill-111 - Outline" d="M-65.308-457.959l-.525-2.369,18.79-3.9v-5.926H-66.4V-472.6h20.576a1.208,1.208,0,0,1,1.219,1.223v8.122a1.169,1.169,0,0,1-.978,1.159Zm.427-1.751.179.809,18.972-3.98a.372.372,0,0,0,.329-.375v-8.122a.406.406,0,0,0-.424-.425H-65.6v.85h19.357v7.374Z" transform="translate(72.852 475.055)"/>
          <path id="Fill-112" d="M-28.374-428.527a3.26,3.26,0,0,1-3.226-3.237A3.26,3.26,0,0,1-28.374-435a3.26,3.26,0,0,1,3.226,3.237,3.26,3.26,0,0,1-3.226,3.237Zm0-4.885a1.662,1.662,0,0,0-.321.032,1.638,1.638,0,0,0-1.321,1.616,1.606,1.606,0,0,0,1.642,1.648,1.606,1.606,0,0,0,1.642-1.648,1.642,1.642,0,0,0-1.642-1.648Z" transform="translate(52.957 453.67)"/>
          <path id="Fill-112_-_Outline" data-name="Fill-112 - Outline" d="M-37.976-437.729a3.678,3.678,0,0,1-3.624-3.636A3.678,3.678,0,0,1-37.976-445a3.678,3.678,0,0,1,3.624,3.636A3.678,3.678,0,0,1-37.976-437.729Zm0-6.474a2.871,2.871,0,0,0-2.828,2.838,2.871,2.871,0,0,0,2.828,2.838,2.871,2.871,0,0,0,2.828-2.838A2.871,2.871,0,0,0-37.976-444.2Zm0,4.885a2,2,0,0,1-2.04-2.047,2.041,2.041,0,0,1,1.644-2.008,2.063,2.063,0,0,1,.4-.039,2.046,2.046,0,0,1,2.04,2.047A2,2,0,0,1-37.976-439.318Zm0-3.3a1.27,1.27,0,0,0-.246.025,1.243,1.243,0,0,0-1,1.224,1.206,1.206,0,0,0,1.245,1.249,1.206,1.206,0,0,0,1.245-1.249A1.248,1.248,0,0,0-37.976-442.614Z" transform="translate(62.559 463.271)"/>
          <path id="Fill-113" d="M-61.374-428.527a3.26,3.26,0,0,1-3.226-3.237A3.26,3.26,0,0,1-61.374-435a3.26,3.26,0,0,1,3.226,3.237,3.26,3.26,0,0,1-3.226,3.237Zm0-4.885a1.642,1.642,0,0,0-1.642,1.648,1.606,1.606,0,0,0,1.642,1.648,1.606,1.606,0,0,0,1.642-1.648,1.642,1.642,0,0,0-1.642-1.648Z" transform="translate(66.64 453.749)"/>
          <path id="Fill-113_-_Outline" data-name="Fill-113 - Outline" d="M-70.976-437.729a3.678,3.678,0,0,1-3.624-3.636A3.678,3.678,0,0,1-70.976-445a3.678,3.678,0,0,1,3.624,3.636A3.678,3.678,0,0,1-70.976-437.729Zm0-6.474a2.871,2.871,0,0,0-2.828,2.838,2.871,2.871,0,0,0,2.828,2.838,2.871,2.871,0,0,0,2.828-2.838A2.871,2.871,0,0,0-70.976-444.2Zm0,4.885a2,2,0,0,1-2.04-2.047,2.046,2.046,0,0,1,2.04-2.047,2.046,2.046,0,0,1,2.04,2.047A2,2,0,0,1-70.976-439.318Zm0-3.3a1.248,1.248,0,0,0-1.245,1.249,1.206,1.206,0,0,0,1.245,1.249,1.206,1.206,0,0,0,1.245-1.249A1.248,1.248,0,0,0-70.976-442.614Z" transform="translate(76.242 463.35)"/>
        </g>
      </g>
    </g>
    <g id="Icon_-_Account" data-name="Icon - Account">
      <rect id="Rectangle_14" data-name="Rectangle 14" width="35" height="30" transform="translate(224 13)" fill="#fff"/>
      <g id="Group_19" data-name="Group 19" transform="translate(228.036 14.52)">
        <path id="Icon_-_Account-2" data-name="Icon - Account" d="M27.75,14.42A13.375,13.375,0,1,0,5.095,24.062a.817.817,0,0,0,.211.192,13.265,13.265,0,0,0,18.14,0,.817.817,0,0,0,.211-.192A13.393,13.393,0,0,0,27.75,14.42ZM14.375,2.677a11.733,11.733,0,0,1,9.173,19.012,7.981,7.981,0,0,0-5.6-5.028,6.1,6.1,0,1,0-7.137,0,7.981,7.981,0,0,0-5.6,5.028A11.733,11.733,0,0,1,14.375,2.677ZM9.946,11.714a4.429,4.429,0,1,1,4.429,4.436A4.437,4.437,0,0,1,9.946,11.714ZM6.607,23.178c.251-3.075,3.5-5.351,7.768-5.351s7.517,2.276,7.768,5.351a11.6,11.6,0,0,1-15.536,0Z" transform="translate(-0.68 -1)"/>
        <path id="Icon_-_Account_-_Outline" data-name="Icon - Account - Outline" d="M13.695,0a13.733,13.733,0,0,1,9.518,23.6,1.125,1.125,0,0,1-.251.23,13.584,13.584,0,0,1-18.535,0,1.125,1.125,0,0,1-.251-.23,13.76,13.76,0,0,1-3.047-4.405A13.738,13.738,0,0,1,13.695,0Zm0,26.839a12.978,12.978,0,0,0,8.853-3.5l.021-.019.024-.015a.5.5,0,0,0,.13-.118l.014-.019.017-.016a13.056,13.056,0,1,0-18.117,0l.017.016.014.019a.5.5,0,0,0,.13.118l.024.015.021.019A12.978,12.978,0,0,0,13.695,26.839Zm0-25.162a12.051,12.051,0,0,1,9.423,19.532l-.376.477-.18-.581a7.638,7.638,0,0,0-5.391-4.815l-.62-.186.524-.38a5.781,5.781,0,1,0-6.762,0l.524.38-.62.186a7.638,7.638,0,0,0-5.391,4.815l-.18.581-.376-.477a12.1,12.1,0,0,1-1.908-3.447A12.059,12.059,0,0,1,13.695,1.677Zm9.273,18.667a11.293,11.293,0,0,0,2.111-6.6,11.384,11.384,0,1,0-22.767,0,11.293,11.293,0,0,0,2.111,6.6,6.893,6.893,0,0,1,.62-1.167A7.643,7.643,0,0,1,6.33,17.694a9.6,9.6,0,0,1,3.136-1.831A6.514,6.514,0,0,1,8,14a6.42,6.42,0,1,1,11.384,0,6.514,6.514,0,0,1-1.463,1.859,9.6,9.6,0,0,1,3.136,1.831,7.642,7.642,0,0,1,1.288,1.483A6.893,6.893,0,0,1,22.967,20.344ZM13.695,6.278a4.756,4.756,0,1,1-4.749,4.756A4.758,4.758,0,0,1,13.695,6.278Zm0,8.871a4.115,4.115,0,1,0-4.109-4.115A4.117,4.117,0,0,0,13.695,15.149Zm0,1.677a11.091,11.091,0,0,1,3.066.416,8.525,8.525,0,0,1,2.5,1.163,5.516,5.516,0,0,1,2.515,4.067l.013.159-.119.106a12.061,12.061,0,0,1-3.637,2.244,11.9,11.9,0,0,1-8.686,0,12.061,12.061,0,0,1-3.637-2.244L5.6,22.632l.013-.159a5.516,5.516,0,0,1,2.515-4.067,8.525,8.525,0,0,1,2.5-1.163A11.091,11.091,0,0,1,13.695,16.827Zm7.434,5.54A4.928,4.928,0,0,0,18.9,18.934a9.218,9.218,0,0,0-5.208-1.466,9.218,9.218,0,0,0-5.208,1.466,4.928,4.928,0,0,0-2.225,3.433,11.282,11.282,0,0,0,14.867,0Z" transform="translate(0 0)"/>
        <path id="Icon_-_Account_-_Outline-2" data-name="Icon - Account - Outline" d="M9.562-4a13.6,13.6,0,0,1,9.41,23.383.913.913,0,0,1-.239.215,13.446,13.446,0,0,1-18.367-.02.879.879,0,0,1-.232-.215A13.485,13.485,0,0,1-4,9.607,13.6,13.6,0,0,1,9.562-4Zm0,26.839A13.111,13.111,0,0,0,18.5,19.3a.759.759,0,0,0,.189-.169A13.19,13.19,0,1,0,.411,19.114a.722.722,0,0,0,.182.169A13.148,13.148,0,0,0,9.562,22.839Zm0-25.162A11.923,11.923,0,0,1,21.451,9.607a11.817,11.817,0,0,1-2.571,7.386l-.22.278-.1-.339a7.768,7.768,0,0,0-5.48-4.9l-.362-.109.306-.222a5.914,5.914,0,1,0-6.918,0l.306.222-.362.109a7.768,7.768,0,0,0-5.48,4.9l-.1.339-.22-.278A11.817,11.817,0,0,1-2.328,9.607,11.923,11.923,0,0,1,9.562-2.323ZM18.8,16.485a11.432,11.432,0,0,0,2.28-6.879,11.517,11.517,0,1,0-23.034,0,11.432,11.432,0,0,0,2.28,6.879A8.133,8.133,0,0,1,5.6,11.779a6.287,6.287,0,1,1,7.93,0A8.133,8.133,0,0,1,18.8,16.485ZM9.562,2.278A4.623,4.623,0,1,1,4.946,6.9,4.624,4.624,0,0,1,9.562,2.278Zm0,8.871A4.248,4.248,0,1,0,5.319,6.9,4.25,4.25,0,0,0,9.562,11.149Zm0,1.677c4.347,0,7.692,2.323,7.954,5.523l.008.093-.069.062a11.79,11.79,0,0,1-15.784,0L1.6,18.443l.008-.093C1.869,15.15,5.214,12.827,9.562,12.827Zm7.574,5.461c-.3-2.953-3.468-5.087-7.574-5.087s-7.271,2.134-7.574,5.087a11.416,11.416,0,0,0,15.147,0Z" transform="translate(4.133 4)"/>
      </g>
    </g>
    <g id="Icon_-_Home" data-name="Icon - Home">
      <rect id="Rectangle_16" data-name="Rectangle 16" width="35" height="30" transform="translate(176 13)" fill="#fff"/>
      <g id="Home" transform="translate(178 14.012)">
        <path id="Path_1025" data-name="Path 1025" d="M32.279,18.575,18.072,4.321a1.09,1.09,0,0,0-1.545,0L2.32,18.575a1.1,1.1,0,0,0,.773,1.872H6.371v8.772a1.1,1.1,0,0,0,1.093,1.1H27.135a1.094,1.094,0,0,0,1.093-1.1V20.447h3.279a1.1,1.1,0,0,0,.773-1.872ZM15.114,28.122V22.64a2.186,2.186,0,1,1,4.371,0v5.482Zm12.021-9.868a1.094,1.094,0,0,0-1.093,1.1v8.772H21.671V22.64a4.371,4.371,0,1,0-8.743,0v5.482H8.557V19.35a1.1,1.1,0,0,0-1.093-1.1H5.731L17.3,6.647,28.868,18.254Z" transform="translate(-1.84 -3.84)"/>
        <path id="Path_1025_-_Outline" data-name="Path 1025 - Outline" d="M26.794,30.136H7.123A1.256,1.256,0,0,1,5.87,28.879V20.268H2.752a1.257,1.257,0,0,1-.886-2.145L16.073,3.868a1.249,1.249,0,0,1,1.771,0L32.051,18.122a1.257,1.257,0,0,1-.886,2.145H28.047v8.611A1.256,1.256,0,0,1,26.794,30.136ZM16.958,3.821a.926.926,0,0,0-.66.274L2.092,18.349a.936.936,0,0,0,.66,1.6H6.19v8.932a.936.936,0,0,0,.933.936H26.794a.936.936,0,0,0,.933-.936V19.947h3.438a.936.936,0,0,0,.66-1.6L17.618,4.095A.925.925,0,0,0,16.958,3.821Zm8.9,24.122H21.17V22.3a4.212,4.212,0,1,0-8.423,0v5.643H8.056V19.011a.936.936,0,0,0-.933-.936H5L16.958,6.081,28.913,18.075H26.794a.936.936,0,0,0-.933.936Zm-4.371-.321h4.052V19.011a1.256,1.256,0,0,1,1.253-1.257h1.347L16.958,6.534,5.776,17.754H7.123a1.256,1.256,0,0,1,1.253,1.257v8.611h4.052V22.3a4.531,4.531,0,1,1,9.062,0Zm-2.186.321H14.613V22.3a2.345,2.345,0,1,1,4.691,0Zm-4.371-.321h4.052V22.3a2.026,2.026,0,1,0-4.052,0Z" transform="translate(-1.498 -3.5)"/>
      </g>
    </g>
    <g id="Icon_-_Menu" data-name="Icon - Menu">
      <rect id="Rectangle_13" data-name="Rectangle 13" width="35" height="30" transform="translate(318 13)" fill="#fff"/>
      <g id="Group_18" data-name="Group 18" transform="translate(322 20)">
        <path id="Line_1" data-name="Line 1" d="M28,1.5H0A1.5,1.5,0,0,1-1.5,0,1.5,1.5,0,0,1,0-1.5H28A1.5,1.5,0,0,1,29.5,0,1.5,1.5,0,0,1,28,1.5Z" transform="translate(0 0)"/>
        <path id="Line_2" data-name="Line 2" d="M28,1.5H0A1.5,1.5,0,0,1-1.5,0,1.5,1.5,0,0,1,0-1.5H28A1.5,1.5,0,0,1,29.5,0,1.5,1.5,0,0,1,28,1.5Z" transform="translate(0 8)"/>
        <path id="Line_3" data-name="Line 3" d="M28,1.5H0A1.5,1.5,0,0,1-1.5,0,1.5,1.5,0,0,1,0-1.5H28A1.5,1.5,0,0,1,29.5,0,1.5,1.5,0,0,1,28,1.5Z" transform="translate(0 16)"/>
      </g>
    </g>
    <g id="Icon_-_Facebook" data-name="Icon - Facebook" transform="translate(97.027 409.81)">
      <path id="Path_1023" data-name="Path 1023" d="M23.51-2A25.51,25.51,0,1,1-2,23.51,25.539,25.539,0,0,1,23.51-2Zm0,45.376A19.866,19.866,0,1,0,3.644,23.51,19.889,19.889,0,0,0,23.51,43.376Z" transform="translate(2 2)"/>
      <path id="Path_1024" data-name="Path 1024" d="M48.178,22.466c0-.033.01-.063.013-.1C48.188,22.4,48.181,22.433,48.178,22.466ZM3.046,22.36c.005.043.013.086.018.129C3.059,22.448,3.049,22.405,3.046,22.36Zm25.643,3.721H34.56l.923-5.964H28.689v-3.26c0-2.478.809-4.674,3.128-4.674h3.723V6.977a31.652,31.652,0,0,0-4.654-.282c-5.46,0-8.662,2.884-8.662,9.453v3.968H16.611v5.964h5.614V42.474a22.488,22.488,0,0,0,3.393.282,22.831,22.831,0,0,0,3.07-.232Z" transform="translate(-0.108 5.442)"/>
    </g>
    <path id="Icon_-_Insta" data-name="Icon - Insta" d="M15.6,3A12.619,12.619,0,0,0,3,15.6V35.772a12.619,12.619,0,0,0,12.6,12.6H35.772a12.619,12.619,0,0,0,12.6-12.6V15.6A12.619,12.619,0,0,0,35.772,3Zm0,5.042H35.772A7.572,7.572,0,0,1,43.335,15.6V35.772a7.572,7.572,0,0,1-7.563,7.563H15.6a7.572,7.572,0,0,1-7.563-7.563V15.6A7.572,7.572,0,0,1,15.6,8.042Zm22.688,2.521a2.521,2.521,0,1,0,2.521,2.521A2.521,2.521,0,0,0,38.293,10.563Zm-12.6,2.521a12.6,12.6,0,1,0,12.6,12.6A12.619,12.619,0,0,0,25.688,13.084Zm0,5.042a7.563,7.563,0,1,1-7.563,7.563A7.572,7.572,0,0,1,25.688,18.125Z" transform="translate(159.76 410.196)"/>
    <g id="Icon_-_Twitter" data-name="Icon - Twitter" transform="translate(221.721 412.7)">
      <path id="icons8-twitter" d="M37.611,5.469A11.93,11.93,0,0,0,25.693,17.387a11.7,11.7,0,0,0,.137,1.168A29.551,29.551,0,0,1,5.634,7.873a1.105,1.105,0,0,0-.949-.416,1.094,1.094,0,0,0-.872.554A11.67,11.67,0,0,0,4.6,21.028c-.283-.125-.592-.193-.859-.343a1.1,1.1,0,0,0-1.614.962v.137A11.858,11.858,0,0,0,7.317,31.5a.847.847,0,0,1-.1,0,1.1,1.1,0,0,0-1.236,1.408,11.943,11.943,0,0,0,8.243,7.8A20.536,20.536,0,0,1,3.676,43.629a20.638,20.638,0,0,1-2.439-.137,1.1,1.1,0,0,0-.721,2.027A31.7,31.7,0,0,0,17.69,50.567a30.87,30.87,0,0,0,23.7-10.407,33.077,33.077,0,0,0,8.209-21.5c0-.313-.026-.618-.034-.927a23.022,23.022,0,0,0,5.221-5.461,1.1,1.1,0,0,0-1.374-1.614c-.567.253-1.228.279-1.82.481A11.666,11.666,0,0,0,53.445,7.7,1.1,1.1,0,0,0,51.831,6.43,20.6,20.6,0,0,1,45.683,8.8,11.831,11.831,0,0,0,37.611,5.469Zm0,2.2a9.73,9.73,0,0,1,7.11,3.091,1.106,1.106,0,0,0,1.03.309,22.619,22.619,0,0,0,4.122-1.236,9.786,9.786,0,0,1-2.816,2.576,1.1,1.1,0,0,0,.721,2.061,22.711,22.711,0,0,0,3.126-.859,20.878,20.878,0,0,1-3.091,2.748,1.1,1.1,0,0,0-.446.962c.017.447.034.889.034,1.34a30.922,30.922,0,0,1-7.659,20.024A28.555,28.555,0,0,1,17.69,48.368,29.394,29.394,0,0,1,5.428,45.689a22.752,22.752,0,0,0,12.365-4.706,1.1,1.1,0,0,0-.653-1.958,9.627,9.627,0,0,1-8.278-5.152h.172a11.989,11.989,0,0,0,3.16-.412,1.1,1.1,0,0,0-.069-2.13A9.652,9.652,0,0,1,4.6,23.4a11.67,11.67,0,0,0,3.469.721,1.1,1.1,0,0,0,.653-2.026A9.732,9.732,0,0,1,4.4,13.987a9.55,9.55,0,0,1,.756-3.5A31.727,31.727,0,0,0,27.032,20.959a1.113,1.113,0,0,0,.9-.386,1.1,1.1,0,0,0,.232-.953,9.814,9.814,0,0,1-.275-2.233A9.7,9.7,0,0,1,37.611,7.667Z" transform="translate(1.277 -5.469)"/>
      <path id="icons8-twitter_-_Outline" data-name="icons8-twitter - Outline" d="M35.6,3.219a12.061,12.061,0,0,1,4.784.995A13.444,13.444,0,0,1,43.8,6.349,18.574,18.574,0,0,0,48.8,4.33a2.308,2.308,0,0,1,2.608.163l.007.006A2.321,2.321,0,0,1,52.185,7a10.386,10.386,0,0,1-.46,1.184,2.308,2.308,0,0,1,1.611,3.58,23.344,23.344,0,0,1-4.844,5.206c0,.1.007.211.007.322A31.535,31.535,0,0,1,47.969,23,33.635,33.635,0,0,1,46.4,28.666a33.947,33.947,0,0,1-2.6,5.418,32.926,32.926,0,0,1-3.6,4.954,30.641,30.641,0,0,1-10.168,7.6A32.665,32.665,0,0,1,16.2,49.586a32.14,32.14,0,0,1-17.374-5.1,2.311,2.311,0,0,1-.954-2.73A2.3,2.3,0,0,1,.049,40.218a2.322,2.322,0,0,1,.294.019,18.823,18.823,0,0,0,2.222.124,18.756,18.756,0,0,0,7.265-1.474A13.026,13.026,0,0,1,7,36.866a12.658,12.658,0,0,1-3.373-5.32l-.005-.017a2.33,2.33,0,0,1,.273-1.94,13.139,13.139,0,0,1-2.522-3.236A12.435,12.435,0,0,1-.176,20.335v-.148A2.325,2.325,0,0,1,.949,18.229q.094-.056.192-.1a12.374,12.374,0,0,1-1.25-5.38A12.745,12.745,0,0,1,1.627,6.313,2.3,2.3,0,0,1,3.46,5.157c.055,0,.11-.006.164-.006a2.3,2.3,0,0,1,1.809.869,27.322,27.322,0,0,0,17.328,9.762A12.852,12.852,0,0,1,35.6,3.219Zm7.589,7.944a2.323,2.323,0,0,1-1.557-.7l-.014-.015a8.2,8.2,0,0,0-14.009,7.5v0a2.318,2.318,0,0,1-.483,2l-.006.008a2.313,2.313,0,0,1-1.764.812l-.116,0a31.4,31.4,0,0,1-12.3-3.181,32.575,32.575,0,0,1-5.289-3.254,33.349,33.349,0,0,1-3.061-2.618A6.172,6.172,0,0,0,4.5,12.746,8.244,8.244,0,0,0,8.155,19.6a2.306,2.306,0,0,1-1.246,4.246c-.039,0-.079,0-.118,0a10.312,10.312,0,0,1-1.521-.168,8,8,0,0,0,5.764,4.742l.02,0a2.306,2.306,0,0,1,.151,4.466l-.022.006a12.184,12.184,0,0,1-1.318.284,7.949,7.949,0,0,0,5.827,2.7H15.7a2.306,2.306,0,0,1,1.371,4.107L17.068,40a22.8,22.8,0,0,1-8.027,4.027,27.225,27.225,0,0,0,7.164.953,26.5,26.5,0,0,0,20.536-9.009,29.056,29.056,0,0,0,7.146-18.673c0-.41-.015-.814-.032-1.241a2.292,2.292,0,0,1,.619-1.713,2.307,2.307,0,0,1-1.29-3.175Zm3.119.616.179-.239q-.2.155-.4.3Q46.19,11.812,46.3,11.779ZM9.838,30.672a10.254,10.254,0,0,1-3.174-1.5l-.653,1.692H7.78A10.682,10.682,0,0,0,9.838,30.672ZM2.565,42.833c-.634,0-1.237-.024-1.825-.073A29.966,29.966,0,0,0,3.814,44.4L4.1,42.778Q3.336,42.833,2.565,42.833Z" transform="translate(2.256 -3.219)"/>
    </g>
    <text id="Share_you_Amazing_Order" data-name="Share you Amazing Order" transform="translate(188.027 488.078)" font-size="15" font-family="SegoeUI-Semibold, Segoe UI" font-weight="600"><tspan x="-87.444" y="0">Share you Amazing Order</tspan></text>
    <text id="Get_Special_Discount_" data-name="Get Special Discount!" transform="translate(188 511)" font-size="18" font-family="SegoeUI-Semibold, Segoe UI" font-weight="600"><tspan x="-86.774" y="0">Get Special Discount!</tspan></text>
    <g id="Arrow" transform="translate(36.579 313.756)">
      <rect id="Rectangle_11" data-name="Rectangle 11" width="72.619" height="10.893" transform="translate(0 13.798)"/>
      <path id="Rectangle_11_-_Outline" data-name="Rectangle 11 - Outline" d="M1,1V9.893H71.619V1H1M0,0H72.619V10.893H0Z" transform="translate(0 13.798)"/>
      <path id="Path_6" data-name="Path 6" d="M19.244,0,38.488,33.394H0Z" transform="translate(105.842) rotate(90)"/>
      <path id="Path_6_-_Outline" data-name="Path 6 - Outline" d="M19.244,2,1.73,32.394H36.758L19.244,2m0-2L38.488,33.394H0Z" transform="translate(105.842) rotate(90)"/>
    </g>
  </g>
</svg>
