<svg xmlns="http://www.w3.org/2000/svg" xmlns:xlink="http://www.w3.org/1999/xlink" width="375" height="665" viewBox="0 0 375 665">
  <defs>
    <filter id="Subtraction_1" x="159.483" y="180" width="57.761" height="44.574" filterUnits="userSpaceOnUse">
      <feOffset dy="3" input="SourceAlpha"/>
      <feGaussianBlur stdDeviation="3" result="blur"/>
      <feFlood flood-opacity="0.161"/>
      <feComposite operator="in" in2="blur"/>
      <feComposite in="SourceGraphic"/>
    </filter>
    <filter id="Subtraction_1-2" x="159.483" y="180" width="57.761" height="44.574" filterUnits="userSpaceOnUse">
      <feOffset dy="3" input="SourceAlpha"/>
      <feGaussianBlur stdDeviation="3" result="blur-2"/>
      <feFlood flood-opacity="0.161" result="color"/>
      <feComposite operator="out" in="SourceGraphic" in2="blur-2"/>
      <feComposite operator="in" in="color"/>
      <feComposite operator="in" in2="SourceGraphic"/>
    </filter>
    <filter id="Subtraction_2" x="200.754" y="190.524" width="45.734" height="36.318" filterUnits="userSpaceOnUse">
      <feOffset dy="3" input="SourceAlpha"/>
      <feGaussianBlur stdDeviation="3" result="blur-3"/>
      <feFlood flood-opacity="0.161"/>
      <feComposite operator="in" in2="blur-3"/>
      <feComposite in="SourceGraphic"/>
    </filter>
    <filter id="Subtraction_2-2" x="200.754" y="190.524" width="45.734" height="36.318" filterUnits="userSpaceOnUse">
      <feOffset dy="3" input="SourceAlpha"/>
      <feGaussianBlur stdDeviation="3" result="blur-4"/>
      <feFlood flood-opacity="0.161" result="color-2"/>
      <feComposite operator="out" in="SourceGraphic" in2="blur-4"/>
      <feComposite operator="in" in="color-2"/>
      <feComposite operator="in" in2="SourceGraphic"/>
    </filter>
    <filter id="Subtraction_3" x="45.446" y="227.11" width="42.168" height="40.883" filterUnits="userSpaceOnUse">
      <feOffset dy="3" input="SourceAlpha"/>
      <feGaussianBlur stdDeviation="3" result="blur-5"/>
      <feFlood flood-opacity="0.161"/>
      <feComposite operator="in" in2="blur-5"/>
      <feComposite in="SourceGraphic"/>
    </filter>
    <filter id="Subtraction_3-2" x="45.446" y="227.11" width="42.168" height="40.883" filterUnits="userSpaceOnUse">
      <feOffset dy="3" input="SourceAlpha"/>
      <feGaussianBlur stdDeviation="3" result="blur-6"/>
      <feFlood flood-opacity="0.161" result="color-3"/>
      <feComposite operator="out" in="SourceGraphic" in2="blur-6"/>
      <feComposite operator="in" in="color-3"/>
      <feComposite operator="in" in2="SourceGraphic"/>
    </filter>
    <filter id="Subtraction_4" x="73.447" y="209.102" width="36.595" height="35.947" filterUnits="userSpaceOnUse">
      <feOffset dy="3" input="SourceAlpha"/>
      <feGaussianBlur stdDeviation="3" result="blur-7"/>
      <feFlood flood-opacity="0.161"/>
      <feComposite operator="in" in2="blur-7"/>
      <feComposite in="SourceGraphic"/>
    </filter>
    <filter id="Subtraction_4-2" x="73.447" y="209.102" width="36.595" height="35.947" filterUnits="userSpaceOnUse">
      <feOffset dy="3" input="SourceAlpha"/>
      <feGaussianBlur stdDeviation="3" result="blur-8"/>
      <feFlood flood-opacity="0.161" result="color-4"/>
      <feComposite operator="out" in="SourceGraphic" in2="blur-8"/>
      <feComposite operator="in" in="color-4"/>
      <feComposite operator="in" in2="SourceGraphic"/>
    </filter>
    <filter id="Subtraction_3-3" x="295.982" y="226.598" width="42.169" height="40.884" filterUnits="userSpaceOnUse">
      <feOffset dy="3" input="SourceAlpha"/>
      <feGaussianBlur stdDeviation="3" result="blur-9"/>
      <feFlood flood-opacity="0.161"/>
      <feComposite operator="in" in2="blur-9"/>
      <feComposite in="SourceGraphic"/>
    </filter>
    <filter id="Subtraction_3-4" x="295.982" y="226.598" width="42.169" height="40.884" filterUnits="userSpaceOnUse">
      <feOffset dy="3" input="SourceAlpha"/>
      <feGaussianBlur stdDeviation="3" result="blur-10"/>
      <feFlood flood-opacity="0.161" result="color-5"/>
      <feComposite operator="out" in="SourceGraphic" in2="blur-10"/>
      <feComposite operator="in" in="color-5"/>
      <feComposite operator="in" in2="SourceGraphic"/>
    </filter>
    <filter id="Subtraction_4-3" x="273.553" y="208.589" width="36.595" height="35.947" filterUnits="userSpaceOnUse">
      <feOffset dy="3" input="SourceAlpha"/>
      <feGaussianBlur stdDeviation="3" result="blur-11"/>
      <feFlood flood-opacity="0.161"/>
      <feComposite operator="in" in2="blur-11"/>
      <feComposite in="SourceGraphic"/>
    </filter>
    <filter id="Subtraction_4-4" x="273.553" y="208.589" width="36.595" height="35.947" filterUnits="userSpaceOnUse">
      <feOffset dy="3" input="SourceAlpha"/>
      <feGaussianBlur stdDeviation="3" result="blur-12"/>
      <feFlood flood-opacity="0.161" result="color-6"/>
      <feComposite operator="out" in="SourceGraphic" in2="blur-12"/>
      <feComposite operator="in" in="color-6"/>
      <feComposite operator="in" in2="SourceGraphic"/>
    </filter>
    <clipPath id="clip-Coupon-Code_Popoup">
      <rect width="375" height="665"/>
    </clipPath>
  </defs>
  <g id="Coupon-Code_Popoup" data-name="Coupon-Code Popoup" clip-path="url(#clip-Coupon-Code_Popoup)">
    <rect width="375" height="665" fill="rgba(0,0,0,0.43)"/>
    <path id="Path_1082" data-name="Path 1082" d="M15,0H325a15,15,0,0,1,15,15V325a15,15,0,0,1-15,15H15A15,15,0,0,1,0,325V15A15,15,0,0,1,15,0Z" transform="translate(18 163)" fill="#fff"/>
    <path id="Path_1082_-_Outline" data-name="Path 1082 - Outline" d="M15,2A13,13,0,0,0,2,15V325a13,13,0,0,0,13,13H325a13,13,0,0,0,13-13V15A13,13,0,0,0,325,2H15m0-2H325a15,15,0,0,1,15,15V325a15,15,0,0,1-15,15H15A15,15,0,0,1,0,325V15A15,15,0,0,1,15,0Z" transform="translate(18 163)" fill="#707070"/>
    <g id="OFF" opacity="0.39">
      <text id="OFF-2" data-name="OFF" transform="translate(188 410)" fill="#70acac" font-size="161" font-family="JosefinSans-Regular, Josefin Sans"><tspan x="-163.818" y="0">OFF</tspan></text>
      <path id="OFF_-_Outline" data-name="OFF - Outline" d="M-94.91,1.788A63.194,63.194,0,0,1-106.98.652a57.229,57.229,0,0,1-11.227-3.411A61.728,61.728,0,0,1-128.372-8.2a60.778,60.778,0,0,1-8.908-7.224,58.093,58.093,0,0,1-7.369-8.81,59.824,59.824,0,0,1-5.541-10.188,56.989,56.989,0,0,1-3.472-11.37,64.543,64.543,0,0,1-1.156-12.332,60.062,60.062,0,0,1,1.157-11.832A56.852,56.852,0,0,1-150.19-81.1a61.921,61.921,0,0,1,5.539-10.185,62.085,62.085,0,0,1,7.365-8.968,62.491,62.491,0,0,1,8.906-7.466,62.844,62.844,0,0,1,10.164-5.68,55.108,55.108,0,0,1,11.231-3.595,60.1,60.1,0,0,1,12.075-1.2,59.1,59.1,0,0,1,11.955,1.2,55.283,55.283,0,0,1,11.19,3.595,63.252,63.252,0,0,1,19.149,13.145,62.673,62.673,0,0,1,7.445,8.967A62.3,62.3,0,0,1-39.55-81.1a56.147,56.147,0,0,1,3.533,11.148A59.069,59.069,0,0,1-34.84-58.121a61.4,61.4,0,0,1-1.177,12.093A56.608,56.608,0,0,1-39.55-34.738a60.876,60.876,0,0,1-5.621,10.207,59.766,59.766,0,0,1-7.448,8.869A62.283,62.283,0,0,1-71.77-2.841,56.665,56.665,0,0,1-82.958.631,61.088,61.088,0,0,1-94.91,1.788Zm0-118.979a56.089,56.089,0,0,0-22.9,4.707,61.253,61.253,0,0,0-18.765,12.936,60.592,60.592,0,0,0-12.7,18.843,56.985,56.985,0,0,0-4.548,22.585,59.206,59.206,0,0,0,4.549,23.31A57.524,57.524,0,0,0-136.58-16.135,59.84,59.84,0,0,0-117.819-3.681,58.7,58.7,0,0,0-94.91.788,57.388,57.388,0,0,0-72.164-3.76,61.287,61.287,0,0,0-53.319-16.376,58.9,58.9,0,0,0-40.467-35.136,57.5,57.5,0,0,0-35.84-58.121,56.131,56.131,0,0,0-40.467-80.7,61.074,61.074,0,0,0-53.323-99.547,62.257,62.257,0,0,0-72.17-112.484,55.7,55.7,0,0,0-94.91-117.191ZM101.85.5H85.232V-116.9H155.3v15.973H101.85v36.191H148.7v15.812H101.85ZM86.232-.5H100.85V-49.927H147.7V-63.739H100.85V-101.93H154.3V-115.9H86.232ZM7.021.5H-9.6V-116.9H60.472v15.973H7.021v36.191H53.872v15.812H7.021ZM-8.6-.5H6.021V-49.927H52.872V-63.739H6.021V-101.93H59.472V-115.9H-8.6ZM-94.588-13.185a42.691,42.691,0,0,1-17.267-3.5,44.27,44.27,0,0,1-14-9.689,46.158,46.158,0,0,1-9.44-14.241,44.141,44.141,0,0,1-3.421-17.342,47.285,47.285,0,0,1,3.255-17.492,43.472,43.472,0,0,1,9.284-14.413,45.391,45.391,0,0,1,14-9.767,41.867,41.867,0,0,1,17.271-3.586,42.293,42.293,0,0,1,17.106,3.5,44.271,44.271,0,0,1,14,9.689A45.654,45.654,0,0,1-54.359-75.62a45.325,45.325,0,0,1,3.419,17.5,44.555,44.555,0,0,1-3.421,17.5,47.675,47.675,0,0,1-9.274,14.236,42.431,42.431,0,0,1-13.847,9.693A42.293,42.293,0,0,1-94.588-13.185Zm-.322-89.033a40.875,40.875,0,0,0-16.861,3.5,44.4,44.4,0,0,0-13.693,9.553,42.477,42.477,0,0,0-9.07,14.084,46.288,46.288,0,0,0-3.185,17.123,43.147,43.147,0,0,0,3.341,16.951,45.161,45.161,0,0,0,9.236,13.934,43.276,43.276,0,0,0,13.689,9.47,41.7,41.7,0,0,0,16.865,3.419,41.3,41.3,0,0,0,16.7-3.419A41.437,41.437,0,0,0-64.36-27.07a46.678,46.678,0,0,0,9.08-13.939,43.561,43.561,0,0,0,3.341-17.112,44.33,44.33,0,0,0-3.343-17.116,44.658,44.658,0,0,0-9.235-14.092A43.277,43.277,0,0,0-78.205-98.8,41.3,41.3,0,0,0-94.91-102.218Z" transform="translate(188 410)" fill="rgba(0,0,0,0)"/>
    </g>
    <g id="Group_96" data-name="Group 96" transform="translate(129 186)">
      <path id="Path_1052" data-name="Path 1052" d="M747.45,239.3H747.4l-79.856-1.412a2.8,2.8,0,0,1-1.876-4.836,25.127,25.127,0,0,0,3.7-4.919,24.836,24.836,0,0,0,3.6-12.705c0-3.628.052-7.382.108-11.356.125-9.03.282-20.268-.107-36.246-.12-4.908-1.6-8.305-4.531-10.388-3.66-2.6-9.038-2.715-12.906-2.352a41.106,41.106,0,0,0-7.859,1.518,2.8,2.8,0,0,1-1.718-5.335,46.514,46.514,0,0,1,9.055-1.765,33.981,33.981,0,0,1,8.279.157,19.392,19.392,0,0,1,8.387,3.206,15.207,15.207,0,0,1,4.912,5.832,21.715,21.715,0,0,1,1.976,8.99c.392,16.086.234,27.383.108,36.461-.055,3.954-.107,7.689-.107,11.278a31.024,31.024,0,0,1-5.242,16.956l74.174,1.312a2.8,2.8,0,0,1-.048,5.605Z" transform="translate(-644.017 -136.905)" fill="#4b8989"/>
      <path id="Ellipse_7" data-name="Ellipse 7" d="M11.793,5.55a6.243,6.243,0,1,0,6.243,6.243A6.25,6.25,0,0,0,11.793,5.55m0-5.55A11.793,11.793,0,1,1,0,11.793,11.793,11.793,0,0,1,11.793,0Z" transform="translate(95.212 96.113)" fill="#4b8989"/>
      <path id="Ellipse_8" data-name="Ellipse 8" d="M11.793,4.162a7.631,7.631,0,1,0,7.631,7.631,7.639,7.639,0,0,0-7.631-7.631m0-4.162A11.793,11.793,0,1,1,0,11.793,11.793,11.793,0,0,1,11.793,0Z" transform="translate(4.138 96.113)" fill="#4b8989"/>
      <g data-type="innerShadowGroup">
        <g transform="matrix(1, 0, 0, 1, -129, -186)" filter="url(#Subtraction_1)">
          <path id="Subtraction_1-3" data-name="Subtraction 1" d="M8.677,26.574v0a37.563,37.563,0,0,1-1.929-5.347c-.309-1.234-.6-2.5-.907-3.843a81.791,81.791,0,0,0-2.6-9.59A66.876,66.876,0,0,0,0,0H.006L.037,0A116.441,116.441,0,0,1,15.472,3.192,70.161,70.161,0,0,1,27.918,7.851c4.32,2.176,7.5,4.631,9.46,7.3a11.382,11.382,0,0,1,2.176,9.121,10.715,10.715,0,0,1-.464,1.677c-3.826-.3-7.626-.514-11.3-.622a13.811,13.811,0,0,0-5.318-4.447,1.688,1.688,0,0,0,.169.183A27.014,27.014,0,0,1,26,25.278c-1.275-.026-2.582-.041-3.886-.041-3.652,0-7.117.112-10.3.333a7.091,7.091,0,0,0-3.142,1Z" transform="translate(168.48 186)" fill="#6da581"/>
        </g>
        <g transform="matrix(1, 0, 0, 1, -129, -186)" filter="url(#Subtraction_1-2)">
          <path id="Subtraction_1-4" data-name="Subtraction 1" d="M8.677,26.574v0a37.563,37.563,0,0,1-1.929-5.347c-.309-1.234-.6-2.5-.907-3.843a81.791,81.791,0,0,0-2.6-9.59A66.876,66.876,0,0,0,0,0H.006L.037,0A116.441,116.441,0,0,1,15.472,3.192,70.161,70.161,0,0,1,27.918,7.851c4.32,2.176,7.5,4.631,9.46,7.3a11.382,11.382,0,0,1,2.176,9.121,10.715,10.715,0,0,1-.464,1.677c-3.826-.3-7.626-.514-11.3-.622a13.811,13.811,0,0,0-5.318-4.447,1.688,1.688,0,0,0,.169.183A27.014,27.014,0,0,1,26,25.278c-1.275-.026-2.582-.041-3.886-.041-3.652,0-7.117.112-10.3.333a7.091,7.091,0,0,0-3.142,1Z" transform="translate(168.48 186)" fill="#fff"/>
        </g>
      </g>
      <g data-type="innerShadowGroup">
        <g transform="matrix(1, 0, 0, 1, -129, -186)" filter="url(#Subtraction_2)">
          <path id="Subtraction_2-3" data-name="Subtraction 2" d="M20.561,18.318h0c-3.568-.676-7.462-1.281-11.574-1.8a18.107,18.107,0,0,1,2.66-3.071,1.176,1.176,0,0,0,.12-.118,9.46,9.46,0,0,0-3.942,3.045c-2.507-.3-5.08-.57-7.65-.8-.043-.195-.076-.383-.1-.56C-.56,10.243,2.968,7.246,6.04,5.573,14.52.937,27.6.009,27.734,0a44.719,44.719,0,0,0-2.47,5.158,55.423,55.423,0,0,0-2.1,6.39c-.257.9-.5,1.75-.754,2.576a24.227,24.227,0,0,1-1.848,4.193Z" transform="translate(209.75 196.52)" fill="#6da581"/>
        </g>
        <g transform="matrix(1, 0, 0, 1, -129, -186)" filter="url(#Subtraction_2-2)">
          <path id="Subtraction_2-4" data-name="Subtraction 2" d="M20.561,18.318h0c-3.568-.676-7.462-1.281-11.574-1.8a18.107,18.107,0,0,1,2.66-3.071,1.176,1.176,0,0,0,.12-.118,9.46,9.46,0,0,0-3.942,3.045c-2.507-.3-5.08-.57-7.65-.8-.043-.195-.076-.383-.1-.56C-.56,10.243,2.968,7.246,6.04,5.573,14.52.937,27.6.009,27.734,0a44.719,44.719,0,0,0-2.47,5.158,55.423,55.423,0,0,0-2.1,6.39c-.257.9-.5,1.75-.754,2.576a24.227,24.227,0,0,1-1.848,4.193Z" transform="translate(209.75 196.52)" fill="#fff"/>
        </g>
      </g>
      <g id="Group_55" data-name="Group 55" transform="translate(29.301 24.566)">
        <path id="Path_1053" data-name="Path 1053" d="M667.266,215.483a2.775,2.775,0,0,1-.036-5.549c.171,0,17.323-.237,35.078-1.183,10.393-.554,18.948-1.238,25.427-2.035,9.311-1.145,12.157-2.28,12.949-2.714l.143-.705c.822-4.056,2.533-12.5,3.6-20.441a90.829,90.829,0,0,0,.916-10.793c.028-3.379-.372-4.692-.556-5.116-3.719-1.776-12.508-3.713-22.75-5a184.273,184.273,0,0,0-33.745-1.3c-10.887.756-17.719,3.256-17.832,6.525a2.775,2.775,0,0,1-5.546-.191c.092-2.657,1.493-6.356,7.651-8.887,3.724-1.531,8.886-2.535,15.342-2.983a190,190,0,0,1,34.819,1.33c5.554.7,10.757,1.579,15.049,2.555a42.8,42.8,0,0,1,10.117,3.3,2.777,2.777,0,0,1,.459.311c1.687,1.408,2.47,4.022,2.538,8.476a85.57,85.57,0,0,1-.852,11.676c-1.077,8.372-2.893,17.331-3.766,21.636-.1.5-.189.933-.261,1.3-.5,2.491-3.234,3.619-5.562,4.323a64.128,64.128,0,0,1-9.2,1.833c-6.436.91-15.285,1.688-26.3,2.312-18.684,1.059-37.449,1.316-37.636,1.318Z" transform="translate(-664.493 -154.81)" fill="#4b8989"/>
      </g>
    </g>
    <g id="Polygon_4" data-name="Polygon 4" opacity="0.79">
      <path id="Polygon_4-2" data-name="Polygon 4" d="M70.738,2.12a1,1,0,0,1,1.8.484l2.27,21.924a1,1,0,0,0,1.4.81l20.122-9a1,1,0,0,1,1.321,1.321l-9,20.122a1,1,0,0,0,.81,1.4l21.924,2.27a1,1,0,0,1,.484,1.8L94.028,56.19a1,1,0,0,0,0,1.62L111.88,70.738a1,1,0,0,1-.484,1.8l-21.924,2.27a1,1,0,0,0-.81,1.4l9,20.122a1,1,0,0,1-1.321,1.321l-20.122-9a1,1,0,0,0-1.4.81L72.543,111.4a1,1,0,0,1-1.8.484L57.81,94.028a1,1,0,0,0-1.62,0L43.262,111.88a1,1,0,0,1-1.8-.484l-2.27-21.924a1,1,0,0,0-1.4-.81l-20.122,9a1,1,0,0,1-1.321-1.321l9-20.122a1,1,0,0,0-.81-1.4L2.6,72.543a1,1,0,0,1-.484-1.8L19.972,57.81a1,1,0,0,0,0-1.62L2.12,43.262a1,1,0,0,1,.484-1.8l21.924-2.27a1,1,0,0,0,.81-1.4l-9-20.122a1,1,0,0,1,1.321-1.321l20.122,9a1,1,0,0,0,1.4-.81L41.457,2.6a1,1,0,0,1,1.8-.484L56.19,19.972a1,1,0,0,0,1.62,0Z" transform="translate(133.798 312)" fill="#75ffb1"/>
      <path id="Polygon_4_-_Outline" data-name="Polygon 4 - Outline" d="M70.823,5.412,59.43,21.145a3,3,0,0,1-4.86,0L43.177,5.412l-2,19.321a3,3,0,0,1-4.208,2.43L19.235,19.235l7.928,17.733a3,3,0,0,1-2.43,4.209l-19.321,2L21.145,54.57a3,3,0,0,1,0,4.86L5.412,70.823l19.321,2a3,3,0,0,1,2.43,4.208L19.235,94.765l17.733-7.928a3,3,0,0,1,4.209,2.43l2,19.321L54.57,92.855a3,3,0,0,1,4.86,0l11.393,15.732,2-19.321a3,3,0,0,1,4.208-2.43l17.733,7.928L86.837,77.032a3,3,0,0,1,2.43-4.208l19.321-2L92.855,59.43a3,3,0,0,1,0-4.86l15.732-11.393-19.321-2a3,3,0,0,1-2.43-4.208l7.928-17.733L77.032,27.163a3,3,0,0,1-4.209-2.43l-2-19.321m.717-3.707a1,1,0,0,1,1,.9l2.27,21.924a1,1,0,0,0,1.4.81l20.122-9a1,1,0,0,1,1.321,1.321l-9,20.122a1,1,0,0,0,.81,1.4l21.924,2.27a1,1,0,0,1,.484,1.8L94.028,56.19a1,1,0,0,0,0,1.62L111.88,70.738a1,1,0,0,1-.484,1.8l-21.924,2.27a1,1,0,0,0-.81,1.4l9,20.122a1,1,0,0,1-1.321,1.321l-20.122-9a1,1,0,0,0-1.4.81L72.543,111.4a1,1,0,0,1-1.8.484L57.81,94.028a1,1,0,0,0-1.62,0L43.262,111.88a1,1,0,0,1-1.8-.484l-2.27-21.924a1,1,0,0,0-1.4-.81l-20.122,9a1,1,0,0,1-1.321-1.321l9-20.122a1,1,0,0,0-.81-1.4L2.6,72.543a1,1,0,0,1-.484-1.8L19.972,57.81a1,1,0,0,0,0-1.62L2.12,43.262a1,1,0,0,1,.484-1.8l21.924-2.27a1,1,0,0,0,.81-1.4l-9-20.122a1,1,0,0,1,1.321-1.321l20.122,9a1,1,0,0,0,1.4-.81L41.457,2.6a1,1,0,0,1,1.8-.484L56.19,19.972a1,1,0,0,0,1.62,0L70.738,2.12A.977.977,0,0,1,71.54,1.705Z" transform="translate(133.798 312)" fill="#143d3d"/>
    </g>
    <text id="_30_" data-name="30%" transform="translate(194 378)" fill="#143d3d" font-size="33" font-family="JosefinSans-Regular, Josefin Sans"><tspan x="-31.779" y="0">30%</tspan></text>
    <path id="_30_-_Outline" data-name="30% - Outline" d="M-4.224-22.445a9.309,9.309,0,0,1,3.887.8A8.617,8.617,0,0,1,2.71-19.313a11.025,11.025,0,0,1,1.972,3.628,15.088,15.088,0,0,1,.7,4.762,15.359,15.359,0,0,1-.7,4.81A10.808,10.808,0,0,1,2.708-2.481,8.526,8.526,0,0,1-.341-.187,9.477,9.477,0,0,1-4.224.6a9.423,9.423,0,0,1-3.9-.8,8.578,8.578,0,0,1-3.065-2.329,10.778,10.778,0,0,1-1.957-3.649,15.466,15.466,0,0,1-.684-4.741,17.258,17.258,0,0,1,.649-4.98,9.839,9.839,0,0,1,1.932-3.631,8,8,0,0,1,3.078-2.2A10.549,10.549,0,0,1-4.224-22.445Zm0,22.044A8.485,8.485,0,0,0-.748-1.1,7.533,7.533,0,0,0,1.945-3.129a9.817,9.817,0,0,0,1.787-3.3,14.368,14.368,0,0,0,.651-4.5,14.1,14.1,0,0,0-.651-4.445,10.032,10.032,0,0,0-1.79-3.3,7.624,7.624,0,0,0-2.7-2.061,8.318,8.318,0,0,0-3.472-.714A9.557,9.557,0,0,0-7.8-20.8a7.005,7.005,0,0,0-2.7,1.927,8.851,8.851,0,0,0-1.731,3.266,16.272,16.272,0,0,0-.605,4.689A14.473,14.473,0,0,0-12.2-6.49a9.787,9.787,0,0,0,1.772,3.314,7.586,7.586,0,0,0,2.71,2.06A8.431,8.431,0,0,0-4.224-.4ZM-29.276-22.214h12.818l-5.035,8.1a7.646,7.646,0,0,1,.94.205,6.237,6.237,0,0,1,2.259,1.183,5.775,5.775,0,0,1,1.61,2.2,8.32,8.32,0,0,1,.586,3.3,7.881,7.881,0,0,1-1.132,4.259A7.7,7.7,0,0,1-20.211-.2a8.69,8.69,0,0,1-4.076.965A8.774,8.774,0,0,1-27.629.083a8.058,8.058,0,0,1-2.76-1.814l-.27-.278,2.177-3.554.447.518a5.564,5.564,0,0,0,1.591,1.206,4.312,4.312,0,0,0,2.057.534,4.09,4.09,0,0,0,2.017-.5A3.786,3.786,0,0,0-20.941-5.22,4.231,4.231,0,0,0-20.4-7.392a3.517,3.517,0,0,0-.956-2.647,3.607,3.607,0,0,0-2.669-.945,7.046,7.046,0,0,0-1.507.136,8.6,8.6,0,0,0-1.122.327l-.351.132-.532-.71,1.366-2.123-.024-.011.048-.026L-23-18.145h-6.271Zm11.018,1H-28.276v2.069h5.914L-22-19.7l1.38.6-.2.959h-.993l-2.644,4.111q.12-.03.245-.053a6.249,6.249,0,0,1,1.135-.108c.155-.008.31-.012.464-.011ZM-24.288-.236a7.7,7.7,0,0,0,3.612-.85,6.709,6.709,0,0,0,2.6-2.413,6.9,6.9,0,0,0,.98-3.727,7.344,7.344,0,0,0-.5-2.9,4.787,4.787,0,0,0-1.327-1.826,5.243,5.243,0,0,0-1.9-.995,6.653,6.653,0,0,0-1.248-.23l-.808,1.3a4.222,4.222,0,0,1,2.23,1.131A4.52,4.52,0,0,1-19.4-7.392a5.214,5.214,0,0,1-.679,2.679,4.773,4.773,0,0,1-1.8,1.784,5.078,5.078,0,0,1-2.5.624,5.3,5.3,0,0,1-2.53-.654,7.356,7.356,0,0,1-1.4-.957L-29.394-2.16A7.3,7.3,0,0,0-27.25-.842,7.78,7.78,0,0,0-24.288-.236Zm.827-11.725-1.8-.836-.649,1.009.154-.036a8.022,8.022,0,0,1,1.727-.161Q-23.734-11.984-23.461-11.961ZM24.222-20.6h4.314L14.089.536,9.852.49Zm2.419,1H24.75L11.73-.49l1.835.02ZM12.8-20.564a4.879,4.879,0,0,1,2.806.8,5.072,5.072,0,0,1,1.776,2.191,7.694,7.694,0,0,1,.6,3.122,7.782,7.782,0,0,1-.6,3.155A5.072,5.072,0,0,1,15.61-9.108a4.879,4.879,0,0,1-2.806.8,5.018,5.018,0,0,1-2.853-.794,4.819,4.819,0,0,1-1.767-2.2,8.182,8.182,0,0,1-.566-3.145,8.088,8.088,0,0,1,.566-3.112,4.819,4.819,0,0,1,1.767-2.2A5.018,5.018,0,0,1,12.8-20.564Zm0,11.253a3.9,3.9,0,0,0,2.243-.622A4.088,4.088,0,0,0,16.472-11.7a6.8,6.8,0,0,0,.518-2.752,6.707,6.707,0,0,0-.518-2.719,4.088,4.088,0,0,0-1.425-1.769,3.9,3.9,0,0,0-2.243-.622,4.042,4.042,0,0,0-2.3.625,3.785,3.785,0,0,0-1.4,1.757,7.1,7.1,0,0,0-.49,2.729,7.194,7.194,0,0,0,.49,2.762,3.785,3.785,0,0,0,1.4,1.757A4.042,4.042,0,0,0,12.8-9.311ZM-4.257-19.376a5.675,5.675,0,0,1,3.52,1.092,6.508,6.508,0,0,1,2.129,2.979,12.359,12.359,0,0,1,.692,4.317,12.785,12.785,0,0,1-.69,4.362A6.6,6.6,0,0,1-.734-3.581,5.617,5.617,0,0,1-4.257-2.47,5.546,5.546,0,0,1-7.766-3.583a6.551,6.551,0,0,1-2.093-3.03,12.816,12.816,0,0,1-.673-4.31,12.78,12.78,0,0,1,.673-4.328,6.556,6.556,0,0,1,2.093-3.013A5.546,5.546,0,0,1-4.257-19.376Zm0,15.906a4.643,4.643,0,0,0,2.912-.9,5.619,5.619,0,0,0,1.8-2.6,11.8,11.8,0,0,0,.63-4.02,11.374,11.374,0,0,0-.628-3.966,5.527,5.527,0,0,0-1.8-2.532,4.7,4.7,0,0,0-2.915-.888,4.574,4.574,0,0,0-2.893.9,5.575,5.575,0,0,0-1.768,2.564,11.793,11.793,0,0,0-.614,3.988A11.827,11.827,0,0,0-8.918-6.95,5.571,5.571,0,0,0-7.15-4.37,4.574,4.574,0,0,0-4.257-3.47ZM12.8-18.353a2.084,2.084,0,0,1,1.885,1.108,5.683,5.683,0,0,1,.562,2.824,5.846,5.846,0,0,1-.554,2.744A2.068,2.068,0,0,1,12.8-10.489,2.1,2.1,0,0,1,10.9-11.671a5.7,5.7,0,0,1-.574-2.75,5.522,5.522,0,0,1,.584-2.85A2.128,2.128,0,0,1,12.8-18.353Zm0,6.864a1.069,1.069,0,0,0,1.011-.66,4.894,4.894,0,0,0,.436-2.272,4.848,4.848,0,0,0-.428-2.324,1.092,1.092,0,0,0-1.019-.608,1.131,1.131,0,0,0-1.041.6,4.694,4.694,0,0,0-.439,2.331,4.747,4.747,0,0,0,.449,2.266A1.114,1.114,0,0,0,12.8-11.489Zm12.375.264a4.938,4.938,0,0,1,2.839.8,5.072,5.072,0,0,1,1.776,2.191,7.694,7.694,0,0,1,.6,3.122,7.782,7.782,0,0,1-.6,3.155A5.072,5.072,0,0,1,28.018.231a4.938,4.938,0,0,1-2.839.8A4.864,4.864,0,0,1,22.335.212a5.088,5.088,0,0,1-1.756-2.191,7.854,7.854,0,0,1-.586-3.136,7.885,7.885,0,0,1,.585-3.117,4.963,4.963,0,0,1,1.762-2.2A4.938,4.938,0,0,1,25.179-11.225Zm0,11.253a3.963,3.963,0,0,0,2.276-.622A4.088,4.088,0,0,0,28.88-2.363,6.8,6.8,0,0,0,29.4-5.115a6.707,6.707,0,0,0-.518-2.719A4.088,4.088,0,0,0,27.455-9.6a3.963,3.963,0,0,0-2.276-.622A3.963,3.963,0,0,0,22.9-9.6,3.98,3.98,0,0,0,21.5-7.839a6.9,6.9,0,0,0-.5,2.724,6.868,6.868,0,0,0,.5,2.738A4.1,4.1,0,0,0,22.908-.608,3.889,3.889,0,0,0,25.179.028Zm0-9.042a2.122,2.122,0,0,1,1.9,1.1,5.541,5.541,0,0,1,.582,2.83,5.7,5.7,0,0,1-.574,2.75A2.1,2.1,0,0,1,25.179-1.15a2.1,2.1,0,0,1-1.906-1.182,5.7,5.7,0,0,1-.574-2.75,5.522,5.522,0,0,1,.584-2.85A2.128,2.128,0,0,1,25.179-9.014Zm0,6.864a1.114,1.114,0,0,0,1.031-.666,4.747,4.747,0,0,0,.449-2.266A4.7,4.7,0,0,0,26.218-7.4a1.127,1.127,0,0,0-1.039-.614,1.131,1.131,0,0,0-1.041.6A4.694,4.694,0,0,0,23.7-5.082a4.747,4.747,0,0,0,.449,2.266A1.114,1.114,0,0,0,25.179-2.15Z" transform="translate(194 378)" fill="rgba(0,0,0,0)"/>
    <g id="Group_97" data-name="Group 97" transform="matrix(0.766, -0.643, 0.643, 0.766, -1252.829, 237.905)">
      <g data-type="innerShadowGroup">
        <g transform="matrix(0.77, 0.64, -0.64, 0.77, 1112.64, 623.06)" filter="url(#Subtraction_3)">
          <path id="Subtraction_3-5" data-name="Subtraction 3" d="M6.988,11.486h0l-.173-.34A56.433,56.433,0,0,0,3.471,5.157,46.152,46.152,0,0,0,0,.478a.1.1,0,0,1,.028,0A80.647,80.647,0,0,1,8.744,0,46.968,46.968,0,0,1,21.912,1.568l-2.86,8.3a2.008,2.008,0,0,1-1.839,1.348l-10.225.268Z" transform="matrix(0.77, -0.64, 0.64, 0.77, 54.45, 247.19)" fill="#6da581"/>
        </g>
        <g transform="matrix(0.77, 0.64, -0.64, 0.77, 1112.64, 623.06)" filter="url(#Subtraction_3-2)">
          <path id="Subtraction_3-6" data-name="Subtraction 3" d="M6.988,11.486h0l-.173-.34A56.433,56.433,0,0,0,3.471,5.157,46.152,46.152,0,0,0,0,.478a.1.1,0,0,1,.028,0A80.647,80.647,0,0,1,8.744,0,46.968,46.968,0,0,1,21.912,1.568l-2.86,8.3a2.008,2.008,0,0,1-1.839,1.348l-10.225.268Z" transform="matrix(0.77, -0.64, 0.64, 0.77, 54.45, 247.19)" fill="#fff"/>
        </g>
      </g>
      <g data-type="innerShadowGroup">
        <g transform="matrix(0.77, 0.64, -0.64, 0.77, 1112.64, 623.06)" filter="url(#Subtraction_4)">
          <path id="Subtraction_4-5" data-name="Subtraction 4" d="M11.712,10.34h0l-8.054-.211c.379-.422.685-.706.832-.843a.811.811,0,0,0,.083-.081,6.115,6.115,0,0,0-1.512.878A2,2,0,0,1,1.569,8.775L0,4.222C2.86,2.391,6.949,1.341,9.875.782A53.345,53.345,0,0,1,15.6,0a31.44,31.44,0,0,0-1.706,3.562A38.251,38.251,0,0,0,12.44,7.981c-.177.62-.344,1.2-.518,1.773-.068.2-.138.4-.209.586Z" transform="matrix(0.77, -0.64, 0.64, 0.77, 82.45, 225.13)" fill="#6da581"/>
        </g>
        <g transform="matrix(0.77, 0.64, -0.64, 0.77, 1112.64, 623.06)" filter="url(#Subtraction_4-2)">
          <path id="Subtraction_4-6" data-name="Subtraction 4" d="M11.712,10.34h0l-8.054-.211c.379-.422.685-.706.832-.843a.811.811,0,0,0,.083-.081,6.115,6.115,0,0,0-1.512.878A2,2,0,0,1,1.569,8.775L0,4.222C2.86,2.391,6.949,1.341,9.875.782A53.345,53.345,0,0,1,15.6,0a31.44,31.44,0,0,0-1.706,3.562A38.251,38.251,0,0,0,12.44,7.981c-.177.62-.344,1.2-.518,1.773-.068.2-.138.4-.209.586Z" transform="matrix(0.77, -0.64, 0.64, 0.77, 82.45, 225.13)" fill="#fff"/>
        </g>
      </g>
      <path id="Path_1067" data-name="Path 1067" d="M35.025,5.64a2.168,2.168,0,0,0-2.1,1.5L27.756,22.148a5.242,5.242,0,0,1-4.8,3.517l-15.7.412a2.218,2.218,0,0,0-1.313,3.961l12.621,9.922a5.2,5.2,0,0,1,1.787,5.553L15.861,61.034a2.11,2.11,0,0,0,.332,1.926,2.318,2.318,0,0,0,1.81.924,2.17,2.17,0,0,0,1.268-.421l12.745-9a5.218,5.218,0,0,1,6.019,0l12.745,9a2.17,2.17,0,0,0,1.268.421,2.318,2.318,0,0,0,1.81-.924,2.11,2.11,0,0,0,.332-1.925L49.7,45.512a5.2,5.2,0,0,1,1.787-5.553l12.621-9.922a2.218,2.218,0,0,0-1.313-3.961l-15.7-.412a5.242,5.242,0,0,1-4.8-3.517L37.122,7.135a2.168,2.168,0,0,0-2.1-1.5m0-1.5A3.653,3.653,0,0,1,38.54,6.647l5.172,15.012a3.718,3.718,0,0,0,3.418,2.506l15.7.412a3.718,3.718,0,0,1,2.2,6.64L52.411,41.138A3.718,3.718,0,0,0,51.138,45.1L55.63,60.617a3.718,3.718,0,0,1-5.716,4.071l-12.745-9a3.718,3.718,0,0,0-4.289,0l-12.745,9a3.718,3.718,0,0,1-5.716-4.071L18.913,45.1a3.718,3.718,0,0,0-1.274-3.957L5.018,31.216a3.718,3.718,0,0,1,2.2-6.64l15.7-.412a3.718,3.718,0,0,0,3.418-2.506L31.51,6.647A3.653,3.653,0,0,1,35.025,4.14Z" transform="translate(988.561 834.5)" fill="#4b8989"/>
    </g>
    <g id="Group_98" data-name="Group 98" transform="translate(297.958 289) rotate(-140)">
      <g data-type="innerShadowGroup">
        <g transform="matrix(-0.77, 0.64, -0.64, -0.77, 414.01, 29.86)" filter="url(#Subtraction_3-3)">
          <path id="Subtraction_3-7" data-name="Subtraction 3" d="M8.743,11.486h0A78.889,78.889,0,0,1,0,11.008,45.863,45.863,0,0,0,3.47,6.329,56.429,56.429,0,0,0,6.814.34L6.987,0,17.213.268a2.009,2.009,0,0,1,1.839,1.348l2.86,8.3A46.964,46.964,0,0,1,8.743,11.486Z" transform="translate(321.77 255.48) rotate(-140)" fill="#6da581"/>
        </g>
        <g transform="matrix(-0.77, 0.64, -0.64, -0.77, 414.01, 29.86)" filter="url(#Subtraction_3-4)">
          <path id="Subtraction_3-8" data-name="Subtraction 3" d="M8.743,11.486h0A78.889,78.889,0,0,1,0,11.008,45.863,45.863,0,0,0,3.47,6.329,56.429,56.429,0,0,0,6.814.34L6.987,0,17.213.268a2.009,2.009,0,0,1,1.839,1.348l2.86,8.3A46.964,46.964,0,0,1,8.743,11.486Z" transform="translate(321.77 255.48) rotate(-140)" fill="#fff"/>
        </g>
      </g>
      <g data-type="innerShadowGroup">
        <g transform="matrix(-0.77, 0.64, -0.64, -0.77, 414.01, 29.86)" filter="url(#Subtraction_4-3)">
          <path id="Subtraction_4-7" data-name="Subtraction 4" d="M15.6,10.34h0a53.217,53.217,0,0,1-5.721-.782C6.949,9,2.86,7.949,0,6.118L1.569,1.565A2,2,0,0,1,3.06.257a6.112,6.112,0,0,0,1.512.878.788.788,0,0,0-.083-.081C4.343.918,4.037.634,3.657.211L11.712,0c.075.2.145.4.21.587.175.568.341,1.153.518,1.771a38.259,38.259,0,0,0,1.453,4.42,30.966,30.966,0,0,0,1.7,3.561Z" transform="translate(294.5 232.54) rotate(-140)" fill="#6da581"/>
        </g>
        <g transform="matrix(-0.77, 0.64, -0.64, -0.77, 414.01, 29.86)" filter="url(#Subtraction_4-4)">
          <path id="Subtraction_4-8" data-name="Subtraction 4" d="M15.6,10.34h0a53.217,53.217,0,0,1-5.721-.782C6.949,9,2.86,7.949,0,6.118L1.569,1.565A2,2,0,0,1,3.06.257a6.112,6.112,0,0,0,1.512.878.788.788,0,0,0-.083-.081C4.343.918,4.037.634,3.657.211L11.712,0c.075.2.145.4.21.587.175.568.341,1.153.518,1.771a38.259,38.259,0,0,0,1.453,4.42,30.966,30.966,0,0,0,1.7,3.561Z" transform="translate(294.5 232.54) rotate(-140)" fill="#fff"/>
        </g>
      </g>
      <path id="Path_1067-2" data-name="Path 1067" d="M31.434,59.744a2.168,2.168,0,0,0,2.1-1.5L38.7,43.236a5.242,5.242,0,0,1,4.8-3.517l15.7-.412a2.218,2.218,0,0,0,1.313-3.961L47.893,25.424a5.2,5.2,0,0,1-1.787-5.553L50.6,4.35a2.11,2.11,0,0,0-.332-1.925,2.318,2.318,0,0,0-1.81-.924,2.17,2.17,0,0,0-1.268.421l-12.745,9a5.218,5.218,0,0,1-6.019,0l-12.745-9A2.17,2.17,0,0,0,14.412,1.5a2.318,2.318,0,0,0-1.81.924A2.11,2.11,0,0,0,12.27,4.35l4.492,15.522a5.2,5.2,0,0,1-1.787,5.553L2.354,35.346a2.218,2.218,0,0,0,1.313,3.961l15.7.412a5.242,5.242,0,0,1,4.8,3.517l5.172,15.012a2.168,2.168,0,0,0,2.1,1.5m0,1.5a3.653,3.653,0,0,1-3.515-2.507L22.747,43.724a3.718,3.718,0,0,0-3.418-2.506l-15.7-.412a3.718,3.718,0,0,1-2.2-6.64l12.621-9.922a3.718,3.718,0,0,0,1.274-3.957L10.829,4.767A3.718,3.718,0,0,1,16.545.7l12.745,9a3.718,3.718,0,0,0,4.289,0L46.323.7a3.718,3.718,0,0,1,5.716,4.071L47.547,20.288a3.718,3.718,0,0,0,1.274,3.957l12.621,9.922a3.718,3.718,0,0,1-2.2,6.64l-15.7.412a3.718,3.718,0,0,0-3.418,2.506L34.949,58.737A3.653,3.653,0,0,1,31.434,61.244Z" transform="translate(0 0)" fill="#4b8989"/>
    </g>
    <text id="COUPON:" transform="translate(111 472)" fill="#143d3d" font-size="29" font-family="JosefinSans-Bold, Josefin Sans" font-weight="700"><tspan x="-69.963" y="0">COUPON:</tspan></text>
    <path id="COUPON:_-_Outline" data-name="COUPON: - Outline" d="M62.517,1.37h-.808L47.476-11.485,47.556.5H42.29V-22.685h.869l14.2,13.056-.08-12.215h5.237ZM47.467-12.841,61.517-.151V-20.844H58.286L58.365-8.7,59.136-8l-.539.826-1.225-.536,0-.557L43.29-21.206V-.5h3.26L46.47-12.394l-1.087-.981.579-.808,1.5.838ZM-57.577.734l-.243,0a12.566,12.566,0,0,1-4.7-.954,10.4,10.4,0,0,1-3.532-2.453,10.807,10.807,0,0,1-2.2-3.557,12,12,0,0,1-.757-4.266,13.518,13.518,0,0,1,.77-4.637,10.752,10.752,0,0,1,2.221-3.679,10.064,10.064,0,0,1,3.462-2.411,11.279,11.279,0,0,1,4.429-.852,12,12,0,0,1,3.965.608,13.689,13.689,0,0,1,2.8,1.3l.354.226-2.063,4.958-.515-.392a11.641,11.641,0,0,0-1.847-1.1,5.711,5.711,0,0,0-2.548-.543,5.109,5.109,0,0,0-2.128.463,5.619,5.619,0,0,0-1.811,1.319,6.511,6.511,0,0,0-1.252,2.007,6.693,6.693,0,0,0-.457,2.5,7.959,7.959,0,0,0,.421,2.647,5.79,5.79,0,0,0,1.187,2.017,5.234,5.234,0,0,0,1.841,1.284,6.335,6.335,0,0,0,2.46.454A6.614,6.614,0,0,0-55-4.835,6.241,6.241,0,0,0-53.285-5.9l.506-.483,2.194,4.753-.295.245a8.442,8.442,0,0,1-1.379.842,12.338,12.338,0,0,1-2.4.909A10.961,10.961,0,0,1-57.577.734Zm-.554-21.81a10.287,10.287,0,0,0-4.039.772,9.07,9.07,0,0,0-3.121,2.171A9.757,9.757,0,0,0-67.3-14.793a12.524,12.524,0,0,0-.709,4.295,11,11,0,0,0,.693,3.912,9.811,9.811,0,0,0,2,3.229,9.407,9.407,0,0,0,3.2,2.216A11.571,11.571,0,0,0-57.8-.268l.223,0A9.964,9.964,0,0,0-54.929-.6a11.351,11.351,0,0,0,2.207-.831c.417-.218.7-.383.895-.507l-1.3-2.808a8.637,8.637,0,0,1-1.467.82,7.6,7.6,0,0,1-3.135.6,7.325,7.325,0,0,1-2.847-.532,6.227,6.227,0,0,1-2.19-1.529,6.783,6.783,0,0,1-1.394-2.362,8.954,8.954,0,0,1-.478-2.979A7.688,7.688,0,0,1-64.1-13.6a7.506,7.506,0,0,1,1.445-2.314,6.613,6.613,0,0,1,2.133-1.552,6.1,6.1,0,0,1,2.541-.552,6.7,6.7,0,0,1,2.991.646,15,15,0,0,1,1.484.829l1.249-3a13.963,13.963,0,0,0-2.235-.981A11.009,11.009,0,0,0-58.13-21.076ZM27.652.732a11.225,11.225,0,0,1-4.43-.881A11.446,11.446,0,0,1,19.6-2.59a11.446,11.446,0,0,1-2.441-3.623,11.225,11.225,0,0,1-.881-4.43,11.08,11.08,0,0,1,.881-4.372A11.8,11.8,0,0,1,19.6-18.664a11.613,11.613,0,0,1,3.621-2.5,10.916,10.916,0,0,1,4.436-.913,10.845,10.845,0,0,1,4.407.913,11.968,11.968,0,0,1,3.646,2.5,11.756,11.756,0,0,1,2.483,3.649,10.925,10.925,0,0,1,.9,4.375,11.068,11.068,0,0,1-.9,4.433A11.412,11.412,0,0,1,35.7-2.587,11.8,11.8,0,0,1,32.053-.149,11.153,11.153,0,0,1,27.652.732Zm0-21.808a9.923,9.923,0,0,0-4.032.827,10.617,10.617,0,0,0-3.31,2.285,10.8,10.8,0,0,0-2.231,3.34,10.085,10.085,0,0,0-.8,3.98,10.231,10.231,0,0,0,.8,4.038A10.451,10.451,0,0,0,20.306-3.3a10.451,10.451,0,0,0,3.308,2.228,10.231,10.231,0,0,0,4.038.8,10.158,10.158,0,0,0,4.009-.8A10.8,10.8,0,0,0,35-3.3,10.417,10.417,0,0,0,37.27-6.608a10.074,10.074,0,0,0,.814-4.035,9.931,9.931,0,0,0-.814-3.977A10.761,10.761,0,0,0,35-17.96a10.972,10.972,0,0,0-3.343-2.289A9.852,9.852,0,0,0,27.652-21.076ZM-14.109.732A9.706,9.706,0,0,1-18.677-.355,8.643,8.643,0,0,1-21.983-3.37,8.077,8.077,0,0,1-23.222-7.8V-21.844h5.2V-7.888a2.973,2.973,0,0,0,.527,1.669,4.254,4.254,0,0,0,1.442,1.35,3.814,3.814,0,0,0,1.939.513,4.121,4.121,0,0,0,2.072-.514A4.085,4.085,0,0,0-10.6-6.215a3.032,3.032,0,0,0,.516-1.673V-21.844h5.147V-7.8A8.077,8.077,0,0,1-6.176-3.37,8.616,8.616,0,0,1-9.5-.354,9.854,9.854,0,0,1-14.109.732Zm-8.113-21.576V-7.8A7.094,7.094,0,0,0-21.14-3.909,7.656,7.656,0,0,0-18.211-1.24a8.717,8.717,0,0,0,4.1.972,8.865,8.865,0,0,0,4.148-.973A7.629,7.629,0,0,0-7.019-3.909,7.094,7.094,0,0,0-5.937-7.8V-20.844H-9.084V-7.888a4.056,4.056,0,0,1-.673,2.213A5.075,5.075,0,0,1-11.54-4a5.106,5.106,0,0,1-2.568.646A4.8,4.8,0,0,1-16.549-4a5.245,5.245,0,0,1-1.777-1.666,4,4,0,0,1-.691-2.217V-20.844ZM-37.425.732a11.226,11.226,0,0,1-4.43-.881A11.446,11.446,0,0,1-45.478-2.59a11.446,11.446,0,0,1-2.441-3.623,11.225,11.225,0,0,1-.881-4.43,11.08,11.08,0,0,1,.881-4.372,11.8,11.8,0,0,1,2.437-3.648,11.613,11.613,0,0,1,3.621-2.5,10.916,10.916,0,0,1,4.436-.913,10.845,10.845,0,0,1,4.407.913,11.967,11.967,0,0,1,3.646,2.5,11.756,11.756,0,0,1,2.483,3.649,10.925,10.925,0,0,1,.9,4.375,11.068,11.068,0,0,1-.9,4.433,11.412,11.412,0,0,1-2.487,3.623A11.8,11.8,0,0,1-33.023-.149,11.152,11.152,0,0,1-37.425.732Zm0-21.808a9.923,9.923,0,0,0-4.032.827,10.618,10.618,0,0,0-3.31,2.285A10.8,10.8,0,0,0-47-14.623a10.085,10.085,0,0,0-.8,3.98A10.231,10.231,0,0,0-47-6.605,10.451,10.451,0,0,0-44.77-3.3a10.451,10.451,0,0,0,3.308,2.228,10.231,10.231,0,0,0,4.038.8,10.158,10.158,0,0,0,4.009-.8A10.8,10.8,0,0,0-30.075-3.3a10.417,10.417,0,0,0,2.269-3.308,10.074,10.074,0,0,0,.814-4.035,9.931,9.931,0,0,0-.814-3.977,10.761,10.761,0,0,0-2.273-3.34,10.972,10.972,0,0,0-3.343-2.289A9.852,9.852,0,0,0-37.425-21.076ZM67.295.5a2.639,2.639,0,0,1-1.763-.688,2.4,2.4,0,0,1-.825-1.9,2.471,2.471,0,0,1,.811-1.874A2.555,2.555,0,0,1,67.295-4.7a2.492,2.492,0,0,1,1.719.743,2.471,2.471,0,0,1,.811,1.874A2.4,2.4,0,0,1,69-.188,2.571,2.571,0,0,1,67.295.5Zm0-4.2A1.567,1.567,0,0,0,66.2-3.23a1.487,1.487,0,0,0-.494,1.142,1.423,1.423,0,0,0,.48,1.145A1.646,1.646,0,0,0,67.295-.5a1.583,1.583,0,0,0,1.05-.443,1.423,1.423,0,0,0,.48-1.145,1.487,1.487,0,0,0-.494-1.142A1.511,1.511,0,0,0,67.295-3.7ZM4.343.5H-.862V-21.844H6.1a10.725,10.725,0,0,1,4.684.934,6.891,6.891,0,0,1,3,2.688,7.849,7.849,0,0,1,1.027,4.069,9.731,9.731,0,0,1-.412,2.767,7.523,7.523,0,0,1-1.335,2.562,6.605,6.605,0,0,1-2.475,1.869,9.022,9.022,0,0,1-3.73.7H4.343ZM.138-.5H3.343V-7.257H6.859a8.046,8.046,0,0,0,3.317-.608,5.618,5.618,0,0,0,2.107-1.582,6.527,6.527,0,0,0,1.159-2.223,8.733,8.733,0,0,0,.371-2.482,6.867,6.867,0,0,0-.887-3.558,5.909,5.909,0,0,0-2.572-2.3A9.747,9.747,0,0,0,6.1-20.844H.138ZM27.8-3.328a7.051,7.051,0,0,1-2.823-.563A7.078,7.078,0,0,1,22.7-5.467,7.362,7.362,0,0,1,21.172-7.8a7.43,7.43,0,0,1-.545-2.844,7.8,7.8,0,0,1,.528-2.881,7.243,7.243,0,0,1,1.5-2.351A6.958,6.958,0,0,1,24.9-17.452a6.875,6.875,0,0,1,2.782-.564h0a6.875,6.875,0,0,1,2.782.564,6.8,6.8,0,0,1,2.237,1.58,7.579,7.579,0,0,1,1.491,2.343,7.616,7.616,0,0,1,.544,2.885A7.609,7.609,0,0,1,34.206-7.8a7.547,7.547,0,0,1-1.46,2.328,6.682,6.682,0,0,1-2.209,1.582A6.7,6.7,0,0,1,27.8-3.328Zm-.116-13.688a5.883,5.883,0,0,0-2.38.48,5.963,5.963,0,0,0-1.927,1.352,6.248,6.248,0,0,0-1.289,2.028,6.806,6.806,0,0,0-.458,2.513A6.435,6.435,0,0,0,22.1-8.18a6.366,6.366,0,0,0,1.318,2.017,6.083,6.083,0,0,0,1.957,1.354,6.058,6.058,0,0,0,2.426.481,5.708,5.708,0,0,0,2.334-.479,5.687,5.687,0,0,0,1.88-1.347,6.551,6.551,0,0,0,1.266-2.022,6.614,6.614,0,0,0,.457-2.468,6.622,6.622,0,0,0-.471-2.508,6.584,6.584,0,0,0-1.293-2.036,5.8,5.8,0,0,0-1.91-1.349,5.883,5.883,0,0,0-2.38-.48ZM-37.279-3.328A7.051,7.051,0,0,1-40.1-3.891,7.078,7.078,0,0,1-42.38-5.467,7.361,7.361,0,0,1-43.9-7.8a7.429,7.429,0,0,1-.545-2.844,7.8,7.8,0,0,1,.528-2.881,7.243,7.243,0,0,1,1.5-2.351,6.958,6.958,0,0,1,2.249-1.577,6.875,6.875,0,0,1,2.782-.564h0a6.875,6.875,0,0,1,2.782.564,6.8,6.8,0,0,1,2.237,1.58,7.579,7.579,0,0,1,1.491,2.343,7.616,7.616,0,0,1,.544,2.885A7.608,7.608,0,0,1-30.87-7.8a7.546,7.546,0,0,1-1.46,2.328,6.682,6.682,0,0,1-2.209,1.582A6.7,6.7,0,0,1-37.279-3.328ZM-37.4-17.016a5.883,5.883,0,0,0-2.38.48A5.963,5.963,0,0,0-41.7-15.184a6.248,6.248,0,0,0-1.289,2.028,6.806,6.806,0,0,0-.458,2.513,6.435,6.435,0,0,0,.47,2.463,6.366,6.366,0,0,0,1.318,2.017,6.083,6.083,0,0,0,1.957,1.354,6.058,6.058,0,0,0,2.426.481,5.708,5.708,0,0,0,2.334-.479,5.688,5.688,0,0,0,1.88-1.347A6.551,6.551,0,0,0-31.8-8.175a6.614,6.614,0,0,0,.457-2.468,6.622,6.622,0,0,0-.471-2.509,6.584,6.584,0,0,0-1.293-2.036,5.8,5.8,0,0,0-1.91-1.349,5.883,5.883,0,0,0-2.38-.48ZM67.295-7.765a2.639,2.639,0,0,1-1.763-.688,2.4,2.4,0,0,1-.825-1.9,2.471,2.471,0,0,1,.811-1.874,2.555,2.555,0,0,1,1.777-.743,2.492,2.492,0,0,1,1.719.743,2.47,2.47,0,0,1,.811,1.874A2.4,2.4,0,0,1,69-8.453,2.571,2.571,0,0,1,67.295-7.765Zm0-4.2A1.567,1.567,0,0,0,66.2-11.5a1.487,1.487,0,0,0-.494,1.142,1.423,1.423,0,0,0,.48,1.145,1.646,1.646,0,0,0,1.108.443,1.583,1.583,0,0,0,1.05-.443,1.423,1.423,0,0,0,.48-1.145,1.487,1.487,0,0,0-.494-1.142A1.511,1.511,0,0,0,67.295-11.97ZM6.83-10.346H3.343v-7.438H6.859a4,4,0,0,1,2,.444,3.076,3.076,0,0,1,1.154,1.11,3.972,3.972,0,0,1,.479,1.245,5.28,5.28,0,0,1,.11.948,3.966,3.966,0,0,1-.179,1.1,4,4,0,0,1-.6,1.21,3.293,3.293,0,0,1-1.176.993A3.923,3.923,0,0,1,6.83-10.346Zm-2.487-1H6.83a2.951,2.951,0,0,0,1.363-.277,2.306,2.306,0,0,0,.825-.689,3,3,0,0,0,.449-.907,3.047,3.047,0,0,0,.14-.818,4.419,4.419,0,0,0-.093-.763,2.979,2.979,0,0,0-.362-.93,2.1,2.1,0,0,0-.789-.746,3.042,3.042,0,0,0-1.5-.31H4.343Z" transform="translate(111 472)" fill="rgba(0,0,0,0)"/>
    <text id="_FIRST-SIP" data-name=" FIRST-SIP" transform="translate(263 473)" fill="#143d3d" font-size="31" font-family="JosefinSans-Regular, Josefin Sans"><tspan x="-74.602" y="0" xml:space="preserve"> FIRST-SIP</tspan></text>
    <path id="_FIRST-SIP_-_Outline" data-name=" FIRST-SIP - Outline" d="M-7.464-23.037h.008a13.206,13.206,0,0,1,3.98.55A13.971,13.971,0,0,1-.437-21.135l.392.239-1.579,3.157-.45-.231a15.9,15.9,0,0,0-2.434-.991,8.307,8.307,0,0,0-2.514-.41,4.069,4.069,0,0,0-2.559.731,2.2,2.2,0,0,0-.878,1.838,2.011,2.011,0,0,0,.547,1.441,5.381,5.381,0,0,0,1.646,1.145c.729.344,1.5.673,2.291.977.712.272,1.424.58,2.116.916A8.337,8.337,0,0,1-1.9-11a5.878,5.878,0,0,1,1.424,2,7.185,7.185,0,0,1,.523,2.9A6.619,6.619,0,0,1-.905-2.624,6.644,6.644,0,0,1-3.633-.143,9.039,9.039,0,0,1-7.766.748,12.084,12.084,0,0,1-10.725.392a14.214,14.214,0,0,1-2.587-.916A17.581,17.581,0,0,1-15.418-1.69l-.392-.257,1.836-3.245.452.32a12.6,12.6,0,0,0,1.64.968,10.836,10.836,0,0,0,1.926.741,7.126,7.126,0,0,0,1.911.276,5.476,5.476,0,0,0,1.918-.356A3.6,3.6,0,0,0-4.613-4.291,2.7,2.7,0,0,0-4.05-6.107a2.461,2.461,0,0,0-.5-1.6A4.71,4.71,0,0,0-5.99-8.877,17.517,17.517,0,0,0-8.04-9.826c-.7-.269-1.432-.57-2.16-.892a10.839,10.839,0,0,1-2.113-1.235,5.817,5.817,0,0,1-1.627-1.881,5.627,5.627,0,0,1-.619-2.719,6.067,6.067,0,0,1,.933-3.356,6.458,6.458,0,0,1,2.533-2.251,8.508,8.508,0,0,1,3.621-.876Zm6.109,2.526a13.494,13.494,0,0,0-2.424-1.022,12.209,12.209,0,0,0-3.669-.5,7.515,7.515,0,0,0-3.191.767,5.471,5.471,0,0,0-2.148,1.9,5.086,5.086,0,0,0-.772,2.813,4.648,4.648,0,0,0,.5,2.241,4.823,4.823,0,0,0,1.349,1.56A9.837,9.837,0,0,0-9.8-11.633c.712.315,1.424.609,2.115.874a18.534,18.534,0,0,1,2.169,1A5.7,5.7,0,0,1-3.763-8.325,3.465,3.465,0,0,1-3.05-6.107a3.7,3.7,0,0,1-.8,2.462A4.587,4.587,0,0,1-5.777-2.306a6.472,6.472,0,0,1-2.267.419A8.124,8.124,0,0,1-10.225-2.2a11.84,11.84,0,0,1-2.1-.809,14.542,14.542,0,0,1-1.312-.739l-.832,1.471a17.561,17.561,0,0,0,1.59.848,13.214,13.214,0,0,0,2.4.851,11.084,11.084,0,0,0,2.714.326,8.056,8.056,0,0,0,3.679-.783A5.66,5.66,0,0,0-1.761-3.142,5.633,5.633,0,0,0-.95-6.107,6.21,6.21,0,0,0-1.387-8.6a4.885,4.885,0,0,0-1.18-1.661,7.338,7.338,0,0,0-1.727-1.161c-.666-.323-1.352-.62-2.037-.882-.815-.313-1.608-.652-2.36-1.007a6.368,6.368,0,0,1-1.95-1.366,3.007,3.007,0,0,1-.817-2.124A3.18,3.18,0,0,1-10.2-19.428a5.03,5.03,0,0,1,3.176-.943,9.3,9.3,0,0,1,2.818.458,17.4,17.4,0,0,1,2.134.832Zm39.213-2.526h.008a13.206,13.206,0,0,1,3.98.55,13.972,13.972,0,0,1,3.038,1.352l.393.239L43.7-17.738l-.45-.231a15.9,15.9,0,0,0-2.434-.991,8.308,8.308,0,0,0-2.514-.41,4.07,4.07,0,0,0-2.559.731,2.2,2.2,0,0,0-.878,1.838,2.011,2.011,0,0,0,.547,1.441,5.381,5.381,0,0,0,1.646,1.145c.729.344,1.5.673,2.291.977.712.272,1.424.58,2.116.916A8.337,8.337,0,0,1,43.426-11a5.878,5.878,0,0,1,1.424,2,7.185,7.185,0,0,1,.523,2.9,6.619,6.619,0,0,1-.956,3.483,6.644,6.644,0,0,1-2.727,2.48,9.039,9.039,0,0,1-4.133.891A12.084,12.084,0,0,1,34.6.392a14.212,14.212,0,0,1-2.587-.916A17.577,17.577,0,0,1,29.9-1.69l-.392-.257,1.836-3.245.452.32a12.6,12.6,0,0,0,1.64.968,10.835,10.835,0,0,0,1.926.741,7.125,7.125,0,0,0,1.911.276A5.476,5.476,0,0,0,39.2-3.243a3.6,3.6,0,0,0,1.514-1.048,2.7,2.7,0,0,0,.564-1.816,2.461,2.461,0,0,0-.5-1.6,4.71,4.71,0,0,0-1.445-1.175,17.517,17.517,0,0,0-2.049-.949c-.7-.269-1.432-.57-2.16-.892a10.839,10.839,0,0,1-2.113-1.235,5.817,5.817,0,0,1-1.627-1.881,5.627,5.627,0,0,1-.619-2.719A6.067,6.067,0,0,1,31.7-19.91a6.458,6.458,0,0,1,2.533-2.251,8.507,8.507,0,0,1,3.621-.876Zm6.109,2.526a13.5,13.5,0,0,0-2.424-1.022,12.208,12.208,0,0,0-3.669-.5,7.515,7.515,0,0,0-3.191.767,5.471,5.471,0,0,0-2.148,1.9,5.086,5.086,0,0,0-.772,2.813,4.648,4.648,0,0,0,.5,2.241,4.823,4.823,0,0,0,1.349,1.56,9.836,9.836,0,0,0,1.917,1.121c.712.315,1.424.609,2.115.874a18.533,18.533,0,0,1,2.169,1,5.7,5.7,0,0,1,1.748,1.429,3.465,3.465,0,0,1,.713,2.218,3.7,3.7,0,0,1-.8,2.462,4.588,4.588,0,0,1-1.927,1.339,6.472,6.472,0,0,1-2.267.419A8.124,8.124,0,0,1,35.1-2.2a11.839,11.839,0,0,1-2.1-.809,14.538,14.538,0,0,1-1.312-.739l-.832,1.471a17.554,17.554,0,0,0,1.59.848,13.213,13.213,0,0,0,2.4.851,11.084,11.084,0,0,0,2.714.326,8.056,8.056,0,0,0,3.679-.783,5.66,5.66,0,0,0,2.326-2.108,5.633,5.633,0,0,0,.811-2.965A6.21,6.21,0,0,0,43.935-8.6a4.885,4.885,0,0,0-1.18-1.661,7.337,7.337,0,0,0-1.727-1.161c-.666-.323-1.351-.62-2.037-.882-.815-.313-1.608-.652-2.36-1.007a6.368,6.368,0,0,1-1.95-1.366,3.007,3.007,0,0,1-.817-2.124,3.18,3.18,0,0,1,1.261-2.626,5.03,5.03,0,0,1,3.176-.943,9.305,9.305,0,0,1,2.818.458,17.4,17.4,0,0,1,2.134.832Zm-106.049-2.4h14.3v3.883H-58.075v6.161h9.021v3.852h-9.021V.5h-4.007Zm13.3,1h-12.3V-.5h2.007v-9.517h9.021v-1.852h-9.021V-20.03h10.292Zm4.96-1h4.007V.5h-4.007Zm3.007,1h-2.007V-.5h2.007Zm6.448-1h6.452a11.072,11.072,0,0,1,3.3.472,7.842,7.842,0,0,1,2.681,1.425,6.714,6.714,0,0,1,1.808,2.343,7.49,7.49,0,0,1,.652,3.2,9.422,9.422,0,0,1-.409,2.75,6.835,6.835,0,0,1-1.387,2.491,6.655,6.655,0,0,1-1.691,1.385L-17.158.5H-21.8l-5.265-8.254c-.156.005-.315.008-.475.008h-2.817V.5h-4.007ZM-23.5-9.693a5.674,5.674,0,0,0,1.464-1.19,5.841,5.841,0,0,0,1.186-2.128,8.422,8.422,0,0,0,.366-2.458,6.5,6.5,0,0,0-.557-2.779,5.722,5.722,0,0,0-1.54-2,6.849,6.849,0,0,0-2.341-1.241,10.076,10.076,0,0,0-3-.427h-5.452V-.5h2.007V-8.746H-27.7l-.677-1.062,4.736-.124Zm-3.046.906q.369-.031.713-.087l-.756.02Zm2.684.4-.006-.01a8.016,8.016,0,0,1-2.077.546L-21.255-.5h2.3l-4.9-7.882ZM2.305-22.913h15.88v3.883H12.171V.5H8.164V-19.03H2.305Zm14.88,1H3.305v1.883H9.164V-.5h2.007V-20.03h6.014Zm32.24-1h4.007V.5H49.425Zm3.007,1H50.425V-.5h2.007Zm6.448-1h6.483a10.255,10.255,0,0,1,4.4.87,6.643,6.643,0,0,1,2.894,2.563,7.592,7.592,0,0,1,1.019,4.011A9.255,9.255,0,0,1,73.25-12.7a7.127,7.127,0,0,1-1.383,2.5,6.757,6.757,0,0,1-2.491,1.793,9.224,9.224,0,0,1-3.671.661H62.887V.5H58.88ZM65.7-8.746a8.245,8.245,0,0,0,3.273-.579,5.769,5.769,0,0,0,2.128-1.524A6.132,6.132,0,0,0,72.3-13a8.255,8.255,0,0,0,.38-2.47A6.614,6.614,0,0,0,71.8-18.96a5.66,5.66,0,0,0-2.469-2.18,9.275,9.275,0,0,0-3.971-.773H59.88V-.5h2.007V-8.746ZM-31.361-20.03h3.972a5.019,5.019,0,0,1,2.22.454,4.466,4.466,0,0,1,1.5,1.154,4.55,4.55,0,0,1,.835,1.515,5.149,5.149,0,0,1,.256,1.563,5.515,5.515,0,0,1-.237,1.535,4.6,4.6,0,0,1-.8,1.547,4.112,4.112,0,0,1-1.566,1.186,5.858,5.858,0,0,1-2.424.448h-3.755Zm3.755,8.4a4.886,4.886,0,0,0,2.009-.358,3.129,3.129,0,0,0,1.193-.891,3.609,3.609,0,0,0,.627-1.212,4.522,4.522,0,0,0,.2-1.255,4.153,4.153,0,0,0-.209-1.258,3.555,3.555,0,0,0-.653-1.182,3.476,3.476,0,0,0-1.168-.892,4.04,4.04,0,0,0-1.779-.352h-2.972v7.4Zm89.493-8.4h3.972a5.256,5.256,0,0,1,2.244.435,4.4,4.4,0,0,1,1.5,1.121,4.183,4.183,0,0,1,.826,1.513,5.454,5.454,0,0,1,.238,1.553,5.334,5.334,0,0,1-.237,1.473,4.951,4.951,0,0,1-.792,1.569A4.261,4.261,0,0,1,68.1-11.116a5.42,5.42,0,0,1-2.425.487H61.887Zm3.786,8.4a4.45,4.45,0,0,0,1.977-.381,3.275,3.275,0,0,0,1.186-.952,3.955,3.955,0,0,0,.634-1.252,4.35,4.35,0,0,0,.2-1.193,4.456,4.456,0,0,0-.2-1.268,3.189,3.189,0,0,0-.631-1.153,3.407,3.407,0,0,0-1.165-.863,4.28,4.28,0,0,0-1.817-.34H62.887v7.4Zm-45.3,3.193h6.8v3.542h-6.8Zm5.8,1h-4.8v1.542h4.8Z" transform="translate(263 473)" fill="rgba(0,0,0,0)"/>
    <g id="Group_99" data-name="Group 99" transform="translate(331.081 177.081)">
      <path id="Line_18" data-name="Line 18" d="M12.162,13.162a1,1,0,0,1-.707-.293L-.707.707a1,1,0,0,1,0-1.414,1,1,0,0,1,1.414,0L12.869,11.455a1,1,0,0,1-.707,1.707Z" transform="translate(0 0)" fill="#70acac"/>
      <path id="Line_19" data-name="Line 19" d="M0,13.162a1,1,0,0,1-.707-.293,1,1,0,0,1,0-1.414L11.455-.707a1,1,0,0,1,1.414,0,1,1,0,0,1,0,1.414L.707,12.869A1,1,0,0,1,0,13.162Z" transform="translate(0 0)" fill="#70acac"/>
    </g>
  </g>
</svg>
