<svg xmlns="http://www.w3.org/2000/svg" xmlns:xlink="http://www.w3.org/1999/xlink" width="375" height="667" viewBox="0 0 375 667">
  <defs>
    <clipPath id="clip-HomePage_Marketting">
      <rect width="375" height="667"/>
    </clipPath>
  </defs>
  <g id="HomePage_Marketting" data-name="HomePage / Marketting" clip-path="url(#clip-HomePage_Marketting)">
    <rect width="375" height="667" fill="#fff"/>
    <text id="THIS_IS_MY_MARKETTING_MESSAGE" data-name="THIS IS MY MARKETTING MESSAGE" transform="translate(0 259)" font-size="40" font-family="SegoeUI-Semibold, Segoe UI" font-weight="600"><tspan x="84.795" y="43">THIS IS MY </tspan><tspan x="60.391" y="96">MARKETTING </tspan><tspan x="96.895" y="149">MESSAGE</tspan></text>
    <g id="Button_-_Learn_More" data-name="Button - Learn More" transform="translate(124.188 552.186)">
      <rect id="Rectangle_3" data-name="Rectangle 3" width="126" height="34" rx="15" transform="translate(-0.188 -0.186)" fill="#75ffb1"/>
      <path id="Rectangle_3_-_Outline" data-name="Rectangle 3 - Outline" d="M15,2A13,13,0,0,0,2,15v4A13,13,0,0,0,15,32h96a13,13,0,0,0,13-13V15A13,13,0,0,0,111,2H15m0-2h96a15,15,0,0,1,15,15v4a15,15,0,0,1-15,15H15A15,15,0,0,1,0,19V15A15,15,0,0,1,15,0Z" transform="translate(-0.188 -0.186)"/>
      <text id="Learn_More" data-name="Learn More" transform="translate(63.812 21.814)" font-size="18" font-family="SegoeUI-Semibold, Segoe UI" font-weight="600"><tspan x="-46.661" y="0">Learn More</tspan></text>
    </g>
    <g id="Button_-_Order_Now" data-name="Button - Order Now" transform="translate(66.326 466.442)">
      <g id="Group_3" data-name="Group 3" transform="translate(-0.326 -0.442)">
        <rect id="Rectangle_3-2" data-name="Rectangle 3" width="242" height="69" rx="15" transform="translate(0 0)" fill="#75ffb1"/>
        <path id="Rectangle_3_-_Outline-2" data-name="Rectangle 3 - Outline" d="M15,2A13,13,0,0,0,2,15V54A13,13,0,0,0,15,67H227a13,13,0,0,0,13-13V15A13,13,0,0,0,227,2H15m0-2H227a15,15,0,0,1,15,15V54a15,15,0,0,1-15,15H15A15,15,0,0,1,0,54V15A15,15,0,0,1,15,0Z" transform="translate(0 0)"/>
        <text id="Order_Now" data-name="Order Now" transform="translate(118 44)" font-size="37" font-family="SegoeUI-Semibold, Segoe UI" font-weight="600"><tspan x="-92.807" y="0">Order Now</tspan></text>
      </g>
    </g>
    <rect id="Bg_Image" data-name="Bg Image" width="302" height="163" rx="15" transform="translate(34 76)" fill="#75ffb1"/>
    <path id="Bg_Image_-_Outline" data-name="Bg Image - Outline" d="M15,2A13,13,0,0,0,2,15V148a13,13,0,0,0,13,13H287a13,13,0,0,0,13-13V15A13,13,0,0,0,287,2H15m0-2H287a15,15,0,0,1,15,15V148a15,15,0,0,1-15,15H15A15,15,0,0,1,0,148V15A15,15,0,0,1,15,0Z" transform="translate(34 76)"/>
    <path id="Path_1" data-name="Path 1" transform="translate(50.5 92.5)"/>
    <text id="GREEN_TEA" data-name="GREEN TEA" transform="translate(17 37)" font-size="20" font-family="SegoeUI-Semibold, Segoe UI" font-weight="600"><tspan x="0" y="0">GREEN TEA</tspan></text>
    <g id="Group_8" data-name="Group 8" transform="translate(299.476 204.785)">
      <g id="Group_9" data-name="Group 9" transform="translate(0 0)">
        <ellipse id="Ellipse_1" data-name="Ellipse 1" cx="10.5" cy="8.5" rx="10.5" ry="8.5" transform="translate(-0.475 5.215)" fill="#75ffb1"/>
        <path id="Ellipse_1_-_Outline" data-name="Ellipse 1 - Outline" d="M10.5,1C5.262,1,1,4.364,1,8.5S5.262,16,10.5,16,20,12.636,20,8.5,15.738,1,10.5,1m0-1C16.3,0,21,3.806,21,8.5S16.3,17,10.5,17,0,13.194,0,8.5,4.7,0,10.5,0Z" transform="translate(-0.475 5.215)"/>
        <text id="_" data-name="+" transform="translate(10.524 16.215)" font-size="15" font-family="SegoeUI-Semibold, Segoe UI" font-weight="600"><tspan x="-5.208" y="0">+</tspan></text>
      </g>
    </g>
    <g id="Group_10" data-name="Group 10" transform="translate(158.648 137.033)">
      <path id="Path_1016" data-name="Path 1016" d="M2652.854,3099.524a1.508,1.508,0,0,0-.054-.377c-.5-3.276-2.967-4.577-6.2-4.611q-5.079-.054-10.158-.078c-8.665-.041-17.333-.037-26,.167-3.227.075-7.137-.264-8.519,3.358a10.065,10.065,0,0,0-.329,3.666l.057,14.315c.018,4.357-.016,8.718.053,13.075a5.562,5.562,0,0,0,1.936,4.658c1.448,1.13,3.155,1.105,4.919,1.189,2.334.11,4.666.2,7,.226,4.8.043,9.6-.09,14.4-.1,4.555-.01,9.153.189,13.7-.092,3.33-.206,7.849.068,9.209-3.71a10.2,10.2,0,0,0,.292-3.614Q2653.01,3113.559,2652.854,3099.524Zm-48.376.248c.306-2.576,2.99-2.212,4.957-2.262s3.952-.088,5.927-.117q6.48-.095,12.96-.091,5.972-.006,11.943.038c2.369.016,9.374-1.048,9.7,2.184q.1,8.969.2,17.938-2.313-2.137-4.649-4.25c-1.463-1.318-3.055-3.1-5.173-3.238-2.091-.135-3.777,1.325-5.291,2.56a45.367,45.367,0,0,0-4.723,4.441,30.561,30.561,0,0,0-10.048-7.126c-3.577-1.394-5.559.781-7.969,3.085l-7.75,7.408-.051-12.652A66.525,66.525,0,0,1,2604.479,3099.772Zm45.817,29.681c-.35,3.373-7.156,2.686-9.75,2.7-4.186.021-8.373-.014-12.558.008-4.141.021-8.282.13-12.424.094-1.817-.016-3.631-.073-5.446-.153-2.049-.092-5.17.393-5.518-2.307a34.021,34.021,0,0,1-.079-5.455c.036-.03.074-.052.11-.086l7.378-7.052c1.314-1.256,2.587-2.729,4.024-3.846,2.1-1.633,3.54-.826,5.493.41,5.4,3.42,9.685,8.353,13.91,13.052,1.239,1.378,3.277-.651,2.043-2.022-1.634-1.817-3.349-3.816-5.172-5.771,2.166-2.495,6.249-6.91,8.7-5.812,1.643.735,3.174,2.662,4.5,3.87q2.365,2.155,4.7,4.339A67.487,67.487,0,0,1,2650.3,3129.453Z" transform="translate(-2601.58 -3094.438)"/>
      <path id="Path_1016_-_Outline" data-name="Path 1016 - Outline" d="M2628.646,3093.938h0c2.353,0,4.829.006,7.794.02,3.3.015,6.724.041,10.161.078a7.865,7.865,0,0,1,4.405,1.177,5.42,5.42,0,0,1,2.283,3.833,2,2,0,0,1,.064.472q.094,8.46.188,16.92l.124,11.151c0,.188.007.381.011.568a8.691,8.691,0,0,1-.332,3.222c-1.321,3.668-5.3,3.843-8.494,3.983-.4.018-.785.034-1.156.057-1.676.1-3.5.152-5.746.152-1.276,0-2.573-.015-3.826-.03s-2.538-.03-3.8-.03h-.356c-1.969,0-3.972.03-5.909.054-2.133.027-4.338.055-6.509.055-.7,0-1.35,0-1.989-.009-2.426-.022-4.809-.122-7.022-.226l-.437-.019a7.746,7.746,0,0,1-4.766-1.275,6.063,6.063,0,0,1-2.128-5.045c-.046-2.9-.046-5.852-.046-8.7,0-1.435,0-2.918-.006-4.377l-.057-14.315c0-.189,0-.385-.008-.575a8.56,8.56,0,0,1,.369-3.27,5.07,5.07,0,0,1,3.447-3.188,16.308,16.308,0,0,1,4.591-.478c.324,0,.631-.007.937-.014C2615.867,3094,2621.655,3093.938,2628.646,3093.938Zm9.3,40.633c2.223,0,4.029-.048,5.684-.15.379-.023.765-.041,1.173-.058,3.048-.134,6.5-.285,7.6-3.323a7.819,7.819,0,0,0,.273-2.859c0-.19-.009-.387-.011-.581l-.124-11.151q-.093-8.46-.187-16.92a1.008,1.008,0,0,0-.037-.254l-.007-.026,0-.027c-.415-2.742-2.338-4.15-5.714-4.186-3.436-.037-6.852-.063-10.155-.078-2.963-.014-5.439-.02-7.79-.02h0c-6.983,0-12.763.06-18.19.187-.312.007-.636.011-.949.014-2.943.032-5.986.065-7.114,3.022a7.7,7.7,0,0,0-.3,2.9c0,.193.007.393.008.589l.057,14.315c.006,1.46.006,2.945.006,4.381,0,2.849,0,5.795.046,8.688.032,2.039.57,3.356,1.743,4.272a6.888,6.888,0,0,0,4.193,1.064l.442.019c2.2.1,4.574.2,6.984.225.637.006,1.284.009,1.98.009,2.164,0,4.366-.028,6.5-.055,1.94-.024,3.945-.05,5.919-.054,1.385,0,2.8.013,4.171.029C2635.386,3134.556,2636.679,3134.571,2637.95,3134.571Zm6.587-37.886a12.121,12.121,0,0,1,3.769.461,2.753,2.753,0,0,1,2.156,2.327l0,.044q.057,5.158.114,10.316l.1,8.782-.852-.787c-1.808-1.67-3.284-3.02-4.644-4.246-.206-.186-.409-.375-.625-.576-1.279-1.194-2.6-2.428-4.246-2.534-.079-.005-.158-.008-.237-.008-1.7,0-3.131,1.168-4.513,2.3l-.193.158a44.986,44.986,0,0,0-4.671,4.393l-.352.382-.368-.366c-3.571-3.551-6.709-5.78-9.877-7.015a5.344,5.344,0,0,0-1.954-.4c-1.969,0-3.424,1.4-5.109,3.021l-.379.364-2.619,2.5-5.131,4.9-.841.8-.056-13.815c0-.839-.04-1.687-.079-2.584a33.924,33.924,0,0,1,.051-5.4c.32-2.7,2.891-2.7,4.592-2.7h.21c.208,0,.428,0,.639-.006,1.822-.047,3.763-.086,5.933-.117,3.9-.057,8.14-.087,12.967-.091h1.277c3.4,0,6.887.013,10.67.039h.052c.393,0,.914-.028,1.517-.061C2642.657,3096.735,2643.584,3096.685,2644.537,3096.685Zm4.928,2.868c-.143-1.257-1.755-1.868-4.928-1.868-.925,0-1.838.049-2.643.093-.618.033-1.152.062-1.571.062h-.059c-3.781-.026-7.269-.039-10.663-.039h-1.276c-4.823,0-9.06.034-12.953.091-2.166.031-4.1.07-5.922.117-.223.006-.451.006-.665.006h-.21c-1.981,0-3.4.13-3.6,1.815a33.187,33.187,0,0,0-.045,5.234c.038.867.076,1.764.08,2.623l.047,11.488,4.29-4.1,2.619-2.5.376-.361c1.764-1.7,3.43-3.3,5.8-3.3a6.319,6.319,0,0,1,2.317.473,29.869,29.869,0,0,1,9.851,6.875,46.052,46.052,0,0,1,4.422-4.112l.192-.157c1.447-1.183,3.086-2.523,5.146-2.523.1,0,.2,0,.3.01,2,.129,3.522,1.549,4.864,2.8.212.2.412.384.612.564,1.144,1.031,2.368,2.147,3.8,3.468l-.072-6.463Q2649.522,3104.7,2649.465,3099.553Zm-31.15,12.383a6.657,6.657,0,0,1,3.477,1.4c5.147,3.259,9.282,7.867,13.281,12.323l.734.817a.778.778,0,0,0,.582.294,1.055,1.055,0,0,0,.886-.645.89.89,0,0,0-.168-1c-.573-.638-1.145-1.284-1.749-1.968-1.1-1.244-2.236-2.53-3.417-3.8l-.307-.329.3-.34c2.294-2.643,5.644-6.156,8.237-6.156a2.541,2.541,0,0,1,1.046.216,12.87,12.87,0,0,1,3.487,2.829c.4.41.782.8,1.145,1.128,1.469,1.338,3.008,2.759,4.708,4.343l.155.145,0,.212c.015.8.054,1.631.093,2.437a37.983,37.983,0,0,1-.01,5.658c-.135,1.3-1.049,2.206-2.719,2.706a16.113,16.113,0,0,1-4.534.49c-.636,0-1.245-.015-1.783-.029-.438-.011-.816-.021-1.138-.021h-.072c-.933,0-1.955.007-3.122.007q-1.553,0-3.107,0t-3.105,0c-1.225,0-2.25,0-3.224.008-1.55.008-3.128.029-4.653.049-1.966.026-4,.052-6,.052-.615,0-1.214,0-1.778-.008-1.682-.015-3.469-.065-5.464-.154-.3-.014-.635-.014-.985-.015a9.848,9.848,0,0,1-3.031-.316,2.749,2.749,0,0,1-1.976-2.412,32.643,32.643,0,0,1-.093-5.265l.018-.5.177-.143c.021-.017.042-.033.064-.048l.02-.014,5.589-5.343,1.784-1.705c.431-.411.868-.858,1.292-1.291a28.485,28.485,0,0,1,2.771-2.589A4.2,4.2,0,0,1,2618.315,3111.936Zm18.074,15.839a1.76,1.76,0,0,1-1.326-.625l-.735-.818c-3.954-4.405-8.042-8.96-13.072-12.146a5.964,5.964,0,0,0-2.942-1.25,3.211,3.211,0,0,0-1.976.812,27.729,27.729,0,0,0-2.671,2.5c-.429.438-.873.891-1.315,1.314l-1.784,1.705-5.557,5.312,0,.049a31.912,31.912,0,0,0,.085,5.1c.222,1.721,1.735,1.852,4.017,1.856.361,0,.7,0,1.028.016,1.982.088,3.758.138,5.428.153.562.005,1.157.008,1.77.008,1.995,0,4.024-.027,5.987-.052,1.527-.02,3.106-.041,4.661-.049.976-.005,2-.008,3.229-.008q1.553,0,3.107,0t3.105,0c1.166,0,2.185,0,3.117-.007h.076c.334,0,.737.01,1.163.021.531.013,1.134.029,1.757.029a15.949,15.949,0,0,0,4.247-.448c1.263-.378,1.92-.983,2.01-1.851a37.269,37.269,0,0,0,.006-5.507c-.035-.742-.072-1.508-.089-2.254-1.635-1.524-3.124-2.9-4.544-4.191-.383-.349-.773-.746-1.185-1.167a12.211,12.211,0,0,0-3.182-2.617,1.527,1.527,0,0,0-.638-.129c-.954,0-2.233.685-3.8,2.036a36.057,36.057,0,0,0-3.384,3.438c1.079,1.167,2.119,2.344,3.128,3.485.6.683,1.173,1.327,1.744,1.962a1.887,1.887,0,0,1,.338,2.078A2.037,2.037,0,0,1,2636.389,3127.774Z" transform="translate(-2601.58 -3094.438)" fill="rgba(0,0,0,0)"/>
      <path id="Path_1017" data-name="Path 1017" d="M2653.048,3116.309a5.61,5.61,0,0,0,5.765-5.442,5.839,5.839,0,0,0-5.775-5.772c-3.4-.042-5.326,2.436-5.406,5.6A5.419,5.419,0,0,0,2653.048,3116.309Zm-.246-8.357a2.951,2.951,0,0,1,3.121,2.915,2.67,2.67,0,0,1-2.631,2.566,2.526,2.526,0,0,1-2.771-2.734C2650.56,3109.209,2651.115,3108.026,2652.8,3107.952Z" transform="translate(-2625.451 -3100.015)"/>
      <path id="Path_1017_-_Outline" data-name="Path 1017 - Outline" d="M2653.03,3116.809a5.693,5.693,0,0,1-4.255-1.823,6.49,6.49,0,0,1-1.643-4.276v-.023a6.58,6.58,0,0,1,1.562-4.3,5.529,5.529,0,0,1,4.26-1.791h.091a6.356,6.356,0,0,1,4.421,1.865,6.148,6.148,0,0,1,1.848,4.409,5.758,5.758,0,0,1-1.892,4.255,6.46,6.46,0,0,1-4.372,1.685Zm-4.9-6.109a4.92,4.92,0,0,0,4.9,5.109h.017a5.082,5.082,0,0,0,5.267-4.944,5.313,5.313,0,0,0-5.281-5.27h-.078C2650.106,3105.594,2648.215,3107.6,2648.132,3110.7Zm4.9,3.244a2.824,2.824,0,0,1-2.211-.973,3.567,3.567,0,0,1-.8-2.261v-.023a3.851,3.851,0,0,1,.616-2.184,2.633,2.633,0,0,1,2.142-1.05,3.56,3.56,0,0,1,2.661,1.032,3.337,3.337,0,0,1,.982,2.385,2.923,2.923,0,0,1-.949,2.158,3.59,3.59,0,0,1-2.141.9C2653.232,3113.939,2653.13,3113.944,2653.031,3113.944Zm-2.008-3.244a2.054,2.054,0,0,0,2.008,2.244c.072,0,.146,0,.221-.009a2.181,2.181,0,0,0,2.172-2.071,2.344,2.344,0,0,0-.691-1.674,2.545,2.545,0,0,0-1.794-.741l-.114,0C2652.013,3108.487,2651.075,3108.775,2651.022,3110.7Z" transform="translate(-2625.451 -3100.015)" fill="rgba(0,0,0,0)"/>
    </g>
    <g id="Icon_-_Cart" data-name="Icon - Cart">
      <rect id="Rectangle_12" data-name="Rectangle 12" width="35" height="30" transform="translate(268 12)" fill="#fff"/>
      <g id="Icon_-_Cart-2" data-name="Icon - Cart" transform="translate(271.268 15.362)">
        <g id="Icon-Cart" transform="translate(0 0)">
          <path id="Fill-110" d="M-44-448.261H-61.769a.682.682,0,0,1-.645-.333.653.653,0,0,1-.059-.722l1.525-3.666-1.525-13.663H-67.4V-468.2h5.631a.81.81,0,0,1,.821.667l1.642,14.5a1.031,1.031,0,0,1-.059.389l-1.173,2.777h16.119c4.135,0,.422,1.611.422,1.611h0" transform="translate(67.798 468.599)"/>
          <path id="Fill-110_-_Outline" data-name="Fill-110 - Outline" d="M-53.6-457.463H-71.371a1.081,1.081,0,0,1-.979-.513,1.05,1.05,0,0,1-.077-1.128l1.47-3.537-1.474-13.206H-77.4V-478.2h6.029a1.2,1.2,0,0,1,1.214,1.006l1.647,14.533v.023a1.43,1.43,0,0,1-.081.522l-.948,2.245H-54.02c1.552,0,2.23.216,2.339.746.136.657-.882,1.249-1.76,1.63l-.158-.366ZM-76.6-476.645h4.885l1.576,14.12-1.565,3.761a.281.281,0,0,0,0,.32l.023.029.017.033a.321.321,0,0,0,.294.121h17.689a4.939,4.939,0,0,0,1.136-.678,5.255,5.255,0,0,0-1.474-.134H-70.74l1.407-3.332a.586.586,0,0,0,.027-.211l-1.64-14.473a.411.411,0,0,0-.426-.313H-76.6Z" transform="translate(77.4 478.2)"/>
          <path id="Fill-111" d="M-55.4-448.829l-.352-1.589,18.712-3.884v-6.65H-56.4V-462.6h20.178a.8.8,0,0,1,.821.824v8.122a.765.765,0,0,1-.645.765L-55.4-448.829" transform="translate(63.25 465.454)"/>
          <path id="Fill-111_-_Outline" data-name="Fill-111 - Outline" d="M-65.308-457.959l-.525-2.369,18.79-3.9v-5.926H-66.4V-472.6h20.576a1.208,1.208,0,0,1,1.219,1.223v8.122a1.169,1.169,0,0,1-.978,1.159Zm.427-1.751.179.809,18.972-3.98a.372.372,0,0,0,.329-.375v-8.122a.406.406,0,0,0-.424-.425H-65.6v.85h19.357v7.374Z" transform="translate(72.852 475.055)"/>
          <path id="Fill-112" d="M-28.374-428.527a3.26,3.26,0,0,1-3.226-3.237A3.26,3.26,0,0,1-28.374-435a3.26,3.26,0,0,1,3.226,3.237,3.26,3.26,0,0,1-3.226,3.237Zm0-4.885a1.662,1.662,0,0,0-.321.032,1.638,1.638,0,0,0-1.321,1.616,1.606,1.606,0,0,0,1.642,1.648,1.606,1.606,0,0,0,1.642-1.648,1.642,1.642,0,0,0-1.642-1.648Z" transform="translate(52.957 453.67)"/>
          <path id="Fill-112_-_Outline" data-name="Fill-112 - Outline" d="M-37.976-437.729a3.678,3.678,0,0,1-3.624-3.636A3.678,3.678,0,0,1-37.976-445a3.678,3.678,0,0,1,3.624,3.636A3.678,3.678,0,0,1-37.976-437.729Zm0-6.474a2.871,2.871,0,0,0-2.828,2.838,2.871,2.871,0,0,0,2.828,2.838,2.871,2.871,0,0,0,2.828-2.838A2.871,2.871,0,0,0-37.976-444.2Zm0,4.885a2,2,0,0,1-2.04-2.047,2.041,2.041,0,0,1,1.644-2.008,2.063,2.063,0,0,1,.4-.039,2.046,2.046,0,0,1,2.04,2.047A2,2,0,0,1-37.976-439.318Zm0-3.3a1.27,1.27,0,0,0-.246.025,1.243,1.243,0,0,0-1,1.224,1.206,1.206,0,0,0,1.245,1.249,1.206,1.206,0,0,0,1.245-1.249A1.248,1.248,0,0,0-37.976-442.614Z" transform="translate(62.559 463.271)"/>
          <path id="Fill-113" d="M-61.374-428.527a3.26,3.26,0,0,1-3.226-3.237A3.26,3.26,0,0,1-61.374-435a3.26,3.26,0,0,1,3.226,3.237,3.26,3.26,0,0,1-3.226,3.237Zm0-4.885a1.642,1.642,0,0,0-1.642,1.648,1.606,1.606,0,0,0,1.642,1.648,1.606,1.606,0,0,0,1.642-1.648,1.642,1.642,0,0,0-1.642-1.648Z" transform="translate(66.64 453.749)"/>
          <path id="Fill-113_-_Outline" data-name="Fill-113 - Outline" d="M-70.976-437.729a3.678,3.678,0,0,1-3.624-3.636A3.678,3.678,0,0,1-70.976-445a3.678,3.678,0,0,1,3.624,3.636A3.678,3.678,0,0,1-70.976-437.729Zm0-6.474a2.871,2.871,0,0,0-2.828,2.838,2.871,2.871,0,0,0,2.828,2.838,2.871,2.871,0,0,0,2.828-2.838A2.871,2.871,0,0,0-70.976-444.2Zm0,4.885a2,2,0,0,1-2.04-2.047,2.046,2.046,0,0,1,2.04-2.047,2.046,2.046,0,0,1,2.04,2.047A2,2,0,0,1-70.976-439.318Zm0-3.3a1.248,1.248,0,0,0-1.245,1.249,1.206,1.206,0,0,0,1.245,1.249,1.206,1.206,0,0,0,1.245-1.249A1.248,1.248,0,0,0-70.976-442.614Z" transform="translate(76.242 463.35)"/>
        </g>
      </g>
    </g>
    <g id="Icon_-_Home" data-name="Icon - Home">
      <rect id="Rectangle_16" data-name="Rectangle 16" width="35" height="30" transform="translate(176 13)" fill="#fff"/>
      <g id="Home" transform="translate(178 14.012)">
        <path id="Path_1025" data-name="Path 1025" d="M32.279,18.575,18.072,4.321a1.09,1.09,0,0,0-1.545,0L2.32,18.575a1.1,1.1,0,0,0,.773,1.872H6.371v8.772a1.1,1.1,0,0,0,1.093,1.1H27.135a1.094,1.094,0,0,0,1.093-1.1V20.447h3.279a1.1,1.1,0,0,0,.773-1.872ZM15.114,28.122V22.64a2.186,2.186,0,1,1,4.371,0v5.482Zm12.021-9.868a1.094,1.094,0,0,0-1.093,1.1v8.772H21.671V22.64a4.371,4.371,0,1,0-8.743,0v5.482H8.557V19.35a1.1,1.1,0,0,0-1.093-1.1H5.731L17.3,6.647,28.868,18.254Z" transform="translate(-1.84 -3.84)"/>
        <path id="Path_1025_-_Outline" data-name="Path 1025 - Outline" d="M26.794,30.136H7.123A1.256,1.256,0,0,1,5.87,28.879V20.268H2.752a1.257,1.257,0,0,1-.886-2.145L16.073,3.868a1.249,1.249,0,0,1,1.771,0L32.051,18.122a1.257,1.257,0,0,1-.886,2.145H28.047v8.611A1.256,1.256,0,0,1,26.794,30.136ZM16.958,3.821a.926.926,0,0,0-.66.274L2.092,18.349a.936.936,0,0,0,.66,1.6H6.19v8.932a.936.936,0,0,0,.933.936H26.794a.936.936,0,0,0,.933-.936V19.947h3.438a.936.936,0,0,0,.66-1.6L17.618,4.095A.925.925,0,0,0,16.958,3.821Zm8.9,24.122H21.17V22.3a4.212,4.212,0,1,0-8.423,0v5.643H8.056V19.011a.936.936,0,0,0-.933-.936H5L16.958,6.081,28.913,18.075H26.794a.936.936,0,0,0-.933.936Zm-4.371-.321h4.052V19.011a1.256,1.256,0,0,1,1.253-1.257h1.347L16.958,6.534,5.776,17.754H7.123a1.256,1.256,0,0,1,1.253,1.257v8.611h4.052V22.3a4.531,4.531,0,1,1,9.062,0Zm-2.186.321H14.613V22.3a2.345,2.345,0,1,1,4.691,0Zm-4.371-.321h4.052V22.3a2.026,2.026,0,1,0-4.052,0Z" transform="translate(-1.498 -3.5)"/>
      </g>
    </g>
    <g id="Icon_-_Menu" data-name="Icon - Menu">
      <rect id="Rectangle_13" data-name="Rectangle 13" width="35" height="30" transform="translate(318 13)" fill="#fff"/>
      <g id="Group_18" data-name="Group 18" transform="translate(322 20)">
        <path id="Line_1" data-name="Line 1" d="M28,1.5H0A1.5,1.5,0,0,1-1.5,0,1.5,1.5,0,0,1,0-1.5H28A1.5,1.5,0,0,1,29.5,0,1.5,1.5,0,0,1,28,1.5Z" transform="translate(0 0)"/>
        <path id="Line_2" data-name="Line 2" d="M28,1.5H0A1.5,1.5,0,0,1-1.5,0,1.5,1.5,0,0,1,0-1.5H28A1.5,1.5,0,0,1,29.5,0,1.5,1.5,0,0,1,28,1.5Z" transform="translate(0 8)"/>
        <path id="Line_3" data-name="Line 3" d="M28,1.5H0A1.5,1.5,0,0,1-1.5,0,1.5,1.5,0,0,1,0-1.5H28A1.5,1.5,0,0,1,29.5,0,1.5,1.5,0,0,1,28,1.5Z" transform="translate(0 16)"/>
      </g>
    </g>
    <g id="Icon_-_Account" data-name="Icon - Account">
      <rect id="Rectangle_14" data-name="Rectangle 14" width="35" height="30" transform="translate(224 13)" fill="#fff"/>
      <g id="Group_19" data-name="Group 19" transform="translate(228.036 14.52)">
        <path id="Icon_-_Account-2" data-name="Icon - Account" d="M27.75,14.42A13.375,13.375,0,1,0,5.095,24.062a.817.817,0,0,0,.211.192,13.265,13.265,0,0,0,18.14,0,.817.817,0,0,0,.211-.192A13.393,13.393,0,0,0,27.75,14.42ZM14.375,2.677a11.733,11.733,0,0,1,9.173,19.012,7.981,7.981,0,0,0-5.6-5.028,6.1,6.1,0,1,0-7.137,0,7.981,7.981,0,0,0-5.6,5.028A11.733,11.733,0,0,1,14.375,2.677ZM9.946,11.714a4.429,4.429,0,1,1,4.429,4.436A4.437,4.437,0,0,1,9.946,11.714ZM6.607,23.178c.251-3.075,3.5-5.351,7.768-5.351s7.517,2.276,7.768,5.351a11.6,11.6,0,0,1-15.536,0Z" transform="translate(-0.68 -1)"/>
        <path id="Icon_-_Account_-_Outline" data-name="Icon - Account - Outline" d="M13.695,0a13.733,13.733,0,0,1,9.518,23.6,1.125,1.125,0,0,1-.251.23,13.584,13.584,0,0,1-18.535,0,1.125,1.125,0,0,1-.251-.23,13.76,13.76,0,0,1-3.047-4.405A13.738,13.738,0,0,1,13.695,0Zm0,26.839a12.978,12.978,0,0,0,8.853-3.5l.021-.019.024-.015a.5.5,0,0,0,.13-.118l.014-.019.017-.016a13.056,13.056,0,1,0-18.117,0l.017.016.014.019a.5.5,0,0,0,.13.118l.024.015.021.019A12.978,12.978,0,0,0,13.695,26.839Zm0-25.162a12.051,12.051,0,0,1,9.423,19.532l-.376.477-.18-.581a7.638,7.638,0,0,0-5.391-4.815l-.62-.186.524-.38a5.781,5.781,0,1,0-6.762,0l.524.38-.62.186a7.638,7.638,0,0,0-5.391,4.815l-.18.581-.376-.477a12.1,12.1,0,0,1-1.908-3.447A12.059,12.059,0,0,1,13.695,1.677Zm9.273,18.667a11.293,11.293,0,0,0,2.111-6.6,11.384,11.384,0,1,0-22.767,0,11.293,11.293,0,0,0,2.111,6.6,6.893,6.893,0,0,1,.62-1.167A7.643,7.643,0,0,1,6.33,17.694a9.6,9.6,0,0,1,3.136-1.831A6.514,6.514,0,0,1,8,14a6.42,6.42,0,1,1,11.384,0,6.514,6.514,0,0,1-1.463,1.859,9.6,9.6,0,0,1,3.136,1.831,7.642,7.642,0,0,1,1.288,1.483A6.893,6.893,0,0,1,22.967,20.344ZM13.695,6.278a4.756,4.756,0,1,1-4.749,4.756A4.758,4.758,0,0,1,13.695,6.278Zm0,8.871a4.115,4.115,0,1,0-4.109-4.115A4.117,4.117,0,0,0,13.695,15.149Zm0,1.677a11.091,11.091,0,0,1,3.066.416,8.525,8.525,0,0,1,2.5,1.163,5.516,5.516,0,0,1,2.515,4.067l.013.159-.119.106a12.061,12.061,0,0,1-3.637,2.244,11.9,11.9,0,0,1-8.686,0,12.061,12.061,0,0,1-3.637-2.244L5.6,22.632l.013-.159a5.516,5.516,0,0,1,2.515-4.067,8.525,8.525,0,0,1,2.5-1.163A11.091,11.091,0,0,1,13.695,16.827Zm7.434,5.54A4.928,4.928,0,0,0,18.9,18.934a9.218,9.218,0,0,0-5.208-1.466,9.218,9.218,0,0,0-5.208,1.466,4.928,4.928,0,0,0-2.225,3.433,11.282,11.282,0,0,0,14.867,0Z" transform="translate(0 0)"/>
        <path id="Icon_-_Account_-_Outline-2" data-name="Icon - Account - Outline" d="M9.562-4a13.6,13.6,0,0,1,9.41,23.383.913.913,0,0,1-.239.215,13.446,13.446,0,0,1-18.367-.02.879.879,0,0,1-.232-.215A13.485,13.485,0,0,1-4,9.607,13.6,13.6,0,0,1,9.562-4Zm0,26.839A13.111,13.111,0,0,0,18.5,19.3a.759.759,0,0,0,.189-.169A13.19,13.19,0,1,0,.411,19.114a.722.722,0,0,0,.182.169A13.148,13.148,0,0,0,9.562,22.839Zm0-25.162A11.923,11.923,0,0,1,21.451,9.607a11.817,11.817,0,0,1-2.571,7.386l-.22.278-.1-.339a7.768,7.768,0,0,0-5.48-4.9l-.362-.109.306-.222a5.914,5.914,0,1,0-6.918,0l.306.222-.362.109a7.768,7.768,0,0,0-5.48,4.9l-.1.339-.22-.278A11.817,11.817,0,0,1-2.328,9.607,11.923,11.923,0,0,1,9.562-2.323ZM18.8,16.485a11.432,11.432,0,0,0,2.28-6.879,11.517,11.517,0,1,0-23.034,0,11.432,11.432,0,0,0,2.28,6.879A8.133,8.133,0,0,1,5.6,11.779a6.287,6.287,0,1,1,7.93,0A8.133,8.133,0,0,1,18.8,16.485ZM9.562,2.278A4.623,4.623,0,1,1,4.946,6.9,4.624,4.624,0,0,1,9.562,2.278Zm0,8.871A4.248,4.248,0,1,0,5.319,6.9,4.25,4.25,0,0,0,9.562,11.149Zm0,1.677c4.347,0,7.692,2.323,7.954,5.523l.008.093-.069.062a11.79,11.79,0,0,1-15.784,0L1.6,18.443l.008-.093C1.869,15.15,5.214,12.827,9.562,12.827Zm7.574,5.461c-.3-2.953-3.468-5.087-7.574-5.087s-7.271,2.134-7.574,5.087a11.416,11.416,0,0,0,15.147,0Z" transform="translate(4.133 4)"/>
      </g>
    </g>
  </g>
</svg>
