<svg xmlns="http://www.w3.org/2000/svg" xmlns:xlink="http://www.w3.org/1999/xlink" width="375" height="667" viewBox="0 0 375 667">
  <defs>
    <clipPath id="clip-Nav-Bar">
      <rect width="375" height="667"/>
    </clipPath>
  </defs>
  <g id="Nav-Bar" clip-path="url(#clip-Nav-Bar)">
    <rect width="375" height="667" fill="rgba(0,0,0,0.44)"/>
    <rect id="Rectangle_64" data-name="Rectangle 64" width="264" height="667" fill="#fff"/>
    <path id="Rectangle_64_-_Outline" data-name="Rectangle 64 - Outline" d="M1,1V666H263V1H1M0,0H264V667H0Z" fill="#707070"/>
    <text id="Green_Tea" data-name="Green Tea" transform="translate(18 37)" fill="#8c9295" font-size="22" font-family="Pacifico-Regular, Pacifico" letter-spacing="0.05em"><tspan x="0" y="0">Green </tspan><tspan y="0" font-family="JosefinSans-Regular, Josefin Sans">Tea</tspan></text>
    <text id="Home" transform="translate(67 105)" fill="#8c9295" font-size="26" font-family="JosefinSans-Regular, Josefin Sans" letter-spacing="0.05em"><tspan x="0" y="20">Home</tspan></text>
    <path id="Home_-_Outline" data-name="Home - Outline" d="M2.2.7H5.726V8.866H14.58V.7h3.5V20.5h-3.5V12.258H5.726V20.5H2.2Zm2.522,1H3.2V19.5H4.726V11.258H15.58V19.5h1.5V1.7h-1.5V9.866H4.726ZM28.7,8.294a6.672,6.672,0,0,1,3.341.819,5.833,5.833,0,0,1,2.243,2.244,6.377,6.377,0,0,1,.792,3.156,6.45,6.45,0,0,1-.791,3.167,5.784,5.784,0,0,1-2.259,2.26,6.746,6.746,0,0,1-3.352.818,6.907,6.907,0,0,1-3.291-.774,5.839,5.839,0,0,1-2.3-2.187,6.323,6.323,0,0,1-.837-3.285,6.141,6.141,0,0,1,.836-3.166,6.067,6.067,0,0,1,2.306-2.237A6.712,6.712,0,0,1,28.7,8.294ZM28.678,19.76a5.761,5.761,0,0,0,2.862-.69A4.8,4.8,0,0,0,33.415,17.2a5.463,5.463,0,0,0,.665-2.683,5.39,5.39,0,0,0-.664-2.668,4.847,4.847,0,0,0-1.865-1.864,6.174,6.174,0,0,0-5.671,0,5.08,5.08,0,0,0-1.932,1.871,5.155,5.155,0,0,0-.7,2.658,5.341,5.341,0,0,0,.7,2.773A4.852,4.852,0,0,0,25.859,19.1,5.921,5.921,0,0,0,28.678,19.76ZM66.95,8.294a5.633,5.633,0,0,1,3.868,1.374,6.814,6.814,0,0,1,2.053,3.7l.1.434-8.307,2.923a2.922,2.922,0,0,0,.681.547,3.083,3.083,0,0,0,1.606.412,3.227,3.227,0,0,0,1.182-.225,5.038,5.038,0,0,0,1.123-.615l.434-.316,1.657,2.658-.4.27a7.989,7.989,0,0,1-1.927.944,6.64,6.64,0,0,1-2.123.364,6.925,6.925,0,0,1-3.416-.8,5.678,5.678,0,0,1-2.234-2.222,6.494,6.494,0,0,1-.778-3.194,5.885,5.885,0,0,1,.881-3.149,6.579,6.579,0,0,1,2.333-2.25A6.446,6.446,0,0,1,66.95,8.294Zm4.837,4.86a5.638,5.638,0,0,0-1.633-2.738,4.6,4.6,0,0,0-3.2-1.122,5.459,5.459,0,0,0-2.766.713,5.589,5.589,0,0,0-1.983,1.91,4.9,4.9,0,0,0-.731,2.623,5.509,5.509,0,0,0,.652,2.708,4.693,4.693,0,0,0,1.848,1.834,5.945,5.945,0,0,0,2.928.677,5.644,5.644,0,0,0,1.8-.312,7.239,7.239,0,0,0,1.278-.57l-.582-.934a6.058,6.058,0,0,1-.9.442,4.223,4.223,0,0,1-1.548.295,4.111,4.111,0,0,1-2.112-.55,3.926,3.926,0,0,1-1.177-1.056l-.429.151-.942-2.354.552-.2q-.006-.129-.006-.26a4.5,4.5,0,0,1,.5-2.133,3.876,3.876,0,0,1,1.4-1.5,3.807,3.807,0,0,1,2.03-.555A3.273,3.273,0,0,1,69,10.979a4.222,4.222,0,0,1,.914,1.117l.146-.053.444.889-1.047.681-.092-.252-5.422,1.975a3.226,3.226,0,0,0,.17.521Zm-2.834-.71a3.28,3.28,0,0,0-.616-.712,2.278,2.278,0,0,0-1.569-.513,2.784,2.784,0,0,0-1.506.407,2.85,2.85,0,0,0-1.043,1.122,3.464,3.464,0,0,0-.382,1.561ZM45.656,8.32a4.76,4.76,0,0,1,1.8.323,3.468,3.468,0,0,1,1.349.957,2.906,2.906,0,0,1,.327.471,5.1,5.1,0,0,1,1.219-1.017,4.967,4.967,0,0,1,2.584-.734,3.942,3.942,0,0,1,2.857,1.038,3.683,3.683,0,0,1,1.1,2.676V20.5H53.476V12.91a2.1,2.1,0,0,0-.318-1.12,1.1,1.1,0,0,0-.912-.391,2.166,2.166,0,0,0-1.358.468,3.41,3.41,0,0,0-1.009,1.284,4.365,4.365,0,0,0-.4,1.733V20.5H46.066V12.91a1.946,1.946,0,0,0-.335-1.107,1.179,1.179,0,0,0-.947-.4,2.149,2.149,0,0,0-1.367.465,3.329,3.329,0,0,0-.983,1.291,4.287,4.287,0,0,0-.36,1.748v5.6H38.656V8.736h3.117l.1,1.172A5.046,5.046,0,0,1,45.656,8.32Zm2.8,2.727a2.023,2.023,0,0,0-.412-.8,2.445,2.445,0,0,0-.965-.681,3.771,3.771,0,0,0-1.423-.249A4.064,4.064,0,0,0,42,11.409l.017.2-.146.041-.007.013-.015-.007-.777.219-.215-.429.109-.222.012-.025-.126-1.465h-1.2V19.5h1.418V14.9a5.28,5.28,0,0,1,.446-2.152A4.318,4.318,0,0,1,42.8,11.079a3.158,3.158,0,0,1,2-.679h.028a2.138,2.138,0,0,1,1.717.818,2.953,2.953,0,0,1,.523,1.668V19.5h1.418V14.866a5.36,5.36,0,0,1,.488-2.135,4.4,4.4,0,0,1,1.305-1.654A3.174,3.174,0,0,1,52.26,10.4h.028a2.056,2.056,0,0,1,1.7.831,3.083,3.083,0,0,1,.488,1.655V19.5h1.418V12.049a2.681,2.681,0,0,0-.8-1.973,2.944,2.944,0,0,0-2.161-.756,3.981,3.981,0,0,0-2.07.592,4.12,4.12,0,0,0-1.352,1.311l.045.269-1.97,1.182.849-1.593ZM28.652,10.3a3.789,3.789,0,0,1,2.076.586,4.012,4.012,0,0,1,1.409,1.542,4.74,4.74,0,0,1,0,4.233,3.916,3.916,0,0,1-1.414,1.532,3.854,3.854,0,0,1-2.071.57,3.76,3.76,0,0,1-2.019-.57A4.114,4.114,0,0,1,25.2,16.667a4.527,4.527,0,0,1-.016-4.223A4.219,4.219,0,0,1,26.6,10.9,3.683,3.683,0,0,1,28.652,10.3Zm0,7.462a2.831,2.831,0,0,0,1.543-.418,2.89,2.89,0,0,0,1.056-1.146,3.742,3.742,0,0,0,0-3.307,2.984,2.984,0,0,0-1.061-1.162,2.768,2.768,0,0,0-1.538-.428,2.663,2.663,0,0,0-1.507.438,3.186,3.186,0,0,0-1.082,1.184,3.528,3.528,0,0,0,.01,3.265,3.084,3.084,0,0,0,1.088,1.157A2.738,2.738,0,0,0,28.652,17.758Z" transform="translate(67 105)" fill="rgba(0,0,0,0)"/>
    <text id="My_Account_" data-name="My Account " transform="translate(67 188)" fill="#8c9295" font-size="26" font-family="JosefinSans-Regular, Josefin Sans" letter-spacing="0.05em"><tspan x="0" y="20">My Account </tspan></text>
    <path id="My_Account_-_Outline" data-name="My Account  - Outline" d="M31.138,25.674h-3.49l2.674-6L25.1,8.736h3.846L32.091,15.7l3.1-6.962h3.324Zm-1.95-1h1.294l2.193-5.035L30.93,20.763ZM32.1,18.142l-.425.954.663-.427ZM26.689,9.736l4.168,8.734.69-1.549L28.3,9.736Zm5.953,7.182.62,1.374,3.727-8.556H35.841Zm82.98,4a3.86,3.86,0,0,1-2.748-1.034,3.726,3.726,0,0,1-1.157-2.672V8.736h3.418v7.583a1.882,1.882,0,0,0,.391,1.125,1.381,1.381,0,0,0,1.065.392,2.141,2.141,0,0,0,1.32-.434,3.366,3.366,0,0,0,1-1.271,4.315,4.315,0,0,0,.393-1.877V8.736h3.418V20.5h-3.172l-.087-1.11q-.068.068-.139.133a5.29,5.29,0,0,1-1.65,1.02A5.583,5.583,0,0,1,115.622,20.916Zm-2.906-3.733a2.721,2.721,0,0,0,.844,1.973,2.855,2.855,0,0,0,2.062.76,4.589,4.589,0,0,0,1.689-.3,4.3,4.3,0,0,0,1.34-.826,3.346,3.346,0,0,0,.7-.893l-.039-.493a4.019,4.019,0,0,1-.8.8,3.15,3.15,0,0,1-1.924.632h-.013a2.321,2.321,0,0,1-1.814-.752,2.886,2.886,0,0,1-.622-1.721V9.736h-1.418Zm7.762,2.317h1.248V9.736h-1.418v4.518a5.3,5.3,0,0,1-.491,2.309,4.887,4.887,0,0,1-.494.822l.967-.171.176.634-.066.159-.033.077v0h0Zm-18.74,1.26a6.908,6.908,0,0,1-3.291-.774,5.839,5.839,0,0,1-2.3-2.187,6.324,6.324,0,0,1-.838-3.285,6.141,6.141,0,0,1,.836-3.166,6.067,6.067,0,0,1,2.306-2.237,7.169,7.169,0,0,1,6.653,0,5.833,5.833,0,0,1,2.243,2.244,6.377,6.377,0,0,1,.792,3.156,6.45,6.45,0,0,1-.791,3.167,5.784,5.784,0,0,1-2.259,2.26A6.746,6.746,0,0,1,101.738,20.76Zm.026-11.466a5.726,5.726,0,0,0-2.824.691,5.08,5.08,0,0,0-1.932,1.871,5.155,5.155,0,0,0-.7,2.658,5.341,5.341,0,0,0,.7,2.773A4.852,4.852,0,0,0,98.919,19.1a5.921,5.921,0,0,0,2.819.656,5.761,5.761,0,0,0,2.862-.69,4.8,4.8,0,0,0,1.875-1.874,5.463,5.463,0,0,0,.665-2.683,5.389,5.389,0,0,0-.664-2.668,4.847,4.847,0,0,0-1.865-1.864A5.689,5.689,0,0,0,101.764,9.294ZM88.556,20.76A7.041,7.041,0,0,1,85.228,20a5.644,5.644,0,0,1-2.264-2.152,6.288,6.288,0,0,1-.81-3.23,6.057,6.057,0,0,1,.869-3.254,5.963,5.963,0,0,1,2.269-2.14,6.3,6.3,0,0,1,3-.748,7.468,7.468,0,0,1,2.494.393A6,6,0,0,1,92.7,9.948l.359.308-1.79,2.335-.4-.309a4.61,4.61,0,0,0-1.032-.584,3.428,3.428,0,0,0-1.339-.246,2.757,2.757,0,0,0-1.47.409,2.913,2.913,0,0,0-1.069,1.125,3.36,3.36,0,0,0-.394,1.632,3.2,3.2,0,0,0,.405,1.591,2.9,2.9,0,0,0,1.113,1.135,3.247,3.247,0,0,0,1.648.414,3.339,3.339,0,0,0,1.119-.179,3.264,3.264,0,0,0,.914-.5l.386-.3,1.878,2.308-.4.314a6.241,6.241,0,0,1-1.893.991A6.908,6.908,0,0,1,88.556,20.76ZM88.3,9.476a5.309,5.309,0,0,0-2.533.63,4.976,4.976,0,0,0-1.892,1.786,5.076,5.076,0,0,0-.717,2.726,5.306,5.306,0,0,0,.672,2.724,4.658,4.658,0,0,0,1.87,1.774,6.056,6.056,0,0,0,2.86.644,5.91,5.91,0,0,0,1.87-.312A5.639,5.639,0,0,0,91.6,18.91l-.618-.76a4.223,4.223,0,0,1-2.242.608,4.233,4.233,0,0,1-2.148-.548A3.923,3.923,0,0,1,85.1,16.693a4.233,4.233,0,0,1-.531-2.075,4.348,4.348,0,0,1,.516-2.112,3.941,3.941,0,0,1,1.427-1.5,3.78,3.78,0,0,1,1.988-.554,4.417,4.417,0,0,1,1.729.326,6.238,6.238,0,0,1,.841.429l.6-.786a5.3,5.3,0,0,0-1.221-.609A6.476,6.476,0,0,0,88.3,9.476ZM75.4,20.76A7.041,7.041,0,0,1,72.072,20a5.644,5.644,0,0,1-2.264-2.152,6.287,6.287,0,0,1-.81-3.23,6.057,6.057,0,0,1,.869-3.254,5.963,5.963,0,0,1,2.269-2.14,6.3,6.3,0,0,1,3-.748,7.468,7.468,0,0,1,2.494.393,6,6,0,0,1,1.913,1.08l.359.308-1.79,2.335-.4-.309a4.611,4.611,0,0,0-1.032-.584,3.427,3.427,0,0,0-1.339-.246,2.757,2.757,0,0,0-1.47.409,2.913,2.913,0,0,0-1.069,1.125,3.36,3.36,0,0,0-.394,1.632,3.2,3.2,0,0,0,.405,1.591,2.9,2.9,0,0,0,1.113,1.135,3.247,3.247,0,0,0,1.648.414,3.339,3.339,0,0,0,1.119-.179,3.264,3.264,0,0,0,.914-.5l.386-.3,1.878,2.308-.4.314a6.242,6.242,0,0,1-1.893.991A6.908,6.908,0,0,1,75.4,20.76ZM75.14,9.476a5.309,5.309,0,0,0-2.533.63,4.976,4.976,0,0,0-1.892,1.786A5.076,5.076,0,0,0,70,14.618a5.305,5.305,0,0,0,.672,2.724,4.658,4.658,0,0,0,1.87,1.774,6.056,6.056,0,0,0,2.86.644,5.91,5.91,0,0,0,1.87-.312,5.639,5.639,0,0,0,1.172-.538l-.618-.76a4.223,4.223,0,0,1-2.242.608,4.232,4.232,0,0,1-2.148-.548,3.923,3.923,0,0,1-1.487-1.517,4.233,4.233,0,0,1-.531-2.075,4.348,4.348,0,0,1,.516-2.112,3.941,3.941,0,0,1,1.427-1.5,3.78,3.78,0,0,1,1.988-.554,4.417,4.417,0,0,1,1.729.326,6.238,6.238,0,0,1,.841.429l.6-.786A5.3,5.3,0,0,0,77.3,9.811,6.476,6.476,0,0,0,75.14,9.476ZM147.348,20.5H143.93V11.686h-1.976v-2.9h1.976V4h3.418V8.788h2.964v2.9h-2.964Zm-2.418-1h1.418V10.686h2.964v-.9h-2.964V5H144.93V9.788h-1.976v.9h1.976Zm-6.552,1h-3.444V12.91a1.739,1.739,0,0,0-.386-1.124,1.393,1.393,0,0,0-1.116-.385,2.4,2.4,0,0,0-1.406.432,2.994,2.994,0,0,0-1.015,1.232,4.417,4.417,0,0,0-.381,1.893V20.5h-3.418V8.736h3.12l.091,1.151a4.951,4.951,0,0,1,.98-.779,5.6,5.6,0,0,1,2.965-.788,4.06,4.06,0,0,1,2.848,1.029,3.594,3.594,0,0,1,1.162,2.686V20.5Zm-2.444-1h1.444V12.049a2.6,2.6,0,0,0-.84-1.964,3.053,3.053,0,0,0-2.17-.765,4.612,4.612,0,0,0-2.443.642,3.639,3.639,0,0,0-1.381,1.45l.033.411-.984.161-.145-.581.068-.156.01-.024-.118-1.487h-1.2V19.5h1.418V14.956a5.4,5.4,0,0,1,.477-2.319,4.02,4.02,0,0,1,1.351-1.628,3.412,3.412,0,0,1,1.974-.608,2.347,2.347,0,0,1,1.874.733,2.735,2.735,0,0,1,.628,1.754V19.5Zm-68.727,1H63.229l-1.94-4.94H54.719L52.7,20.5H49.142L57.778-.078H58.6l1.017,2.432L60.3,1.91l-.428,1.048Zm-3.3-1H65.7L59.333,4.268,58.617,6.02l2.5,6.356h.929l1.213,3.184h-.892Zm-13.265,0h1.382l1.61-3.94h-.356l1.061-3.184h.6l2.6-6.364-.6-1.519Zm4.481-4.94H60.9l-.465-1.184H55.611l-.484,1.184Zm.893-2.184h4.019L58.07,7.36ZM58.187,1.53,57.173,3.947l1.592-1.038ZM21.9,20.5H18.4V9.391l-6.183,8.743h-.567l-6-8.366V20.5H2.2V.1h.785l8.994,12.767L21.088.1h.81Zm-2.5-1h1.5V2.093l-8.3,11.644.754,1.07L18.4,7.66V6.324l1-.061.179,1.466-.176.249Zm-16.2,0H4.648V8.375l-.5-.7L4.68,6.251l.968.177V8.053l6.283,8.756,1.14-1.612-2.412-.471.708-.992h0L3.2,2.145Zm98.508-.742a3.761,3.761,0,0,1-2.019-.57,4.114,4.114,0,0,1-1.434-1.521,4.527,4.527,0,0,1-.016-4.223A4.219,4.219,0,0,1,99.657,10.9a3.683,3.683,0,0,1,2.055-.6,3.789,3.789,0,0,1,2.076.586,4.012,4.012,0,0,1,1.409,1.542,4.739,4.739,0,0,1,0,4.233,3.916,3.916,0,0,1-1.414,1.532A3.853,3.853,0,0,1,101.712,18.758Zm0-7.462a2.663,2.663,0,0,0-1.507.438,3.186,3.186,0,0,0-1.082,1.184,3.528,3.528,0,0,0,.01,3.265,3.084,3.084,0,0,0,1.088,1.157,2.738,2.738,0,0,0,1.491.418,2.831,2.831,0,0,0,1.543-.418,2.89,2.89,0,0,0,1.056-1.146,3.742,3.742,0,0,0,0-3.307,2.984,2.984,0,0,0-1.061-1.163A2.767,2.767,0,0,0,101.712,11.3Z" transform="translate(67 188)" fill="rgba(0,0,0,0)"/>
    <text id="My_Orders" data-name="My Orders" transform="translate(67 271)" fill="#8c9295" font-size="26" font-family="JosefinSans-Regular, Josefin Sans" letter-spacing="0.05em"><tspan x="0" y="20">My Orders</tspan></text>
    <path id="My_Orders_-_Outline" data-name="My Orders - Outline" d="M31.138,25.674h-3.49l2.674-6L25.1,8.736h3.846L32.091,15.7l3.1-6.962h3.324Zm-1.95-1h1.294l2.193-5.035L30.93,20.763ZM32.1,18.142l-.425.954.663-.427ZM26.689,9.736l4.168,8.734.69-1.549L28.3,9.736Zm5.953,7.182.62,1.374,3.727-8.556H35.841Zm74.426,3.842a6.925,6.925,0,0,1-3.416-.8,5.678,5.678,0,0,1-2.234-2.222,6.494,6.494,0,0,1-.778-3.194,5.885,5.885,0,0,1,.881-3.149,6.579,6.579,0,0,1,2.333-2.25,6.446,6.446,0,0,1,3.266-.847,5.633,5.633,0,0,1,3.868,1.374,6.814,6.814,0,0,1,2.053,3.7l.1.434-8.307,2.923a2.922,2.922,0,0,0,.681.547,3.083,3.083,0,0,0,1.606.412,3.227,3.227,0,0,0,1.182-.225,5.037,5.037,0,0,0,1.123-.615l.434-.316,1.657,2.658-.4.27a7.99,7.99,0,0,1-1.927.944A6.64,6.64,0,0,1,107.068,20.76Zm.052-11.466a5.459,5.459,0,0,0-2.766.713,5.589,5.589,0,0,0-1.983,1.91,4.9,4.9,0,0,0-.731,2.623,5.508,5.508,0,0,0,.652,2.708,4.692,4.692,0,0,0,1.848,1.834,5.945,5.945,0,0,0,2.928.677,5.644,5.644,0,0,0,1.8-.312,7.24,7.24,0,0,0,1.278-.57l-.582-.934a6.057,6.057,0,0,1-.9.442,4.222,4.222,0,0,1-1.548.295,4.111,4.111,0,0,1-2.112-.55,3.926,3.926,0,0,1-1.177-1.056l-.429.151-.942-2.354.552-.2q-.006-.129-.006-.26a4.5,4.5,0,0,1,.5-2.133,3.876,3.876,0,0,1,1.4-1.5,3.807,3.807,0,0,1,2.03-.555,3.273,3.273,0,0,1,2.227.761,4.222,4.222,0,0,1,.914,1.117l.146-.053.444.889-1.047.681-.092-.252-5.422,1.975a3.225,3.225,0,0,0,.17.521l7.679-2.7a5.637,5.637,0,0,0-1.633-2.738A4.6,4.6,0,0,0,107.12,9.294Zm-.182,1.924a2.785,2.785,0,0,0-1.506.407,2.85,2.85,0,0,0-1.043,1.122,3.464,3.464,0,0,0-.382,1.561l5.115-1.863a3.28,3.28,0,0,0-.616-.712A2.277,2.277,0,0,0,106.938,11.218ZM89.726,20.76a5.7,5.7,0,0,1-2.946-.785,5.6,5.6,0,0,1-2.1-2.223,6.849,6.849,0,0,1-.761-3.265,6.52,6.52,0,0,1,.809-3.319,5.527,5.527,0,0,1,2.213-2.14,6.527,6.527,0,0,1,3.094-.734,6.151,6.151,0,0,1,2.644.594,5.37,5.37,0,0,1,.99.6V-.624h3.392V20.5H93.646V19.454a6.982,6.982,0,0,1-.955.611A6.237,6.237,0,0,1,89.726,20.76Zm.312-11.466a5.539,5.539,0,0,0-2.626.618,4.542,4.542,0,0,0-1.817,1.76,5.54,5.54,0,0,0-.673,2.817,5.863,5.863,0,0,0,.643,2.793,4.61,4.61,0,0,0,1.725,1.833,4.717,4.717,0,0,0,2.436.645,5.25,5.25,0,0,0,2.495-.578,5.623,5.623,0,0,0,1.425-1.064v-.706a3.932,3.932,0,0,1-1.239.9,4.534,4.534,0,0,1-1.927.4,3.9,3.9,0,0,1-2.054-.58,4.323,4.323,0,0,1-1.5-1.527,4.467,4.467,0,0,1,0-4.343,4.177,4.177,0,0,1,1.49-1.489,4.012,4.012,0,0,1,2.06-.55,4.321,4.321,0,0,1,1.865.4,4.579,4.579,0,0,1,1.327.942v-.687a4,4,0,0,0-1.416-1.08A5.158,5.158,0,0,0,90.038,9.294ZM94.646,19.5h1.418V.376H94.672V10.541l.018.027.1.155-.126,1.043-.852-.051a3.744,3.744,0,0,1,.813,1.526l.017.063v2.153l-.014.058a4.3,4.3,0,0,1-.8,1.675q-.046.058-.094.114l.87-.162.36.937L94.8,18.3q-.076.1-.157.2ZM90.48,11.218a2.985,2.985,0,0,0-1.554.412,3.145,3.145,0,0,0-1.136,1.137,3.47,3.47,0,0,0,0,3.327,3.334,3.334,0,0,0,1.155,1.177,2.87,2.87,0,0,0,1.534.434,3.545,3.545,0,0,0,1.5-.3,2.909,2.909,0,0,0,1.067-.832,3.29,3.29,0,0,0,.594-1.233v-1.9a2.706,2.706,0,0,0-.611-1.1,3.569,3.569,0,0,0-1.118-.821A3.331,3.331,0,0,0,90.48,11.218Zm40.508,9.49a6.831,6.831,0,0,1-2.4-.435,4.83,4.83,0,0,1-1.983-1.349l-.261-.3,1.583-2.192.415.4a4.554,4.554,0,0,0,1.251.88,2.89,2.89,0,0,0,2.031.17,1.029,1.029,0,0,0,.487-.286.691.691,0,0,0,.142-.482.657.657,0,0,0-.211-.538,2.376,2.376,0,0,0-.8-.447c-.377-.134-.782-.262-1.2-.38l-.023-.007a5.142,5.142,0,0,1-2.242-1.362,3.234,3.234,0,0,1-.83-2.232,3.645,3.645,0,0,1,.5-1.85,3.748,3.748,0,0,1,1.464-1.4,4.78,4.78,0,0,1,2.335-.531,7.306,7.306,0,0,1,2.15.3,5.55,5.55,0,0,1,1.829.984l.351.281-1.548,2.426-.44-.465a2.331,2.331,0,0,0-.924-.6,3.637,3.637,0,0,0-1.026-.231c-.037,0-.069,0-.1,0a1.467,1.467,0,0,0-.539.1,1.213,1.213,0,0,0-.474.312.472.472,0,0,0-.13.34.658.658,0,0,0,.2.518,2.085,2.085,0,0,0,.767.425c.387.129.776.264,1.155.4a6.176,6.176,0,0,1,1.539.675,3.735,3.735,0,0,1,1.153,1.111,3.045,3.045,0,0,1,.46,1.705,4.118,4.118,0,0,1-.518,2.024,3.739,3.739,0,0,1-1.584,1.5A5.581,5.581,0,0,1,130.988,20.708Zm-3.353-2.159a3.944,3.944,0,0,0,1.305.788,5.835,5.835,0,0,0,2.048.371,4.613,4.613,0,0,0,2.122-.424,2.72,2.72,0,0,0,1.172-1.1,3.087,3.087,0,0,0,.392-1.538,2.072,2.072,0,0,0-.294-1.155,2.743,2.743,0,0,0-.849-.813,5.19,5.19,0,0,0-1.3-.568l-.031-.01c-.375-.136-.76-.271-1.144-.4a3.069,3.069,0,0,1-1.131-.641,1.658,1.658,0,0,1-.524-1.25,1.462,1.462,0,0,1,.39-1.012,2.218,2.218,0,0,1,.852-.572,2.5,2.5,0,0,1,1.055-.163,4.617,4.617,0,0,1,1.31.289,3.391,3.391,0,0,1,.839.441l.4-.624a4.407,4.407,0,0,0-1.138-.546,6.315,6.315,0,0,0-1.854-.251,3.8,3.8,0,0,0-1.851.405,2.728,2.728,0,0,0-1.084,1.022,2.622,2.622,0,0,0-.362,1.349,2.233,2.233,0,0,0,.574,1.564,4.161,4.161,0,0,0,1.8,1.078c.438.123.86.256,1.256.4a3.362,3.362,0,0,1,1.128.645,1.818,1.818,0,0,1,.139,2.438,2.025,2.025,0,0,1-.943.572,3.89,3.89,0,0,1-2.727-.219,5.167,5.167,0,0,1-1.1-.691ZM60.19,20.708a10.056,10.056,0,0,1-3.925-.767,10.241,10.241,0,0,1-3.211-2.132,9.867,9.867,0,0,1-2.177-3.2,10.138,10.138,0,0,1-.781-3.992,9.78,9.78,0,0,1,.781-3.876,10.363,10.363,0,0,1,2.171-3.223A10.47,10.47,0,0,1,56.256,1.3a9.895,9.895,0,0,1,7.842,0,10.632,10.632,0,0,1,3.219,2.21,10.441,10.441,0,0,1,2.2,3.222,9.642,9.642,0,0,1,.8,3.879,9.863,9.863,0,0,1-.8,3.943,10.089,10.089,0,0,1-2.2,3.213,10.476,10.476,0,0,1-3.221,2.157A9.845,9.845,0,0,1,60.19,20.708Zm0-19.214a8.641,8.641,0,0,0-3.528.724,9.474,9.474,0,0,0-2.9,2A9.368,9.368,0,0,0,51.8,7.132a8.786,8.786,0,0,0-.7,3.482,9.145,9.145,0,0,0,.7,3.6,8.873,8.873,0,0,0,1.957,2.881,9.246,9.246,0,0,0,2.9,1.924,9.062,9.062,0,0,0,3.537.689,8.851,8.851,0,0,0,3.508-.7,9.48,9.48,0,0,0,2.915-1.951,9.094,9.094,0,0,0,1.984-2.9,8.869,8.869,0,0,0,.713-3.545A8.648,8.648,0,0,0,68.6,7.135a9.445,9.445,0,0,0-1.988-2.914,9.636,9.636,0,0,0-2.917-2A8.578,8.578,0,0,0,60.19,1.494Zm59.6,19.006H116.4V8.736h3.122l.116,1.544a5.025,5.025,0,0,1,.405-.394,6.968,6.968,0,0,1,1.793-1.147,4.369,4.369,0,0,1,1.72-.418h.528l-.186,3.423-.5-.032c-.091-.006-.181-.009-.269-.009a3.035,3.035,0,0,0-1.59.408,3.567,3.567,0,0,0-1.279,1.278,3.273,3.273,0,0,0-.464,1.7Zm-2.392-1h1.392V15.086a4.305,4.305,0,0,1,.6-2.2,4.593,4.593,0,0,1,.388-.563l-.967.185-.185-.591.071-.169.037-.086-.144-1.924H117.4Zm2.355-7.651.035.462a4.588,4.588,0,0,1,1.236-1.061,4.015,4.015,0,0,1,1.926-.544l.072-1.319a4.64,4.64,0,0,0-.791.269,5.971,5.971,0,0,0-1.535.985A4,4,0,0,0,119.751,11.849ZM77.642,20.5H74.25V8.736h3.122l.116,1.544a5.028,5.028,0,0,1,.405-.394,6.969,6.969,0,0,1,1.793-1.147,4.369,4.369,0,0,1,1.72-.418h.528l-.186,3.423-.5-.032c-.091-.006-.181-.009-.269-.009a3.035,3.035,0,0,0-1.59.408,3.567,3.567,0,0,0-1.279,1.278,3.273,3.273,0,0,0-.464,1.7Zm-2.392-1h1.392V15.086a4.305,4.305,0,0,1,.6-2.2,4.593,4.593,0,0,1,.388-.563l-.967.185-.185-.591.071-.169.037-.086-.144-1.924H75.25Zm2.355-7.651.035.462a4.588,4.588,0,0,1,1.236-1.061,4.015,4.015,0,0,1,1.926-.544l.072-1.319a4.64,4.64,0,0,0-.791.269,5.972,5.972,0,0,0-1.535.985A4,4,0,0,0,77.605,11.849ZM21.9,20.5H18.4V9.391l-6.183,8.743h-.567l-6-8.366V20.5H2.2V.1h.785l8.994,12.767L21.088.1h.81Zm-2.5-1h1.5V2.093l-8.3,11.644.754,1.07L18.4,7.66V6.324l1-.061.179,1.466-.176.249Zm-16.2,0H4.648V8.375l-.5-.7L4.68,6.251l.968.177V8.053l6.283,8.756,1.14-1.612-2.412-.471.708-.992h0L3.2,2.145Zm57.038-1.21a7.311,7.311,0,0,1-2.957-.6,7.567,7.567,0,0,1-2.393-1.656,7.872,7.872,0,0,1-1.61-2.429A7.545,7.545,0,0,1,52.7,10.64a8.053,8.053,0,0,1,.555-2.979A7.438,7.438,0,0,1,54.84,5.2a7.748,7.748,0,0,1,2.389-1.667,7.435,7.435,0,0,1,5.892-.015,7.567,7.567,0,0,1,2.393,1.656,7.775,7.775,0,0,1,2.2,5.445,7.612,7.612,0,0,1-.586,2.99,8.116,8.116,0,0,1-1.579,2.424,7.255,7.255,0,0,1-5.3,2.262ZM60.19,3.912a6.184,6.184,0,0,0-2.551.528,6.752,6.752,0,0,0-2.083,1.453,6.443,6.443,0,0,0-1.375,2.136A7.058,7.058,0,0,0,53.7,10.64a6.551,6.551,0,0,0,.506,2.574,6.876,6.876,0,0,0,1.406,2.121,6.571,6.571,0,0,0,2.079,1.438,6.317,6.317,0,0,0,2.555.517,6.256,6.256,0,0,0,4.577-1.95A7.121,7.121,0,0,0,66.2,13.214a6.618,6.618,0,0,0,.506-2.6A6.775,6.775,0,0,0,64.8,5.867a6.571,6.571,0,0,0-2.079-1.438A6.253,6.253,0,0,0,60.19,3.912Z" transform="translate(67 271)" fill="rgba(0,0,0,0)"/>
    <text id="Contact_Us" data-name="Contact Us" transform="translate(67 354)" fill="#8c9295" font-size="26" font-family="JosefinSans-Regular, Josefin Sans" letter-spacing="0.05em"><tspan x="0" y="20">Contact Us</tspan></text>
    <path id="Contact_Us_-_Outline" data-name="Contact Us - Outline" d="M84.734,20.76A7.041,7.041,0,0,1,81.406,20a5.644,5.644,0,0,1-2.264-2.152,6.288,6.288,0,0,1-.81-3.23,6.058,6.058,0,0,1,.869-3.254,5.964,5.964,0,0,1,2.269-2.14,6.3,6.3,0,0,1,3-.748,7.467,7.467,0,0,1,2.494.393,6,6,0,0,1,1.913,1.08l.359.308-1.79,2.335-.4-.309a4.61,4.61,0,0,0-1.032-.584,3.427,3.427,0,0,0-1.339-.246,2.757,2.757,0,0,0-1.47.409,2.913,2.913,0,0,0-1.069,1.125,3.361,3.361,0,0,0-.394,1.632,3.2,3.2,0,0,0,.405,1.591,2.9,2.9,0,0,0,1.113,1.135,3.247,3.247,0,0,0,1.648.414,3.338,3.338,0,0,0,1.119-.179,3.263,3.263,0,0,0,.914-.5l.386-.3,1.878,2.308-.4.314a6.242,6.242,0,0,1-1.893.991A6.908,6.908,0,0,1,84.734,20.76Zm-.26-11.284a5.309,5.309,0,0,0-2.533.63,4.976,4.976,0,0,0-1.891,1.786,5.076,5.076,0,0,0-.717,2.726A5.306,5.306,0,0,0,80,17.342a4.658,4.658,0,0,0,1.87,1.774,6.056,6.056,0,0,0,2.86.644,5.911,5.911,0,0,0,1.87-.312,5.638,5.638,0,0,0,1.172-.538l-.618-.76a4.222,4.222,0,0,1-2.242.608,4.233,4.233,0,0,1-2.148-.548,3.923,3.923,0,0,1-1.487-1.517,4.233,4.233,0,0,1-.531-2.075,4.348,4.348,0,0,1,.516-2.112,3.941,3.941,0,0,1,1.427-1.5,3.78,3.78,0,0,1,1.988-.554,4.417,4.417,0,0,1,1.729.326,6.238,6.238,0,0,1,.841.429l.6-.786a5.3,5.3,0,0,0-1.221-.609A6.476,6.476,0,0,0,84.474,9.476ZM67.7,20.76a6.319,6.319,0,0,1-2.976-.708,5.27,5.27,0,0,1-2.152-2.107,6.677,6.677,0,0,1-.78-3.328,6.653,6.653,0,0,1,.82-3.356,5.751,5.751,0,0,1,2.205-2.2,6.117,6.117,0,0,1,3.012-.765,5.021,5.021,0,0,1,2.824.772,6.22,6.22,0,0,1,.835.659l.1-.989h3.187V20.5H71.364V19.449q-.161.129-.341.257a6.091,6.091,0,0,1-1.459.752A5.457,5.457,0,0,1,67.7,20.76Zm.13-11.466a5.128,5.128,0,0,0-2.526.639,4.765,4.765,0,0,0-1.825,1.827,5.671,5.671,0,0,0-.688,2.858,5.7,5.7,0,0,0,.65,2.834,4.286,4.286,0,0,0,1.748,1.715,5.33,5.33,0,0,0,2.51.592,4.465,4.465,0,0,0,1.52-.243,5.094,5.094,0,0,0,1.219-.626,4.883,4.883,0,0,0,.849-.74l.072-.084v-.52a3.8,3.8,0,0,1-1.161.828,4.357,4.357,0,0,1-1.849.384,3.962,3.962,0,0,1-2.049-.564,4.186,4.186,0,0,1-1.5-1.532,4.246,4.246,0,0,1-.561-2.147,4.337,4.337,0,0,1,.548-2.2A3.981,3.981,0,0,1,68.276,10.3a4.424,4.424,0,0,1,1.816.368A4.141,4.141,0,0,1,71.51,11.7a3.816,3.816,0,0,1,.837,1.568l.017.063v2.224l-.011.051a4.094,4.094,0,0,1-.642,1.517L72.326,17l.339.812-.076.19a2.066,2.066,0,0,1-.224.4v1.1h1.418V9.736H72.5l-.112,1.1.014.025.12.205-.239.638-.966-.226.04-.394A4.674,4.674,0,0,0,70.106,9.9,4.045,4.045,0,0,0,67.834,9.294Zm.442,2a2.94,2.94,0,0,0-1.517.4,2.978,2.978,0,0,0-1.105,1.118,3.353,3.353,0,0,0-.414,1.7,3.216,3.216,0,0,0,.427,1.649,3.155,3.155,0,0,0,1.148,1.172,2.936,2.936,0,0,0,1.539.424,3.368,3.368,0,0,0,1.427-.292,2.744,2.744,0,0,0,1.027-.8,3.013,3.013,0,0,0,.556-1.214V13.464a2.775,2.775,0,0,0-.6-1.1,3.148,3.148,0,0,0-1.078-.786A3.433,3.433,0,0,0,68.276,11.3ZM26.442,20.76a6.907,6.907,0,0,1-3.291-.774,5.839,5.839,0,0,1-2.3-2.187,6.324,6.324,0,0,1-.837-3.285,6.141,6.141,0,0,1,.836-3.166,6.067,6.067,0,0,1,2.306-2.237,7.169,7.169,0,0,1,6.653,0,5.833,5.833,0,0,1,2.243,2.244,6.377,6.377,0,0,1,.792,3.156,6.45,6.45,0,0,1-.791,3.167,5.784,5.784,0,0,1-2.259,2.26A6.745,6.745,0,0,1,26.442,20.76Zm.026-11.466a5.726,5.726,0,0,0-2.824.691,5.08,5.08,0,0,0-1.932,1.871,5.155,5.155,0,0,0-.7,2.658,5.341,5.341,0,0,0,.7,2.773A4.853,4.853,0,0,0,23.623,19.1a5.921,5.921,0,0,0,2.819.656,5.761,5.761,0,0,0,2.862-.69A4.8,4.8,0,0,0,31.179,17.2a5.462,5.462,0,0,0,.665-2.683,5.389,5.389,0,0,0-.664-2.668,4.847,4.847,0,0,0-1.865-1.864A5.689,5.689,0,0,0,26.468,9.294ZM136.4,20.708a6.832,6.832,0,0,1-2.4-.435,4.83,4.83,0,0,1-1.983-1.349l-.261-.3,1.583-2.192.415.4a4.554,4.554,0,0,0,1.251.88,2.89,2.89,0,0,0,2.031.171,1.029,1.029,0,0,0,.487-.286.691.691,0,0,0,.142-.482.657.657,0,0,0-.211-.538,2.376,2.376,0,0,0-.8-.447c-.377-.134-.782-.262-1.2-.38l-.023-.007a5.142,5.142,0,0,1-2.242-1.362,3.234,3.234,0,0,1-.83-2.232,3.646,3.646,0,0,1,.5-1.85,3.748,3.748,0,0,1,1.464-1.4,4.78,4.78,0,0,1,2.335-.531,7.307,7.307,0,0,1,2.15.3,5.55,5.55,0,0,1,1.829.984l.351.281-1.548,2.426-.44-.465a2.331,2.331,0,0,0-.924-.6,3.637,3.637,0,0,0-1.026-.231c-.037,0-.069,0-.1,0a1.467,1.467,0,0,0-.539.1,1.213,1.213,0,0,0-.474.312.472.472,0,0,0-.13.34.658.658,0,0,0,.2.518,2.085,2.085,0,0,0,.767.425c.387.129.776.264,1.154.4a6.176,6.176,0,0,1,1.54.676,3.735,3.735,0,0,1,1.153,1.111,3.045,3.045,0,0,1,.46,1.705,4.118,4.118,0,0,1-.518,2.024,3.738,3.738,0,0,1-1.584,1.5A5.582,5.582,0,0,1,136.4,20.708Zm-3.353-2.159a3.944,3.944,0,0,0,1.305.788,5.835,5.835,0,0,0,2.048.371,4.613,4.613,0,0,0,2.122-.424,2.721,2.721,0,0,0,1.172-1.1,3.087,3.087,0,0,0,.392-1.538,2.072,2.072,0,0,0-.294-1.155,2.743,2.743,0,0,0-.849-.813,5.189,5.189,0,0,0-1.3-.568l-.031-.01c-.375-.136-.76-.27-1.144-.4a3.069,3.069,0,0,1-1.131-.641,1.658,1.658,0,0,1-.524-1.25,1.462,1.462,0,0,1,.39-1.012,2.218,2.218,0,0,1,.852-.572,2.5,2.5,0,0,1,1.055-.163,4.616,4.616,0,0,1,1.31.289,3.39,3.39,0,0,1,.839.441l.4-.624a4.407,4.407,0,0,0-1.138-.546,6.314,6.314,0,0,0-1.854-.251,3.8,3.8,0,0,0-1.851.405,2.728,2.728,0,0,0-1.084,1.022,2.623,2.623,0,0,0-.362,1.348,2.233,2.233,0,0,0,.574,1.564,4.161,4.161,0,0,0,1.8,1.078c.438.123.86.256,1.256.4a3.362,3.362,0,0,1,1.128.645,1.818,1.818,0,0,1,.14,2.438,2.026,2.026,0,0,1-.943.572,3.89,3.89,0,0,1-2.727-.219,5.168,5.168,0,0,1-1.1-.691Zm-12.585,2.159a8.079,8.079,0,0,1-3.794-.889,6.892,6.892,0,0,1-2.717-2.548,7.273,7.273,0,0,1-1.009-3.848V.7h3.5V13.344a3.805,3.805,0,0,0,.538,2.014,3.944,3.944,0,0,0,1.444,1.4,4.1,4.1,0,0,0,2.042.507,4.356,4.356,0,0,0,2.125-.51,3.792,3.792,0,0,0,1.45-1.391,3.877,3.877,0,0,0,.527-2.019V.7h3.47v12.72a7.2,7.2,0,0,1-1.024,3.851,6.96,6.96,0,0,1-2.742,2.546A8.157,8.157,0,0,1,120.458,20.708ZM113.938,1.7v11.72a6.291,6.291,0,0,0,.863,3.328,5.9,5.9,0,0,0,2.327,2.184,7.09,7.09,0,0,0,3.33.775,7.168,7.168,0,0,0,3.344-.776,5.974,5.974,0,0,0,2.354-2.186,6.219,6.219,0,0,0,.874-3.325V1.7h-1.47V13.344a4.862,4.862,0,0,1-.669,2.531,4.779,4.779,0,0,1-1.826,1.755,5.343,5.343,0,0,1-2.607.634,5.089,5.089,0,0,1-2.534-.637,4.933,4.933,0,0,1-1.806-1.748,4.79,4.79,0,0,1-.684-2.535V1.7ZM11,20.708h-.006a10.74,10.74,0,0,1-4.13-.821,9.325,9.325,0,0,1-3.144-2.171,9.766,9.766,0,0,1-1.987-3.164,10.452,10.452,0,0,1-.7-3.808,11.231,11.231,0,0,1,.723-4.067A9.855,9.855,0,0,1,3.8,3.419,9.329,9.329,0,0,1,6.914,1.262,9.933,9.933,0,0,1,10.842.494a10.29,10.29,0,0,1,3.225.48,11.266,11.266,0,0,1,2.476,1.131l.362.229L15.483,5.616l-.5-.332a11.039,11.039,0,0,0-1.8-.944,5.773,5.773,0,0,0-2.262-.428,5.833,5.833,0,0,0-2.4.5,6.263,6.263,0,0,0-2,1.421A6.841,6.841,0,0,0,5.156,7.981a6.965,6.965,0,0,0-.5,2.633,7.756,7.756,0,0,0,.45,2.675A6.178,6.178,0,0,0,6.385,15.4a5.877,5.877,0,0,0,2,1.389,6.73,6.73,0,0,0,2.663.506,6.425,6.425,0,0,0,2.364-.407,7.49,7.49,0,0,0,1.73-.923l.489-.366,1.515,3.178-.36.24a11.554,11.554,0,0,1-1.334.736,9.921,9.921,0,0,1-1.986.686A10.583,10.583,0,0,1,11,20.708ZM10.842,1.494a8.941,8.941,0,0,0-3.534.688A8.335,8.335,0,0,0,4.522,4.107a8.86,8.86,0,0,0-1.833,2.93,10.237,10.237,0,0,0-.655,3.707,9.456,9.456,0,0,0,.629,3.446,8.771,8.771,0,0,0,1.783,2.842,8.332,8.332,0,0,0,2.81,1.937A9.747,9.747,0,0,0,11,19.708a9.583,9.583,0,0,0,2.233-.246,8.928,8.928,0,0,0,1.784-.614c.326-.158.609-.306.847-.442L15.242,17.1a9.534,9.534,0,0,1-1.46.714,7.415,7.415,0,0,1-2.732.477A7.721,7.721,0,0,1,7.993,17.7a6.87,6.87,0,0,1-2.34-1.627,7.172,7.172,0,0,1-1.482-2.444,8.751,8.751,0,0,1-.512-3.019A7.96,7.96,0,0,1,4.23,7.6,7.837,7.837,0,0,1,5.8,5.148,7.258,7.258,0,0,1,8.116,3.5a7.067,7.067,0,0,1,5.456-.082,13.337,13.337,0,0,1,1.461.719l.609-1.405a10.968,10.968,0,0,0-1.889-.81A9.3,9.3,0,0,0,10.842,1.494ZM96.882,20.5H93.464V11.686H91.488v-2.9h1.976V4h3.418V8.788h2.964v2.9H96.882Zm-2.418-1h1.418V10.686h2.964v-.9H95.882V5H94.464V9.788H92.488v.9h1.976Zm-37.908,1H53.138V11.686H51.162v-2.9h1.976V4h3.418V8.788H59.52v2.9H56.556Zm-2.418-1h1.418V10.686H58.52v-.9H55.556V5H54.138V9.788H52.162v.9h1.976Zm-6.552,1H44.142V12.91a1.739,1.739,0,0,0-.386-1.124A1.393,1.393,0,0,0,42.64,11.4a2.4,2.4,0,0,0-1.406.432,2.994,2.994,0,0,0-1.015,1.232,4.417,4.417,0,0,0-.381,1.893V20.5H36.42V8.736h3.12l.091,1.151a4.952,4.952,0,0,1,.98-.779,5.6,5.6,0,0,1,2.965-.788,4.06,4.06,0,0,1,2.848,1.029,3.594,3.594,0,0,1,1.162,2.686V20.5Zm-2.444-1h1.444V12.048a2.6,2.6,0,0,0-.84-1.963,3.053,3.053,0,0,0-2.17-.765,4.612,4.612,0,0,0-2.443.642,3.639,3.639,0,0,0-1.381,1.45l.033.411-.984.161-.145-.581.068-.156.01-.024-.118-1.487h-1.2V19.5h1.418V14.956a5.4,5.4,0,0,1,.477-2.319,4.02,4.02,0,0,1,1.351-1.628A3.412,3.412,0,0,1,42.64,10.4a2.347,2.347,0,0,1,1.874.733,2.735,2.735,0,0,1,.628,1.754V19.5Zm-18.726-.742a3.761,3.761,0,0,1-2.019-.57,4.114,4.114,0,0,1-1.434-1.521,4.527,4.527,0,0,1-.016-4.223A4.219,4.219,0,0,1,24.361,10.9a3.683,3.683,0,0,1,2.055-.6,3.788,3.788,0,0,1,2.076.586A4.013,4.013,0,0,1,29.9,12.423a4.74,4.74,0,0,1,0,4.233,3.916,3.916,0,0,1-1.414,1.532A3.854,3.854,0,0,1,26.416,18.758Zm0-7.462a2.663,2.663,0,0,0-1.507.438,3.186,3.186,0,0,0-1.082,1.184,3.528,3.528,0,0,0,.01,3.265,3.084,3.084,0,0,0,1.088,1.157,2.738,2.738,0,0,0,1.491.418,2.831,2.831,0,0,0,1.543-.418,2.89,2.89,0,0,0,1.056-1.146,3.742,3.742,0,0,0,0-3.307,2.984,2.984,0,0,0-1.061-1.162A2.768,2.768,0,0,0,26.416,11.3Z" transform="translate(67 354)" fill="rgba(0,0,0,0)"/>
    <text id="Help" transform="translate(67 437)" fill="#8c9295" font-size="26" font-family="JosefinSans-Regular, Josefin Sans" letter-spacing="0.05em"><tspan x="0" y="20">Help</tspan></text>
    <path id="Help_-_Outline" data-name="Help - Outline" d="M38.006-.624h3.418V20.5H38.006Zm2.418,1H39.006V19.5h1.418ZM2.2.7H5.726V8.866H14.58V.7h3.5V20.5h-3.5V12.258H5.726V20.5H2.2Zm2.522,1H3.2V19.5H4.726V11.258H15.58V19.5h1.5V1.7h-1.5V9.866H4.726Zm24,6.592A5.633,5.633,0,0,1,32.6,9.668a6.814,6.814,0,0,1,2.053,3.7l.1.434-8.307,2.923a2.922,2.922,0,0,0,.681.547,3.083,3.083,0,0,0,1.606.412,3.227,3.227,0,0,0,1.182-.225,5.038,5.038,0,0,0,1.123-.615l.434-.316,1.657,2.658-.4.27A7.989,7.989,0,0,1,30.8,20.4a6.64,6.64,0,0,1-2.123.364,6.925,6.925,0,0,1-3.416-.8,5.678,5.678,0,0,1-2.234-2.222,6.494,6.494,0,0,1-.778-3.194,5.885,5.885,0,0,1,.881-3.149,6.579,6.579,0,0,1,2.333-2.25A6.446,6.446,0,0,1,28.73,8.294Zm4.837,4.86a5.637,5.637,0,0,0-1.633-2.738,4.6,4.6,0,0,0-3.2-1.122,5.459,5.459,0,0,0-2.766.713,5.589,5.589,0,0,0-1.983,1.91,4.9,4.9,0,0,0-.731,2.623,5.509,5.509,0,0,0,.652,2.708,4.693,4.693,0,0,0,1.848,1.834,5.945,5.945,0,0,0,2.928.677,5.644,5.644,0,0,0,1.8-.312,7.239,7.239,0,0,0,1.278-.57l-.582-.934a6.058,6.058,0,0,1-.9.442,4.223,4.223,0,0,1-1.548.295,4.111,4.111,0,0,1-2.112-.55,3.926,3.926,0,0,1-1.177-1.056l-.429.151-.942-2.354.552-.2q-.006-.129-.006-.26a4.5,4.5,0,0,1,.5-2.133,3.876,3.876,0,0,1,1.4-1.5,3.807,3.807,0,0,1,2.03-.555,3.273,3.273,0,0,1,2.227.761,4.222,4.222,0,0,1,.914,1.117l.146-.053.444.889-1.047.681-.092-.252-5.422,1.975a3.225,3.225,0,0,0,.17.521Zm-2.834-.71a3.28,3.28,0,0,0-.616-.712,2.277,2.277,0,0,0-1.569-.513,2.784,2.784,0,0,0-1.506.407A2.85,2.85,0,0,0,26,12.747a3.464,3.464,0,0,0-.382,1.561Zm22.489-4.15a5.625,5.625,0,0,1,5.068,3.018,6.828,6.828,0,0,1,.762,3.28,6.331,6.331,0,0,1-.824,3.271,5.638,5.638,0,0,1-2.265,2.151,6.832,6.832,0,0,1-3.209.746,5.669,5.669,0,0,1-2.579-.626,5.466,5.466,0,0,1-.873-.547v6.087H45.91V8.58h3.022l.154,1.253A7.262,7.262,0,0,1,50.305,9,6.035,6.035,0,0,1,53.222,8.294ZM52.754,19.76a5.845,5.845,0,0,0,2.745-.632,4.653,4.653,0,0,0,1.869-1.775,5.35,5.35,0,0,0,.684-2.761,5.844,5.844,0,0,0-.642-2.8,4.626,4.626,0,0,0-4.188-2.494,5.047,5.047,0,0,0-2.439.589,6,6,0,0,0-1.545,1.185l.077.624a3.991,3.991,0,0,1,1.247-.93,4.35,4.35,0,0,1,1.907-.414,3.988,3.988,0,0,1,2.091.566,4.226,4.226,0,0,1,2.049,3.7,4.081,4.081,0,0,1-.594,2.173,4.226,4.226,0,0,1-1.575,1.5,4.4,4.4,0,0,1-2.153.543,4.09,4.09,0,0,1-1.819-.415,3.947,3.947,0,0,1-1.165-.865v.649a4.066,4.066,0,0,0,1.325,1.036A4.679,4.679,0,0,0,52.754,19.76ZM48.048,9.58H46.91V24.674H48.3V18.539q-.039-.056-.075-.113l-.112-.172.2-.955.84.086q-.05-.061-.1-.124a3.744,3.744,0,0,1-.72-1.707l-.006-.038V13.62l.015-.06a4.43,4.43,0,0,1,.792-1.654q.042-.055.087-.108l-.866.2-.349-1.012.169-.214.016-.02Zm4.238,8.256a3.411,3.411,0,0,0,1.669-.419,3.194,3.194,0,0,0,1.207-1.15,3.054,3.054,0,0,0,.446-1.649,3.291,3.291,0,0,0-.426-1.685,3.218,3.218,0,0,0-1.14-1.163,2.963,2.963,0,0,0-1.575-.422A3.36,3.36,0,0,0,51,11.662a2.974,2.974,0,0,0-1.07.857,3.421,3.421,0,0,0-.6,1.226v1.69a2.71,2.71,0,0,0,.522,1.22,2.947,2.947,0,0,0,1.057.868A3.1,3.1,0,0,0,52.286,17.836Z" transform="translate(67 437)" fill="rgba(0,0,0,0)"/>
    <text id="Logout" transform="translate(67 600)" fill="#8c9295" font-size="26" font-family="JosefinSans-Regular, Josefin Sans" letter-spacing="0.05em"><tspan x="0" y="20">Logout</tspan></text>
    <path id="Logout_-_Outline" data-name="Logout - Outline" d="M2.2.7H5.726v16.38h9.542V20.5H2.2Zm2.522,1H3.2V19.5H14.268V18.082H4.726ZM83.4,4H86.82V8.788h2.964v2.9H86.82V20.5H83.4V11.686H81.426v-2.9H83.4ZM85.82,5H84.4V9.788H82.426v.9H84.4V19.5H85.82V10.686h2.964v-.9H85.82ZM24.6,8.294a6.672,6.672,0,0,1,3.341.819,5.834,5.834,0,0,1,2.243,2.244,6.377,6.377,0,0,1,.792,3.156,6.45,6.45,0,0,1-.791,3.167,5.784,5.784,0,0,1-2.259,2.26,6.746,6.746,0,0,1-3.352.818,6.907,6.907,0,0,1-3.291-.774,5.839,5.839,0,0,1-2.3-2.187,6.324,6.324,0,0,1-.837-3.285,6.141,6.141,0,0,1,.836-3.166,6.067,6.067,0,0,1,2.306-2.237A6.712,6.712,0,0,1,24.6,8.294ZM24.57,19.76a5.761,5.761,0,0,0,2.862-.69A4.8,4.8,0,0,0,29.307,17.2a5.463,5.463,0,0,0,.665-2.683,5.389,5.389,0,0,0-.664-2.668,4.847,4.847,0,0,0-1.865-1.864,6.174,6.174,0,0,0-5.671,0,5.08,5.08,0,0,0-1.932,1.871,5.155,5.155,0,0,0-.7,2.658,5.341,5.341,0,0,0,.7,2.773A4.852,4.852,0,0,0,21.751,19.1,5.921,5.921,0,0,0,24.57,19.76ZM39.728,8.294a6.335,6.335,0,0,1,2.835.637,5.374,5.374,0,0,1,1.084.7l.112-.894H46.91V20.078A5.387,5.387,0,0,1,46.079,23a5.809,5.809,0,0,1-2.328,2.077,7.722,7.722,0,0,1-3.529.756,7.876,7.876,0,0,1-2.25-.294,6.66,6.66,0,0,1-1.785-.83,12.018,12.018,0,0,1-1.479-1.167l-.354-.327,2.058-2.4.381.358a6.944,6.944,0,0,0,1.623,1.165,3.882,3.882,0,0,0,1.752.389,4.311,4.311,0,0,0,1.852-.354,2.457,2.457,0,0,0,1.077-.93,2.563,2.563,0,0,0,.367-1.388l.006-.647a5.728,5.728,0,0,1-.7.511,5.98,5.98,0,0,1-3.23.844,5.631,5.631,0,0,1-2.978-.827,6.183,6.183,0,0,1-2.956-5.367,6.147,6.147,0,0,1,.852-3.236,6.384,6.384,0,0,1,2.227-2.212A5.881,5.881,0,0,1,39.728,8.294Zm3.76,2.609a3.751,3.751,0,0,0-1.368-1.076,5.345,5.345,0,0,0-2.391-.533,4.895,4.895,0,0,0-2.527.684,5.4,5.4,0,0,0-1.881,1.87,5.163,5.163,0,0,0-.708,2.718,5.237,5.237,0,0,0,.674,2.65,5.182,5.182,0,0,0,1.8,1.864,4.644,4.644,0,0,0,2.456.681,5,5,0,0,0,2.7-.69,3.952,3.952,0,0,0,1.241-1.175l0-.453a4.214,4.214,0,0,1-1.3.92,4.623,4.623,0,0,1-1.937.4,4.15,4.15,0,0,1-3.657-2.1,4.467,4.467,0,0,1,0-4.337,3.988,3.988,0,0,1,1.528-1.5,4.336,4.336,0,0,1,2.127-.531,4.676,4.676,0,0,1,1.862.366,4.345,4.345,0,0,1,1.468,1.028,3.919,3.919,0,0,1,.893,1.562l.021.07v2.269l-.016.061a4.041,4.041,0,0,1-.673,1.418l.646-.134.3.665-.083.2a4.047,4.047,0,0,1-.178.372l-.017,1.884a3.576,3.576,0,0,1-.517,1.909,3.472,3.472,0,0,1-1.5,1.306,5.289,5.289,0,0,1-2.282.452,4.871,4.871,0,0,1-2.2-.495,7.529,7.529,0,0,1-1.47-.983l-.752.878a10.861,10.861,0,0,0,.994.75,5.662,5.662,0,0,0,1.517.7,6.887,6.887,0,0,0,1.962.252,6.741,6.741,0,0,0,3.075-.648,4.824,4.824,0,0,0,1.936-1.719,4.4,4.4,0,0,0,.677-2.385V9.736H44.641l-.115.919h0v.007l.086.143-.192.652-.976-.2Zm0,2.569a2.92,2.92,0,0,0-.646-1.1,3.351,3.351,0,0,0-1.132-.792,3.684,3.684,0,0,0-1.466-.284,3.348,3.348,0,0,0-1.643.405,2.961,2.961,0,0,0-1.15,1.128,3.291,3.291,0,0,0-.426,1.685,3.215,3.215,0,0,0,.427,1.649,3.15,3.15,0,0,0,2.791,1.6,3.633,3.633,0,0,0,1.521-.306,3.189,3.189,0,0,0,1.114-.831,3.016,3.016,0,0,0,.609-1.159ZM56.914,8.294a6.672,6.672,0,0,1,3.341.819A5.834,5.834,0,0,1,62.5,11.358a6.377,6.377,0,0,1,.792,3.156,6.45,6.45,0,0,1-.791,3.167,5.784,5.784,0,0,1-2.259,2.26,6.746,6.746,0,0,1-3.352.818,6.907,6.907,0,0,1-3.291-.774A5.839,5.839,0,0,1,51.3,17.8a6.324,6.324,0,0,1-.837-3.285,6.141,6.141,0,0,1,.836-3.166A6.067,6.067,0,0,1,53.6,9.111,6.712,6.712,0,0,1,56.914,8.294ZM56.888,19.76a5.761,5.761,0,0,0,2.862-.69A4.8,4.8,0,0,0,61.625,17.2a5.463,5.463,0,0,0,.665-2.683,5.389,5.389,0,0,0-.664-2.668,4.847,4.847,0,0,0-1.865-1.864,6.174,6.174,0,0,0-5.671,0,5.08,5.08,0,0,0-1.932,1.871,5.155,5.155,0,0,0-.7,2.658,5.341,5.341,0,0,0,.7,2.773A4.852,4.852,0,0,0,54.069,19.1,5.921,5.921,0,0,0,56.888,19.76ZM66.866,8.736h3.418v7.583a1.882,1.882,0,0,0,.391,1.125,1.381,1.381,0,0,0,1.065.392,2.141,2.141,0,0,0,1.32-.434,3.366,3.366,0,0,0,1-1.271,4.315,4.315,0,0,0,.393-1.877V8.736h3.418V20.5H74.7l-.087-1.11q-.068.068-.139.133a5.29,5.29,0,0,1-1.65,1.02,5.584,5.584,0,0,1-2.055.373,3.86,3.86,0,0,1-2.748-1.034,3.726,3.726,0,0,1-1.157-2.672V8.736Zm2.418,1H67.866v7.447a2.721,2.721,0,0,0,.844,1.973,2.855,2.855,0,0,0,2.062.76,4.59,4.59,0,0,0,1.689-.3,4.3,4.3,0,0,0,1.34-.826,3.346,3.346,0,0,0,.7-.893l-.039-.493a4.019,4.019,0,0,1-.8.8,3.15,3.15,0,0,1-1.924.632h-.013a2.321,2.321,0,0,1-1.814-.752,2.886,2.886,0,0,1-.622-1.721V9.736Zm7.592,0H75.458v4.518a5.3,5.3,0,0,1-.491,2.309,4.888,4.888,0,0,1-.494.822l.967-.171.176.634-.066.159-.033.077.111,1.416h1.248Zm-52.332.56a3.788,3.788,0,0,1,2.076.586,4.013,4.013,0,0,1,1.409,1.542,4.739,4.739,0,0,1,0,4.233,3.916,3.916,0,0,1-1.414,1.532,3.854,3.854,0,0,1-2.071.57,3.76,3.76,0,0,1-2.019-.57,4.114,4.114,0,0,1-1.434-1.521,4.527,4.527,0,0,1-.016-4.223A4.219,4.219,0,0,1,22.489,10.9,3.683,3.683,0,0,1,24.544,10.3Zm0,7.462a2.831,2.831,0,0,0,1.543-.418,2.89,2.89,0,0,0,1.056-1.146,3.742,3.742,0,0,0,0-3.307,2.984,2.984,0,0,0-1.061-1.162,2.768,2.768,0,0,0-1.538-.428,2.663,2.663,0,0,0-1.507.438,3.186,3.186,0,0,0-1.082,1.184,3.528,3.528,0,0,0,.01,3.265,3.084,3.084,0,0,0,1.088,1.157A2.738,2.738,0,0,0,24.544,17.758ZM56.862,10.3a3.788,3.788,0,0,1,2.076.586,4.012,4.012,0,0,1,1.409,1.542,4.739,4.739,0,0,1,0,4.233,3.916,3.916,0,0,1-1.414,1.532,3.854,3.854,0,0,1-2.071.57,3.761,3.761,0,0,1-2.019-.57,4.114,4.114,0,0,1-1.434-1.521,4.527,4.527,0,0,1-.016-4.223A4.219,4.219,0,0,1,54.807,10.9,3.683,3.683,0,0,1,56.862,10.3Zm0,7.462A2.831,2.831,0,0,0,58.4,17.34a2.89,2.89,0,0,0,1.056-1.146,3.742,3.742,0,0,0,0-3.307A2.984,2.984,0,0,0,58.4,11.724a2.768,2.768,0,0,0-1.538-.428,2.663,2.663,0,0,0-1.507.438,3.186,3.186,0,0,0-1.082,1.184,3.528,3.528,0,0,0,.01,3.265,3.084,3.084,0,0,0,1.088,1.157A2.738,2.738,0,0,0,56.862,17.758Z" transform="translate(67 600)" fill="rgba(0,0,0,0)"/>
    <path id="Line_20" data-name="Line 20" d="M0,1.5A.5.5,0,0,1-.5,1,.5.5,0,0,1,0,.5l241-1h0a.5.5,0,0,1,.5.5.5.5,0,0,1-.5.5L0,1.5Z" transform="translate(8.5 59.5)" fill="#8c9295" opacity="0.62"/>
    <g id="Group_101" data-name="Group 101" transform="translate(13.358 93.372)">
      <path id="Path_1050" data-name="Path 1050" d="M857.955,152.944l-.324-.2a16.415,16.415,0,0,1-2.306-1.763,7.42,7.42,0,0,1-1.461-1.77,2.532,2.532,0,0,1-.252-2.251,2.252,2.252,0,0,1,.8-1.039,1.945,1.945,0,0,1,1.123-.337,3.774,3.774,0,0,1,2.518,1.224,5.8,5.8,0,0,1,.465-.4,3.088,3.088,0,0,1,1.867-.735,2.446,2.446,0,0,1,2,1.144l.063.086.034.1c.315.939.258,2.427-1.8,4.181a13.2,13.2,0,0,1-2.386,1.59Zm-2.423-5.99c-.217,0-.465.062-.653.524v0c-.229.555.269,1.462,1.367,2.486a15.028,15.028,0,0,0,1.778,1.4,11.816,11.816,0,0,0,1.788-1.238c.779-.668,1.64-1.65,1.4-2.592-.4-.495-.719-.495-.829-.495-.343,0-.933.207-1.8,1.193l-.067.076a.7.7,0,0,1-.527.243h-.418l-.191-.371A2.589,2.589,0,0,0,855.532,146.954Z" transform="translate(-840.072 -120.974)" fill="#6da581"/>
      <path id="Path_1047" data-name="Path 1047" d="M832.8,124.641c.5,0,1.345.248,3.807,2.091,1.483,1.11,3.382,2.678,5.344,4.414,1.879,1.662,3.684,3.357,5.082,4.773.73.739,1.324,1.377,1.767,1.9a5.035,5.035,0,0,1,.969,1.414,1.014,1.014,0,0,1-.241,1.174l-.023.02a3.861,3.861,0,0,1-2.336.446c-.424,0-.862.009-1.224.051a1.937,1.937,0,0,0-.5.108c.008.338.044,1.135.088,2.119.107,2.379.287,6.361.337,9.713.028,1.863.012,3.337-.047,4.383a11.813,11.813,0,0,1-.153,1.469c-.056.3-.189,1-.8,1.213-.188.067-.5.178-4.755.264-2.433.049-5.649.078-8.823.078-2.974,0-5.746-.025-7.806-.07a22.864,22.864,0,0,1-4.316-.252,1.254,1.254,0,0,1-.534-.319.852.852,0,0,1-.083-.087,1.88,1.88,0,0,1-.3-1.186c-.015-.369-.014-.872,0-1.538.03-1.223.109-2.863.194-4.6.2-4.18.455-9.372.118-11.041a6.41,6.41,0,0,0-.818-.122c-.19-.02-.387-.042-.589-.07a3.846,3.846,0,0,0-.536-.03c-.189,0-.385.007-.574.014s-.348.013-.506.013a2.734,2.734,0,0,1-.524-.04,1.007,1.007,0,0,1-.532-1.762q.022-.024.045-.046c1.762-1.647,5.779-5.271,9.628-8.5,2.072-1.739,3.8-3.119,5.142-4.1C831.578,124.871,832.329,124.641,832.8,124.641Zm14.887,14.509c-.334-.409-.9-1.042-1.84-2-1.34-1.359-3.079-3-4.9-4.608-1.89-1.676-3.73-3.2-5.181-4.3a11.271,11.271,0,0,0-2.961-1.884,11.518,11.518,0,0,0-2.722,1.727c-1.322.981-3.011,2.337-5.021,4.028-3.032,2.551-6.146,5.326-8.132,7.14a4.67,4.67,0,0,1,.473.041c.171.024.353.044.529.063a5.541,5.541,0,0,1,1.274.233,1.665,1.665,0,0,1,.68.433,1.371,1.371,0,0,1,.357.808,25.661,25.661,0,0,1,.182,4.8c-.043,2.076-.161,4.519-.266,6.675-.077,1.588-.15,3.088-.184,4.252-.028.958-.023,1.491-.009,1.786.449.042,1.439.1,3.6.149,2.043.044,4.788.069,7.73.069,3.065,0,6.195-.027,8.586-.073,2.525-.049,3.635-.108,4.119-.146a14.645,14.645,0,0,0,.144-1.84c.036-1.067.038-2.492,0-4.236-.06-3.18-.22-6.7-.325-9.037-.054-1.186-.089-1.97-.092-2.268a1.512,1.512,0,0,1,.511-1.173,2.177,2.177,0,0,1,.965-.47,8.98,8.98,0,0,1,1.94-.156C847.34,139.157,847.521,139.156,847.69,139.151Z" transform="translate(-814.148 -124.641)" fill="#8c9295"/>
      <path id="Path_1049" data-name="Path 1049" d="M861.546,197.229,859.851,197c0-.029.4-2.916.6-5.961a38.871,38.871,0,0,0,.086-4.38c-.1-1.838-.395-2.209-.417-2.235a4.561,4.561,0,0,0-2.677-.619h-.014a4.258,4.258,0,0,0-2.524.579l0,0c-.019.023-.308.4-.4,2.273a41.925,41.925,0,0,0,.078,4.394c.184,3.046.548,5.924.551,5.952l-1.7.216c0-.03-.38-3-.566-6.132a42.542,42.542,0,0,1-.07-4.6c.092-1.74.359-2.753.866-3.283a3.456,3.456,0,0,1,1.684-.872,8.625,8.625,0,0,1,2.078-.241h.016a8.953,8.953,0,0,1,2.089.234,3.932,3.932,0,0,1,1.751.84c.561.518.856,1.533.957,3.291a39.4,39.4,0,0,1-.076,4.612C861.957,194.207,861.55,197.2,861.546,197.229Z" transform="translate(-839.551 -162.438)" fill="#8c9295"/>
    </g>
    <path id="Path_1050-2" data-name="Path 1050" d="M873.435,179.458l-1.912-1.175a74.34,74.34,0,0,1-10.414-7.961,33.98,33.98,0,0,1-6.691-8.122c-2.147-3.889-2.541-7.548-1.172-10.875a11,11,0,0,1,3.9-5.064,9.633,9.633,0,0,1,5.563-1.675,14.542,14.542,0,0,1,6.49,1.712,20.521,20.521,0,0,1,4.736,3.349c.478-.427.958-.827,1.435-1.195a14.7,14.7,0,0,1,8.915-3.478c2.594,0,6.385.954,9.71,5.5l.371.507.2.6a13.346,13.346,0,0,1-.043,8.568c-1.226,3.742-4.006,7.48-8.265,11.108a59.984,59.984,0,0,1-10.815,7.207Zm-10.726-32.872a7.669,7.669,0,0,0-4.431,1.324,9.042,9.042,0,0,0-3.182,4.173c-1.128,2.741-.767,5.819,1.072,9.15a32.029,32.029,0,0,0,6.3,7.625,72.09,72.09,0,0,0,10.1,7.722l.966.594,1.015-.506a57.732,57.732,0,0,0,10.41-6.939c8.731-7.441,9.011-13.634,7.708-17.519l-.1-.3-.187-.256c-2.83-3.867-5.965-4.678-8.1-4.678a12.772,12.772,0,0,0-7.694,3.062,24.826,24.826,0,0,0-1.989,1.718l-.722.691-.691-.721C870.2,148.6,866.083,146.586,862.709,146.586Zm11.029,25.889-.514-.347a68.343,68.343,0,0,1-8.029-6.317c-5.281-4.93-7.525-9.253-6.32-12.172l.009-.022c1.076-2.639,2.7-2.944,3.825-2.944a10.217,10.217,0,0,1,5.3,1.985,12.128,12.128,0,0,1,3.813,4.018l.57,1.109h1.247a2.116,2.116,0,0,0,1.611-.759c.076-.082.158-.175.284-.319a21.934,21.934,0,0,1,5.117-4.5,7.307,7.307,0,0,1,3.635-1.146c.6,0,2.407,0,4.47,2.576l.136.17.053.211c.545,2.163.025,4.519-1.547,7a25.54,25.54,0,0,1-5.009,5.532,53.959,53.959,0,0,1-8.11,5.617ZM860.72,154.41c-.376.922-.106,2.261.781,3.875a26.239,26.239,0,0,0,5.059,6.064,65.414,65.414,0,0,0,7.269,5.771,51.232,51.232,0,0,0,7.258-5.087,23.58,23.58,0,0,0,4.621-5.083,7.177,7.177,0,0,0,1.345-5.236c-1.391-1.654-2.421-1.654-2.767-1.654-1.08,0-3.457.645-7.248,4.966-.113.129-.22.251-.318.357a4.118,4.118,0,0,1-3.08,1.4h-2.468l-1.128-2.2a10.238,10.238,0,0,0-3.169-3.285,8.039,8.039,0,0,0-4.164-1.631c-.541,0-1.283,0-1.977,1.709Z" transform="translate(-840.093 285.684)" fill="#8c9295"/>
    <circle id="Ellipse_35" data-name="Ellipse 35" cx="0.5" cy="0.5" r="0.5" transform="translate(34 387)" fill="#fff"/>
    <path id="Ellipse_35_-_Outline" data-name="Ellipse 35 - Outline" d="M.5,0A.5.5,0,1,1,0,.5.5.5,0,0,1,.5,0Z" transform="translate(34 387)" fill="#707070"/>
    <circle id="Ellipse_38" data-name="Ellipse 38" cx="0.5" cy="0.5" r="0.5" transform="translate(40 387)" fill="#fff"/>
    <path id="Ellipse_38_-_Outline" data-name="Ellipse 38 - Outline" d="M.5,0A.5.5,0,1,1,0,.5.5.5,0,0,1,.5,0Z" transform="translate(40 387)" fill="#707070"/>
    <circle id="Ellipse_39" data-name="Ellipse 39" cx="0.5" cy="0.5" r="0.5" transform="translate(37 388)" fill="#fff"/>
    <path id="Ellipse_39_-_Outline" data-name="Ellipse 39 - Outline" d="M.5,0A.5.5,0,1,1,0,.5.5.5,0,0,1,.5,0Z" transform="translate(37 388)" fill="#707070"/>
    <g id="Group_102" data-name="Group 102" transform="translate(4.951 -10.226)">
      <ellipse id="Ellipse_15" data-name="Ellipse 15" cx="8.649" cy="7.568" rx="8.649" ry="7.568" transform="translate(23.782 373.208) rotate(-140)" fill="#fff"/>
      <path id="Ellipse_15_-_Outline" data-name="Ellipse 15 - Outline" d="M8.649,2C4.983,2,2,4.5,2,7.568s2.983,5.568,6.649,5.568,6.649-2.5,6.649-5.568S12.315,2,8.649,2m0-2C13.425,0,17.3,3.388,17.3,7.568s-3.872,7.568-8.649,7.568S0,11.747,0,7.568,3.872,0,8.649,0Z" transform="translate(23.782 373.208) rotate(-140)" fill="#8c9295"/>
      <ellipse id="Ellipse_16" data-name="Ellipse 16" cx="8.649" cy="7.568" rx="8.649" ry="7.568" transform="translate(33.737 390.442) rotate(-99)" fill="#fff"/>
      <path id="Ellipse_16_-_Outline" data-name="Ellipse 16 - Outline" d="M8.649,2C4.983,2,2,4.5,2,7.568s2.983,5.568,6.649,5.568,6.649-2.5,6.649-5.568S12.315,2,8.649,2m0-2C13.425,0,17.3,3.388,17.3,7.568s-3.872,7.568-8.649,7.568S0,11.747,0,7.568,3.872,0,8.649,0Z" transform="translate(33.737 390.442) rotate(-99)" fill="#8c9295"/>
      <path id="Path_1083" data-name="Path 1083" d="M-608.659,1726.844a15.033,15.033,0,0,1-6.4-1.453c-5.586-2.608-9.561-8.2-11.913-12.441-2.6-4.687-4.283-9.651-4.6-12.131l-.005-.041,0-.042a11.167,11.167,0,0,1,1.475-5.847,19.816,19.816,0,0,1,3.48-4.515,29.1,29.1,0,0,1,5.107-4.042,1,1,0,0,1,1.37.35,1,1,0,0,1-.349,1.37h0c-.094.056-9.35,5.643-9.085,12.554a38.863,38.863,0,0,0,4.359,11.373c2.208,3.977,5.91,9.218,11.01,11.6,4.573,2.135,9.488,1.551,14.609-1.735a28.55,28.55,0,0,0,5.092-3.674,4,4,0,0,0,.84-2.557c.029-.229.06-.466.1-.728a1,1,0,0,1,1.128-.853,1,1,0,0,1,.853,1.128c-.035.252-.065.483-.093.707a5.833,5.833,0,0,1-1.326,3.629c-.891,1.007-2.42,2.058-5.511,4.032a19.612,19.612,0,0,1-8.85,3.26Q-608.022,1726.844-608.659,1726.844Z" transform="translate(639 -1331.619)" fill="#8c9295"/>
      <path id="Path_1084" data-name="Path 1084" d="M-610.45,1720.042a9.836,9.836,0,0,1-2.6-.415c-.2-.053-.373-.1-.49-.122l-.1-.019-.094-.039a12.4,12.4,0,0,1-5.689-4.923,29.81,29.81,0,0,1-3.444-8.016c-.777-2.379-.856-3.915-.248-4.831a1.527,1.527,0,0,1,1.12-.717,1,1,0,0,1,1.08.913,1,1,0,0,1-.558.982,6.153,6.153,0,0,0,.512,3.046l.01.031c1.91,6.541,4.346,10.134,7.892,11.631.16.035.332.081.526.132,1.411.377,3.544.947,5.421-1.346a1,1,0,0,1,1.407-.141,1,1,0,0,1,.141,1.407,6.169,6.169,0,0,1-4.215,2.393A6.494,6.494,0,0,1-610.45,1720.042Z" transform="translate(639.687 -1334.274)" fill="#8c9295"/>
    </g>
    <g id="Group_103" data-name="Group 103" transform="translate(882.923 -1387)">
      <path id="Subtraction_8" data-name="Subtraction 8" d="M29.8,25A7.97,7.97,0,0,1,32,21.223V13.5c0-.906.017-1.782.033-2.63v-.056c.064-3.412.125-6.635-1.111-7.895A4.441,4.441,0,0,0,27.687,2H6.352A4.456,4.456,0,0,0,3.1,2.926C1.85,4.2,1.908,7.452,1.969,10.895c.014.788.031,1.68.031,2.605v.318a34.244,34.244,0,0,0,.382,6.42,9,9,0,0,0,.562,1.847,7.675,7.675,0,0,1,6.032-2.99,7.564,7.564,0,0,1,5.475,2.341A7.92,7.92,0,0,1,16.439,25H29.8m1.748,2H14.688a5.973,5.973,0,0,0-1.675-4.174,5.58,5.58,0,0,0-4.037-1.732,5.786,5.786,0,0,0-5.586,4.669C0,23.332,0,18.495,0,13.817V13.5c0-.907-.016-1.79-.031-2.569C-.1,6.888-.165,3.4,1.675,1.525,2.682.5,4.212,0,6.352,0H27.687c2.135,0,3.661.5,4.664,1.518,1.824,1.859,1.759,5.323,1.683,9.333v.057c-.016.838-.032,1.7-.032,2.591v8.653A5.976,5.976,0,0,0,31.552,27Z" transform="translate(-874 1653)" fill="#8c9295"/>
      <g id="Truck" transform="translate(-870.31 1659.921)">
        <path id="Subtraction_6" data-name="Subtraction 6" d="M10.55,19.926H7.882l-.029-.971a4.511,4.511,0,0,0-4.533-4.4,4.5,4.5,0,0,0-2.72.906l-1.6,1.2V-1H11.55V3.725H4.156A17.024,17.024,0,0,0,5.443,5.7c1.111,1.455,2.891,3.2,5.078,3.3h.033a1.01,1.01,0,0,1,.72.3,1.448,1.448,0,0,1,.321,1.081c.009.248.015.6.018,1.051.005.746,0,1.775-.008,3.059-.018,2.156-.052,4.295-.055,4.448v.992ZM3.321,12.557a6.5,6.5,0,0,1,6.254,4.622c.029-2.225.052-4.971.032-6.279a9.829,9.829,0,0,1-5.754-3.99,19.214,19.214,0,0,1-2.243-3.8L1.028,1.725H9.55V1H1V12.98A6.514,6.514,0,0,1,3.321,12.557Z" transform="translate(30.901)" fill="#8c9295"/>
        <path id="Ellipse_40" data-name="Ellipse 40" d="M6,2a4,4,0,1,0,4,4A4,4,0,0,0,6,2M6,0A6,6,0,1,1,0,6,6,6,0,0,1,6,0Z" transform="translate(-0.69 13.079)" fill="#8c9295"/>
      </g>
      <path id="Path_1085" data-name="Path 1085" d="M5.811,2A4.651,4.651,0,0,0,2.773,3.2,3.6,3.6,0,0,0,1.481,5.811,3.6,3.6,0,0,0,2.773,8.427a4.651,4.651,0,0,0,3.039,1.2A3.811,3.811,0,0,0,5.811,2m0-2a5.811,5.811,0,0,1,0,11.623c-3.21,0-6.33-2.6-6.33-5.811S2.6,0,5.811,0Z" transform="translate(-841.899 1673.201)" fill="#8c9295"/>
      <g id="Box" transform="translate(-862.929 1658.536)">
        <rect id="Rectangle_60" data-name="Rectangle 60" width="12" height="12" transform="translate(-0.071 0.464)" fill="#eadbc9"/>
        <path id="Rectangle_60_-_Outline" data-name="Rectangle 60 - Outline" d="M1,1V11H11V1H1M0,0H12V12H0Z" transform="translate(-0.071 0.464)" fill="#707070"/>
        <rect id="Rectangle_61" data-name="Rectangle 61" width="2" height="2" transform="translate(4.929 0.464)" fill="#c6b6a2"/>
        <path id="Rectangle_61_-_Outline" data-name="Rectangle 61 - Outline" d="M0,0H2V2H0Z" transform="translate(4.929 0.464)" fill="#707070"/>
        <rect id="Rectangle_62" data-name="Rectangle 62" width="2" height="3" transform="translate(4.929 9.464)" fill="#c6b6a2"/>
        <path id="Rectangle_62_-_Outline" data-name="Rectangle 62 - Outline" d="M0,0H2V3H0Z" transform="translate(4.929 9.464)" fill="#707070"/>
        <g id="Group_91" data-name="Group 91" transform="translate(2.455 4.367)">
          <path id="Path_1077" data-name="Path 1077" d="M0,0S4.143.279,3.9,2.119a1.2,1.2,0,0,1-.729.934,1.8,1.8,0,0,0-.919-1.173,2.14,2.14,0,0,1,.711,1.308C2.8,3.22,1.444,4.03.75,1.993A13.249,13.249,0,0,0,.348.728,6.341,6.341,0,0,0,0,0Z" transform="matrix(0.998, -0.07, 0.07, 0.998, 0, 0.273)" fill="#6da581"/>
          <path id="Path_1078" data-name="Path 1078" d="M0,2.286S2.81,2.1,2.645.85A.816.816,0,0,0,2.15.217a1.222,1.222,0,0,1-.623.795A1.45,1.45,0,0,0,2.009.125C1.9.1.98-.445.509.936a8.972,8.972,0,0,1-.273.857A4.3,4.3,0,0,1,0,2.286Z" transform="translate(6.753 3.492) rotate(-173)" fill="#6da581"/>
        </g>
        <g id="Group_92" data-name="Group 92" transform="translate(8.485 1.422)">
          <path id="Path_1079" data-name="Path 1079" d="M3136.648,1611h1v1.854h-1Z" transform="translate(-3136.673 -1610.999)" fill="#707070"/>
          <path id="Path_1080" data-name="Path 1080" d="M3128.321,1612.054a.5.5,0,0,1-.383-.821l.475-.567a.5.5,0,0,1,.375-.179h.008a.5.5,0,0,1,.373.167l.507.567a.5.5,0,0,1-.745.667l-.122-.137-.1.125A.5.5,0,0,1,3128.321,1612.054Z" transform="translate(-3128.321 -1610.988)" fill="#707070"/>
        </g>
        <g id="Group_93" data-name="Group 93" transform="translate(9.899 1.422)">
          <path id="Path_1079-2" data-name="Path 1079" d="M3136.648,1611h1v1.854h-1Z" transform="translate(-3136.673 -1610.999)" fill="#707070"/>
          <path id="Path_1080-2" data-name="Path 1080" d="M3128.321,1612.054a.5.5,0,0,1-.383-.821l.475-.567a.5.5,0,0,1,.375-.179h.008a.5.5,0,0,1,.373.167l.507.567a.5.5,0,0,1-.745.667l-.122-.137-.1.125A.5.5,0,0,1,3128.321,1612.054Z" transform="translate(-3128.321 -1610.988)" fill="#707070"/>
        </g>
        <path id="Path_1050-3" data-name="Path 1050" d="M854.559,147.441l-.08-.05a4.062,4.062,0,0,1-.567-.444,1.863,1.863,0,0,1-.359-.446.652.652,0,0,1-.062-.567.566.566,0,0,1,.2-.262.471.471,0,0,1,.276-.085.919.919,0,0,1,.619.309,1.437,1.437,0,0,1,.115-.1.749.749,0,0,1,.459-.185.6.6,0,0,1,.492.288l.015.022.008.025c.078.237.064.612-.443,1.054a3.246,3.246,0,0,1-.587.4Zm-.6-1.51c-.054,0-.114.016-.161.132h0c-.056.14.066.368.336.627a3.714,3.714,0,0,0,.437.352,2.9,2.9,0,0,0,.44-.312c.192-.168.4-.416.345-.654-.1-.125-.177-.125-.2-.125-.084,0-.23.052-.442.3l-.017.019a.17.17,0,0,1-.13.061h-.1l-.047-.094A.637.637,0,0,0,853.963,145.931Z" transform="translate(-852.047 -144.164)" fill="#c6b6a2"/>
        <g id="Group_94" data-name="Group 94" transform="translate(1.676 9.38)">
          <path id="Path_1047-2" data-name="Path 1047" d="M815.184,124.641c.028,0,.075.014.211.116.082.062.188.149.3.245s.2.186.282.265c.041.041.073.077.1.105a.281.281,0,0,1,.054.079.056.056,0,0,1-.013.065h0a.215.215,0,0,1-.13.025.675.675,0,0,0-.068,0,.108.108,0,0,0-.028.006c0,.019,0,.063,0,.118.006.132.016.353.019.54,0,.1,0,.185,0,.243a.664.664,0,0,1-.009.082.081.081,0,0,1-.044.067,1.207,1.207,0,0,1-.264.015c-.135,0-.314,0-.49,0s-.319,0-.434,0a1.265,1.265,0,0,1-.24-.014.069.069,0,0,1-.03-.018l0,0a.105.105,0,0,1-.017-.066c0-.021,0-.048,0-.085,0-.068.006-.159.011-.255a4.273,4.273,0,0,0,.007-.613.355.355,0,0,0-.045-.007l-.033,0-.03,0h-.06l-.029,0a.056.056,0,0,1-.03-.1l0,0c.1-.092.321-.293.535-.472.115-.1.211-.173.286-.228C815.116,124.654,815.158,124.641,815.184,124.641Zm.827.806c-.019-.023-.05-.058-.1-.111-.074-.076-.171-.166-.272-.256s-.207-.178-.288-.239a.628.628,0,0,0-.164-.1.637.637,0,0,0-.151.1c-.073.055-.167.13-.279.224-.168.142-.341.3-.452.4l.026,0,.029,0a.308.308,0,0,1,.071.013.092.092,0,0,1,.038.024.076.076,0,0,1,.02.045,1.427,1.427,0,0,1,.01.266c0,.115-.009.251-.015.371,0,.088-.008.172-.01.236s0,.083,0,.1c.025,0,.08.006.2.008s.266,0,.429,0,.344,0,.477,0,.2-.006.229-.008a.8.8,0,0,0,.008-.1c0-.059,0-.138,0-.235,0-.177-.012-.372-.018-.5,0-.066,0-.109-.005-.126a.084.084,0,0,1,.028-.065.121.121,0,0,1,.054-.026.5.5,0,0,1,.108-.009Z" transform="translate(-814.148 -124.641)" fill="#565e62"/>
          <path id="Path_1047_-_Outline" data-name="Path 1047 - Outline" d="M815.184,124.391a.606.606,0,0,1,.361.166c.088.066.2.157.313.258s.213.194.295.277c.044.045.082.085.111.119a.517.517,0,0,1,.1.152.318.318,0,0,1,.02.141l.146.178-.231.007-.016.015-.015.012h0a.347.347,0,0,1-.118.058c.005.127.012.289.014.431,0,.108,0,.2,0,.261a.886.886,0,0,1-.013.114.317.317,0,0,1-.207.257,1.065,1.065,0,0,1-.342.029c-.137,0-.317,0-.5,0s-.323,0-.439,0a1.275,1.275,0,0,1-.3-.023.318.318,0,0,1-.133-.074.3.3,0,0,1-.03-.031.344.344,0,0,1-.073-.215c0-.025,0-.059,0-.1,0-.066.006-.155.01-.25v-.011c0-.093.012-.245.015-.369h0a.313.313,0,0,1-.179-.1l-.282-.012.209-.192a.316.316,0,0,1,.085-.205l.016-.016c.1-.094.328-.3.545-.481.119-.1.219-.18.3-.238A.586.586,0,0,1,815.184,124.391Zm.4.983-.118-.107c-.1-.089-.2-.17-.273-.227l-.013-.01,0,0c-.07.052-.159.124-.267.214-.071.06-.141.12-.2.175a.326.326,0,0,1,.022.079,1.663,1.663,0,0,1,.013.311c0,.116-.009.251-.015.37v.008l0,.083c.1,0,.235,0,.373,0,.166,0,.335,0,.465,0q0-.042,0-.091c0-.174-.012-.367-.018-.5,0-.071-.005-.118-.005-.135A.335.335,0,0,1,815.589,125.374Z" transform="translate(-814.148 -124.641)" fill="#8b857d"/>
          <path id="Path_1049-2" data-name="Path 1049" d="M853.248,182.933l-.094-.013s.022-.162.033-.331a2.183,2.183,0,0,0,0-.243c-.005-.1-.022-.123-.023-.124a.254.254,0,0,0-.149-.034h0a.237.237,0,0,0-.14.032h0s-.017.022-.022.126a2.3,2.3,0,0,0,0,.244c.01.169.03.329.031.331l-.094.012s-.021-.167-.031-.341a2.385,2.385,0,0,1,0-.256.292.292,0,0,1,.048-.182.192.192,0,0,1,.094-.048.479.479,0,0,1,.115-.013h0a.5.5,0,0,1,.116.013.218.218,0,0,1,.1.047.27.27,0,0,1,.053.183,2.2,2.2,0,0,1,0,.256C853.271,182.765,853.249,182.931,853.248,182.933Z" transform="translate(-852.027 -181)" fill="#565e62"/>
          <path id="Path_1049_-_Outline" data-name="Path 1049 - Outline" d="M853.459,183.214l-.431-.059-.442.056-.035-.243s-.023-.175-.034-.362a2.632,2.632,0,0,1,0-.284.513.513,0,0,1,.117-.342.434.434,0,0,1,.212-.118.784.784,0,0,1,.353,0,.461.461,0,0,1,.208.106.5.5,0,0,1,.133.352,2.446,2.446,0,0,1,0,.287c-.012.188-.036.362-.036.364Z" transform="translate(-852.027 -181)" fill="#8b857d"/>
        </g>
        <g id="Group_95" data-name="Group 95" transform="translate(8.485 9.095)">
          <path id="Path_1068" data-name="Path 1068" d="M4.753,4.14a.135.135,0,0,1,.13.093l.191.555A.137.137,0,0,0,5.2,4.88l.58.015a.137.137,0,0,1,.081.245L5.4,5.507a.137.137,0,0,0-.047.146l.166.574a.137.137,0,0,1-.211.15l-.471-.333a.137.137,0,0,0-.159,0L4.2,6.378a.137.137,0,0,1-.211-.15l.166-.574a.137.137,0,0,0-.047-.146l-.467-.367A.137.137,0,0,1,3.725,4.9l.58-.015a.137.137,0,0,0,.126-.093l.191-.555A.135.135,0,0,1,4.753,4.14Z" transform="translate(-3.591 -4.14)" fill="#8b857d"/>
        </g>
      </g>
    </g>
    <g id="Group_106" data-name="Group 106" transform="translate(-2 -1)">
      <path id="Ellipse_42" data-name="Ellipse 42" d="M8.976,2a6.976,6.976,0,1,0,6.976,6.976A6.984,6.984,0,0,0,8.976,2m0-2A8.976,8.976,0,1,1,0,8.976,8.976,8.976,0,0,1,8.976,0Z" transform="translate(23.051 180.657)" fill="#8c9295"/>
      <path id="Path_1087" data-name="Path 1087" d="M-937.777,1569.869c-.952,0-1.193-1.1-1.338-1.753a13.259,13.259,0,0,1-.279-2.687,13.8,13.8,0,0,1,.642-4.293,11.876,11.876,0,0,1,2.651-4.533c3.052-3.258,8.007-4.942,14.728-5l.385,0c7.282,0,12.75,1.946,16.25,5.785a15.616,15.616,0,0,1,3.732,7.661,15.4,15.4,0,0,1,.271,3.907l-.084.908h-36.81a1.022,1.022,0,0,1-.148.011Zm.656-2.011h34.411a15.216,15.216,0,0,0-.274-2.518,13.416,13.416,0,0,0-3.249-6.631c-3.107-3.392-8.07-5.113-14.754-5.113l-.366,0c-7.235.067-12.109,2.067-14.487,5.943A11.573,11.573,0,0,0-937.121,1567.858Z" transform="translate(952.952 -1353.869)" fill="#8c9295"/>
      <path id="Path_1088" data-name="Path 1088" d="M0,23.762S16.51,21.8,15.537,8.835c-.178-2.369-1.212-5.525-2.907-6.58-.031-.111-.743,6.194-3.661,8.259A19.419,19.419,0,0,0,11.8,1.3c-.659-.222-6.046-5.927-8.811,8.422-.5,2.858-.951,6.219-1.6,8.91C.934,20.818,0,23.762,0,23.762Z" transform="translate(25.14 193.759) rotate(-124)" fill="#6da581"/>
      <path id="Path_1089" data-name="Path 1089" d="M0,5.45S6.7,5,6.3,2.026A1.944,1.944,0,0,0,5.125.517,2.912,2.912,0,0,1,3.64,2.411,3.456,3.456,0,0,0,4.789.3C4.521.248,2.335-1.06,1.214,2.231A21.386,21.386,0,0,1,.563,4.274,10.239,10.239,0,0,1,0,5.45Z" transform="translate(44.84 208.006) rotate(128)" fill="#6da581"/>
    </g>
    <g id="Group_105" data-name="Group 105" transform="translate(890.358 -979.213)">
      <path id="Path_1090" data-name="Path 1090" d="M-858.3,1569.711a1.011,1.011,0,0,1,.809.4,1.006,1.006,0,0,1,.2.754c-.079,1.39-.142,28.688-.159,39.156v.533l-9.264,6.2v-41.637l.426-.3c.018-.012,1.781-1.249,3.57-2.47C-858.858,1569.711-858.672,1569.711-858.3,1569.711Zm-1.15,39.77c0-2.167.019-10.6.044-18.967.017-5.675.035-10.214.053-13.489.012-2.169.022-3.6.033-4.551-1.329.87-3.415,2.3-5.4,3.683v36.85Z" transform="translate(-7.358 -0.065)" fill="#707070"/>
      <path id="Path_1091" data-name="Path 1091" d="M-838.365,1569.611c7.5,0,19.1.054,19.218.055l1,0v41.513l-.976.023c-.114,0-11.527.274-19.069.274-2.065,0-3.679-.02-4.8-.061-.645-.023-1.126-.052-1.47-.09a3.8,3.8,0,0,1-.513-.083,1.07,1.07,0,0,1-.886-1.041v-39.048a1.1,1.1,0,0,1-.044-.5,1.177,1.177,0,0,1,.806-.93c.2-.077.235-.089,2.224-.1C-841.819,1569.614-840.3,1569.611-838.365,1569.611Zm18.214,2.05c-2.98-.013-12.006-.05-18.214-.05-3.109,0-4.7.009-5.5.02v37.745c.744.05,2.323.1,5.666.1,6.231,0,15.117-.186,18.046-.251Z" transform="translate(-20.921 0)" fill="#707070"/>
      <path id="Path_1098" data-name="Path 1098" d="M1.392,0C2.16,0,2.783.857,2.783,1.913S2.16,3.827,1.392,3.827,0,2.97,0,1.913.623,0,1.392,0Z" transform="translate(-877 1593.359)" fill="#707070"/>
      <path id="Path_1092" data-name="Path 1092" d="M-871.735,1637.389h3.265v4.082h-3.265Z" transform="translate(-3.685 -44.199)" fill="#707070"/>
      <path id="Path_1093" data-name="Path 1093" d="M-833.238,1626.71a14.98,14.98,0,0,1-1.827-.117l-.432-.059v-6.567a.5.5,0,0,1-.158-.338.5.5,0,0,1,.472-.527c.123-.006,3.026-.144,4.265,1.659a1.106,1.106,0,0,1,.135,1.193,2.153,2.153,0,0,1-1.519.892,4.3,4.3,0,0,1,2.13,1.835l.03.058.014.064a1.252,1.252,0,0,1-.3,1.162,3.819,3.819,0,0,1-2.791.744Zm-1.259-1.059c1.242.118,2.923.083,3.338-.365a.237.237,0,0,0,.064-.212c-.626-1.117-2.346-1.667-3.4-1.871Zm0-5.538v2c.322-.013.763-.042,1.211-.1,1.429-.189,1.617-.516,1.62-.523h0a.373.373,0,0,0-.076-.157A3.756,3.756,0,0,0-834.5,1620.113Z" transform="translate(-261.151 -131.867) rotate(-8)" fill="#707070"/>
      <path id="Path_1094" data-name="Path 1094" d="M-816.027,1628.279a.5.5,0,0,1-.462-.308,5.2,5.2,0,0,1,.228-3.632l.042-.109a3.213,3.213,0,0,1-1.225-1.775,9.611,9.611,0,0,1-.427-1.721.5.5,0,0,1,.427-.564.5.5,0,0,1,.564.427,5.046,5.046,0,0,0,1.072,2.7,10.859,10.859,0,0,1,1.3-2.034c.767-.929,1.181-.982,1.456-.925a.667.667,0,0,1,.5.486l.028.1-.012.1c-.074.608-.957,2.982-2.671,3.366a4.424,4.424,0,0,0-.359,3.2.5.5,0,0,1-.269.654A.5.5,0,0,1-816.027,1628.279Z" transform="translate(-273.153 -130.96) rotate(-8)" fill="#707070"/>
      <g id="Group_104" data-name="Group 104" transform="translate(-850.884 1587.108) rotate(-8)">
        <path id="Line_21" data-name="Line 21" d="M.5,6.419h-1V0h1Z" transform="translate(0.165 0)" fill="#707070"/>
        <path id="Line_22" data-name="Line 22" d="M2.125.5H0A.5.5,0,0,1-.5,0,.5.5,0,0,1,0-.5H2.125a.5.5,0,0,1,.5.5A.5.5,0,0,1,2.125.5Z" transform="translate(0.165 3.209)" fill="#707070"/>
        <path id="Path_1095" data-name="Path 1095" d="M-800.1,1621h-2.861a.5.5,0,0,1-.5-.5.5.5,0,0,1,.5-.5h2.861a.5.5,0,0,1,.5.5A.5.5,0,0,1-800.1,1621Z" transform="translate(802.966 -1620.5)" fill="#707070"/>
        <path id="Path_1096" data-name="Path 1096" d="M-799.978,1636.733h-2.987a.5.5,0,0,1-.5-.5.5.5,0,0,1,.5-.5h2.987a.5.5,0,0,1,.5.5A.5.5,0,0,1-799.978,1636.733Z" transform="translate(802.966 -1629.921)" fill="#707070"/>
      </g>
      <path id="Path_1097" data-name="Path 1097" d="M-790.916,1624.227a.5.5,0,0,1-.448-.277c-.168-.336-.347-1.138-.235-4.378.06-1.754.182-3.409.184-3.426a.5.5,0,0,1,.536-.462.5.5,0,0,1,.462.536c0,.016-.122,1.655-.182,3.389-.111,3.234.089,3.811.13,3.893a.5.5,0,0,1-.224.671A.5.5,0,0,1-790.916,1624.227Z" transform="translate(-287.344 -125.298) rotate(-8)" fill="#707070"/>
      <path id="Path_1099" data-name="Path 1099" d="M.87,0A.87.87,0,1,1,0,.87.87.87,0,0,1,.87,0Z" transform="translate(-844.994 1593.508) rotate(-8)" fill="#707070"/>
    </g>
  </g>
</svg>
