<svg xmlns="http://www.w3.org/2000/svg" xmlns:xlink="http://www.w3.org/1999/xlink" width="375" height="667" viewBox="0 0 375 667">
  <defs>
    <clipPath id="clip-Product_Details">
      <rect width="375" height="667"/>
    </clipPath>
  </defs>
  <g id="Product_Details" data-name="Product Details" clip-path="url(#clip-Product_Details)">
    <rect width="375" height="667" fill="#fff"/>
    <path id="Path_5" data-name="Path 5" transform="translate(25.388 458.498)" fill="#0c0c0c"/>
    <path id="Path_1020" data-name="Path 1020" transform="translate(24.5 459.53)" fill="#0c0c0c"/>
    <text id="xxx_xx_x_x_x_x_xx_x_xx_x_xxx_xxxx_x_xx_x_x" data-name="xxx xx x x x x xx
x xx x xxx xxxx x xx x x" transform="translate(155 128)" font-size="18" font-family="SegoeUI-Semibold, Segoe UI" font-weight="600"><tspan x="0" y="19">xxx xx x x x x xx</tspan><tspan x="0" y="43">x xx x xxx xxxx x xx x x</tspan></text>
    <text id="xxx_xx_x_x_x_x_xx_x_xx_x_xxx_xxxx_x_xx_x_x-2" data-name="xxx xx x x x x xx
x xx x xxx xxxx x xx x x" transform="translate(159 306)" font-size="18" font-family="SegoeUI-Semibold, Segoe UI" font-weight="600"><tspan x="0" y="19">xxx xx x x x x xx</tspan><tspan x="0" y="43">x xx x xxx xxxx x xx x x</tspan></text>
    <text id="xxx_xx_x_x_x_x_xx_x_xx_x_xxx_xxxx_x_xx_x_x-3" data-name="xxx xx x x x x xx
x xx x xxx xxxx x xx x x" transform="translate(155 484)" font-size="18" font-family="SegoeUI-Semibold, Segoe UI" font-weight="600"><tspan x="0" y="19">xxx xx x x x x xx</tspan><tspan x="0" y="43">x xx x xxx xxxx x xx x x</tspan></text>
    <text id="Benefit_1" data-name="Benefit 1" transform="translate(155 119)" font-size="21" font-family="SegoeUI-Bold, Segoe UI" font-weight="700"><tspan x="0" y="0">Benefit 1</tspan></text>
    <text id="Benefit_1-2" data-name="Benefit 1" transform="translate(159 297)" font-size="21" font-family="SegoeUI-Bold, Segoe UI" font-weight="700"><tspan x="0" y="0">Benefit 1</tspan></text>
    <text id="Benefit_1-3" data-name="Benefit 1" transform="translate(155 475)" font-size="21" font-family="SegoeUI-Bold, Segoe UI" font-weight="700"><tspan x="0" y="0">Benefit 1</tspan></text>
    <g id="Button_-_Buy_Now" data-name="Button - Buy Now" transform="translate(190.095 182.429)">
      <g id="Group_27" data-name="Group 27" transform="translate(0 0)">
        <g id="Group_28" data-name="Group 28">
          <rect id="Rectangle_17" data-name="Rectangle 17" width="118" height="39" transform="translate(-0.095 -0.429)" fill="#fff"/>
        </g>
      </g>
      <text id="Buy_Now" data-name="Buy Now" transform="translate(13.905 25.571)" font-size="21" font-family="SegoeUI-Bold, Segoe UI" font-weight="700"><tspan x="0" y="0">Buy Now</tspan></text>
    </g>
    <g id="Button_-_Buy_Now-2" data-name="Button - Buy Now" transform="translate(194.095 360.429)">
      <g id="Group_27-2" data-name="Group 27" transform="translate(0 0)">
        <g id="Group_28-2" data-name="Group 28">
          <rect id="Rectangle_17-2" data-name="Rectangle 17" width="118" height="39" transform="translate(-0.095 -0.429)" fill="#fff"/>
        </g>
      </g>
      <text id="Buy_Now-2" data-name="Buy Now" transform="translate(13.905 25.571)" font-size="21" font-family="SegoeUI-Bold, Segoe UI" font-weight="700"><tspan x="0" y="0">Buy Now</tspan></text>
    </g>
    <g id="Button_-_Buy_Now-3" data-name="Button - Buy Now" transform="translate(190.095 538.429)">
      <g id="Group_27-3" data-name="Group 27" transform="translate(0 0)">
        <g id="Group_28-3" data-name="Group 28">
          <rect id="Rectangle_17-3" data-name="Rectangle 17" width="118" height="39" transform="translate(-0.095 -0.429)" fill="#fff"/>
        </g>
      </g>
      <text id="Buy_Now-3" data-name="Buy Now" transform="translate(13.905 25.571)" font-size="21" font-family="SegoeUI-Bold, Segoe UI" font-weight="700"><tspan x="0" y="0">Buy Now</tspan></text>
    </g>
    <text id="GREEN_TEA" data-name="GREEN TEA" transform="translate(17 37)" font-size="20" font-family="SegoeUI-Semibold, Segoe UI" font-weight="600"><tspan x="0" y="0">GREEN TEA</tspan></text>
    <g id="Group_30" data-name="Group 30" transform="translate(-18)">
      <g id="Group_29" data-name="Group 29" transform="translate(36 95)">
        <rect id="Rectangle_4" data-name="Rectangle 4" width="116" height="110" rx="15" fill="#75ffb1"/>
        <path id="Rectangle_4_-_Outline" data-name="Rectangle 4 - Outline" d="M15,2A13,13,0,0,0,2,15V95a13,13,0,0,0,13,13h86a13,13,0,0,0,13-13V15A13,13,0,0,0,101,2H15m0-2h86a15,15,0,0,1,15,15V95a15,15,0,0,1-15,15H15A15,15,0,0,1,0,95V15A15,15,0,0,1,15,0Z"/>
        <path id="Path_1018" data-name="Path 1018" transform="translate(5.063 5.063)" fill="#0c0c0c"/>
        <path id="Path_1016" data-name="Path 1016" d="M2636.769,3097.952a1.049,1.049,0,0,0-.037-.26c-.341-2.264-2.036-3.163-4.257-3.186q-3.486-.037-6.971-.054c-5.947-.028-11.9-.026-17.841.115-2.215.053-4.9-.182-5.846,2.321a7,7,0,0,0-.226,2.533l.039,9.892c.012,3.011-.012,6.024.036,9.035a3.857,3.857,0,0,0,1.328,3.219,5.478,5.478,0,0,0,3.376.822c1.6.076,3.2.141,4.806.156,3.295.03,6.589-.062,9.884-.07,3.126-.007,6.281.131,9.4-.063,2.285-.142,5.387.047,6.321-2.564a7.085,7.085,0,0,0,.2-2.5Q2636.876,3107.651,2636.769,3097.952Zm-33.2.172c.21-1.78,2.052-1.529,3.4-1.563s2.712-.061,4.068-.081q4.447-.065,8.895-.063,4.1,0,8.2.027c1.626.011,6.434-.724,6.656,1.509q.069,6.2.136,12.4-1.587-1.477-3.191-2.937c-1-.911-2.1-2.143-3.55-2.238-1.435-.093-2.593.916-3.631,1.769a31.263,31.263,0,0,0-3.241,3.069,20.962,20.962,0,0,0-6.9-4.924c-2.455-.964-3.815.54-5.469,2.131l-5.319,5.119-.035-8.742A46.338,46.338,0,0,1,2603.569,3098.124Zm31.444,20.51c-.24,2.331-4.911,1.856-6.691,1.865-2.873.014-5.746-.01-8.619.005-2.843.015-5.684.09-8.527.065-1.247-.011-2.492-.05-3.738-.106-1.406-.064-3.548.272-3.787-1.594a23.7,23.7,0,0,1-.054-3.77c.025-.021.051-.036.075-.059l5.063-4.873c.9-.867,1.775-1.885,2.762-2.657,1.442-1.129,2.43-.571,3.77.283,3.706,2.363,6.646,5.772,9.546,9.019.851.952,2.249-.45,1.4-1.4-1.121-1.256-2.3-2.637-3.55-3.988,1.486-1.724,4.288-4.775,5.972-4.016,1.127.508,2.178,1.84,3.088,2.674q1.623,1.489,3.228,3A46.932,46.932,0,0,1,2635.013,3118.634Z" transform="translate(-2559.866 -3051.532)"/>
        <path id="Path_1016_-_Outline" data-name="Path 1016 - Outline" d="M2620.146,3093.938c1.614,0,3.317,0,5.36.014,2.249.01,4.595.028,6.974.054,2.7.029,4.388,1.3,4.742,3.587a1.52,1.52,0,0,1,.047.355l.213,19.4c0,.129,0,.26.008.39a6.153,6.153,0,0,1-.237,2.282,3.787,3.787,0,0,1-2.578,2.4,13,13,0,0,1-3.393.453c-.276.012-.536.024-.789.039-1.153.072-2.408.1-3.95.1-.878,0-1.77-.01-2.632-.021-.936-.011-1.906-.023-2.849-.02-1.35,0-2.725.021-4.053.038-1.465.019-2.98.038-4.472.038-.472,0-.931,0-1.364-.006-1.664-.015-3.3-.084-4.825-.156l-.3-.013a5.414,5.414,0,0,1-3.362-.915,4.409,4.409,0,0,1-1.519-3.6c-.032-2.013-.032-4.059-.032-6.038,0-.985,0-2,0-3l-.039-9.892c0-.131,0-.263-.005-.4a6.074,6.074,0,0,1,.263-2.316c.979-2.582,3.574-2.611,5.66-2.634.223,0,.433,0,.642-.01C2611.376,3093.979,2615.347,3093.938,2620.146,3093.938Zm6.4,28.078c1.521,0,2.757-.033,3.888-.1.261-.016.526-.028.807-.04a12.073,12.073,0,0,0,3.126-.4,2.811,2.811,0,0,0,1.948-1.789,5.327,5.327,0,0,0,.178-1.921c0-.135-.006-.269-.008-.4l-.213-19.4a.557.557,0,0,0-.021-.138l-.007-.026,0-.027c-.272-1.808-1.54-2.737-3.768-2.761-2.377-.025-4.722-.043-6.968-.054-2.041-.01-3.743-.014-5.356-.014-4.791,0-8.754.041-12.471.129-.216.005-.439.008-.655.01-2.057.023-4,.045-4.736,1.988a5.25,5.25,0,0,0-.2,1.945c0,.137,0,.274.005.409l.039,9.892c0,1,0,2.021,0,3.007,0,1.975,0,4.017.032,6.022a3.308,3.308,0,0,0,1.137,2.834,4.521,4.521,0,0,0,2.786.7l.3.013c1.513.072,3.14.14,4.787.155.429,0,.885.006,1.355.006,1.485,0,3-.019,4.459-.038,1.332-.017,2.708-.035,4.064-.038.952,0,1.925.009,2.864.02C2624.782,3122.005,2625.671,3122.016,2626.543,3122.016Zm4.524-26.179c1,0,4.011,0,4.216,2.066l0,.044q.069,6.2.136,12.4l.013,1.166-.853-.794c-1.225-1.139-2.237-2.071-3.186-2.932-.142-.129-.288-.266-.429-.4a5.012,5.012,0,0,0-2.817-1.71c-.05,0-.1,0-.152,0a5.112,5.112,0,0,0-3,1.552l-.132.109a30.858,30.858,0,0,0-3.19,3.02l-.353.386-.37-.37a20.132,20.132,0,0,0-6.724-4.812,3.492,3.492,0,0,0-1.283-.269c-1.287,0-2.264.947-3.4,2.043l-.26.252-6.161,5.929-.04-9.911c0-.578-.027-1.162-.054-1.781a23.734,23.734,0,0,1,.036-3.751c.236-2,2.149-2,3.292-2h.178c.158,0,.29,0,.416,0,1.218-.032,2.551-.059,4.073-.082,2.67-.039,5.582-.06,8.9-.063h.815c2.365,0,4.78.009,7.385.027h.035c.265,0,.621-.02,1.032-.042.563-.031,1.2-.065,1.859-.065Zm3.219,2.146c-.093-.76-1.178-1.146-3.226-1.146-.63,0-1.254.034-1.8.064-.427.023-.795.043-1.087.043h-.042c-2.6-.018-5.017-.027-7.379-.027h-.814c-3.315,0-6.222.024-8.888.063-1.519.023-2.848.049-4.062.081-.137,0-.276,0-.442,0h-.178c-1.528,0-2.185.155-2.3,1.117a22.985,22.985,0,0,0-.03,3.591c.026.6.053,1.223.055,1.82l.031,7.574,4.477-4.309.258-.249c1.234-1.2,2.4-2.325,4.092-2.325a4.465,4.465,0,0,1,1.648.338,20.437,20.437,0,0,1,6.7,4.672,31.9,31.9,0,0,1,2.939-2.738l.131-.108a5.917,5.917,0,0,1,3.633-1.781c.072,0,.145,0,.217.007a5.811,5.811,0,0,1,3.437,1.979c.144.136.281.264.416.387.723.656,1.481,1.352,2.342,2.149Q2634.348,3103.585,2634.286,3097.982Zm-21.221,8.393a4.734,4.734,0,0,1,2.471,1c3.55,2.263,6.4,5.455,9.146,8.542l.5.565a.38.38,0,0,0,.282.151.571.571,0,0,0,.463-.351.461.461,0,0,0-.088-.531c-.393-.44-.784-.885-1.2-1.357-.755-.86-1.536-1.749-2.345-2.623l-.3-.328.292-.338c1.594-1.85,3.927-4.309,5.773-4.309a1.893,1.893,0,0,1,.783.163,8.949,8.949,0,0,1,2.441,1.988c.275.282.534.548.78.773,1.007.924,2.064,1.906,3.232,3l.154.144,0,.211c.01.548.037,1.123.063,1.678a26.543,26.543,0,0,1-.007,3.934c-.068.663-.467,1.548-1.976,2a11.13,11.13,0,0,1-3.158.345c-.439,0-.858-.011-1.227-.02-.3-.008-.558-.014-.777-.014h-.048c-.643,0-1.346,0-2.15,0l-2.135,0-2.133,0c-.836,0-1.535,0-2.2.005-1.063.006-2.146.02-3.192.034-1.351.018-2.747.036-4.123.036-.427,0-.826,0-1.219-.005-1.159-.01-2.387-.045-3.756-.106-.205-.009-.431-.01-.669-.01a6.841,6.841,0,0,1-2.131-.227,2.041,2.041,0,0,1-1.46-1.793,22.831,22.831,0,0,1-.065-3.662l.015-.416.176-.143.05-.038,0,0,5.054-4.865c.294-.282.58-.577.883-.888a19.732,19.732,0,0,1,1.917-1.8A3.022,3.022,0,0,1,2613.065,3106.375Zm12.4,11.253a1.375,1.375,0,0,1-1.028-.485l-.5-.566c-2.706-3.036-5.5-6.175-8.937-8.364a3.977,3.977,0,0,0-1.934-.839,2.05,2.05,0,0,0-1.259.528,18.99,18.99,0,0,0-1.817,1.712c-.3.3-.6.618-.906.912l-4.993,4.806a21.988,21.988,0,0,0,.058,3.473c.136,1.066,1.073,1.145,2.6,1.147.25,0,.486,0,.713.011,1.356.061,2.573.1,3.72.105.39,0,.786.005,1.21.005,1.369,0,2.762-.018,4.11-.036,1.048-.014,2.133-.028,3.2-.034.667,0,1.368-.005,2.205-.005l2.135,0,2.134,0c.8,0,1.5,0,2.145,0h.053c.232,0,.509.007.8.014.364.009.776.02,1.2.02,2.684,0,4.038-.474,4.139-1.45a25.85,25.85,0,0,0,0-3.784c-.023-.492-.047-1-.06-1.495-1.1-1.036-2.11-1.97-3.07-2.851-.266-.244-.535-.52-.82-.812a8.3,8.3,0,0,0-2.135-1.774.89.89,0,0,0-.372-.075,4.335,4.335,0,0,0-2.507,1.368,24.114,24.114,0,0,0-2.217,2.257c.71.776,1.395,1.556,2.059,2.313.413.47.8.914,1.193,1.351a1.46,1.46,0,0,1,.255,1.606A1.557,1.557,0,0,1,2625.469,3117.628Z" transform="translate(-2559.866 -3051.532)" fill="rgba(0,0,0,0)"/>
        <path id="Path_1017" data-name="Path 1017" d="M2651.349,3112.844a3.862,3.862,0,0,0,3.957-3.76,4.021,4.021,0,0,0-3.964-3.989c-2.334-.029-3.655,1.683-3.71,3.872A3.733,3.733,0,0,0,2651.349,3112.844Zm-.168-5.775a2.03,2.03,0,0,1,2.142,2.014,1.838,1.838,0,0,1-1.805,1.773,1.739,1.739,0,0,1-1.9-1.889C2649.641,3107.938,2650.022,3107.121,2651.181,3107.069Z" transform="translate(-2590.695 -3058.679)"/>
        <path id="Path_1017_-_Outline" data-name="Path 1017 - Outline" d="M2651.337,3113.344a4.052,4.052,0,0,1-3.037-1.311,4.656,4.656,0,0,1-1.168-3.055v-.023c.065-2.608,1.734-4.36,4.152-4.36h.064a4.5,4.5,0,0,1,3.144,1.334,4.414,4.414,0,0,1,1.313,3.156,4.142,4.142,0,0,1-1.348,3.052,4.576,4.576,0,0,1-3.107,1.206Zm-3.2-4.376a3.25,3.25,0,0,0,3.2,3.376h.01a3.344,3.344,0,0,0,3.458-3.262,3.5,3.5,0,0,0-3.47-3.487h-.052C2649.424,3105.594,2648.188,3106.918,2648.132,3108.968Zm3.205,2.4a2.241,2.241,0,0,1-2.222-2.387v-.022c.049-2,1.3-2.352,2.042-2.385a2.582,2.582,0,0,1,1.94.754,2.465,2.465,0,0,1,.724,1.762,2.335,2.335,0,0,1-2.264,2.269C2651.484,3111.361,2651.41,3111.364,2651.337,3111.364Zm-1.221-2.4c.017.677.346,1.4,1.221,1.4.045,0,.092,0,.139-.006a1.35,1.35,0,0,0,1.346-1.277,1.473,1.473,0,0,0-.433-1.052,1.583,1.583,0,0,0-1.115-.462l-.072,0C2650.683,3107.592,2650.148,3107.776,2650.116,3108.968Z" transform="translate(-2590.695 -3058.679)" fill="rgba(0,0,0,0)"/>
      </g>
    </g>
    <g id="Group_31" data-name="Group 31" transform="translate(-17 -0.5)">
      <rect id="Rectangle_5" data-name="Rectangle 5" width="115.92" height="110.4" rx="15" transform="translate(35.08 274)" fill="#75ffb1"/>
      <path id="Rectangle_5_-_Outline" data-name="Rectangle 5 - Outline" d="M15,2A13,13,0,0,0,2,15V95.4a13,13,0,0,0,13,13h85.92a13,13,0,0,0,13-13V15a13,13,0,0,0-13-13H15m0-2h85.92a15,15,0,0,1,15,15V95.4a15,15,0,0,1-15,15H15a15,15,0,0,1-15-15V15A15,15,0,0,1,15,0Z" transform="translate(35.08 274)"/>
      <path id="Path_4" data-name="Path 4" transform="translate(16.037 280.561)" fill="#0c0c0c"/>
      <path id="Path_1019" data-name="Path 1019" transform="translate(24.5 281.51)" fill="#0c0c0c"/>
      <g id="Group_13" data-name="Group 13" transform="translate(75.56 315.4)">
        <path id="Path_1016-2" data-name="Path 1016" d="M2635.916,3097.844a1.007,1.007,0,0,0-.036-.252c-.333-2.194-1.987-3.065-4.154-3.088q-3.4-.036-6.8-.052c-5.8-.027-11.607-.025-17.407.112-2.161.051-4.779-.177-5.7,2.249a6.74,6.74,0,0,0-.22,2.455l.038,9.586c.012,2.917-.011,5.838.035,8.756a3.725,3.725,0,0,0,1.3,3.119,5.372,5.372,0,0,0,3.294.8c1.563.074,3.125.137,4.689.151,3.215.029,6.429-.061,9.644-.067,3.05-.007,6.129.126,9.174-.062,2.23-.138,5.256.045,6.167-2.485a6.817,6.817,0,0,0,.2-2.42Q2636.02,3107.242,2635.916,3097.844Zm-32.395.166c.2-1.725,2-1.481,3.32-1.515s2.646-.059,3.969-.079q4.339-.063,8.679-.061,4,0,8,.026c1.586.011,6.278-.7,6.494,1.462q.067,6.007.133,12.012-1.549-1.431-3.113-2.846c-.98-.883-2.046-2.077-3.464-2.168-1.4-.09-2.53.887-3.543,1.714a30.437,30.437,0,0,0-3.163,2.974,20.456,20.456,0,0,0-6.728-4.772c-2.4-.934-3.722.523-5.336,2.065l-5.19,4.961-.034-8.472A44.625,44.625,0,0,1,2603.521,3098.01Zm30.681,19.876c-.234,2.259-4.792,1.8-6.529,1.807-2.8.014-5.607-.01-8.41,0-2.773.014-5.546.087-8.32.063-1.217-.011-2.432-.049-3.647-.1-1.372-.062-3.462.263-3.7-1.545a22.845,22.845,0,0,1-.053-3.653c.024-.02.05-.035.073-.057l4.94-4.722c.88-.841,1.732-1.827,2.7-2.576,1.407-1.094,2.371-.553,3.678.275,3.616,2.29,6.485,5.593,9.315,8.74.83.923,2.194-.436,1.368-1.354-1.094-1.217-2.243-2.555-3.463-3.864,1.45-1.671,4.184-4.627,5.827-3.892A13.978,13.978,0,0,1,2631,3109.6q1.583,1.443,3.149,2.906A45.135,45.135,0,0,1,2634.2,3117.885Z" transform="translate(-2601.581 -3094.438)"/>
        <path id="Path_1016_-_Outline-2" data-name="Path 1016 - Outline" d="M2619.707,3093.938c1.572,0,3.23,0,5.218.013,2.218.01,4.508.028,6.806.052,2.645.028,4.291,1.266,4.639,3.487a1.488,1.488,0,0,1,.046.347q.1,9.128.2,18.256l.006.542c0,.125,0,.251.007.377a5.937,5.937,0,0,1-.232,2.218,3.7,3.7,0,0,1-2.524,2.336,12.758,12.758,0,0,1-3.313.44c-.269.012-.523.023-.77.038-1.126.07-2.353.1-3.86.1-.855,0-1.723-.01-2.562-.02s-1.7-.02-2.542-.02h-.24c-1.32,0-2.664.02-3.963.036-1.427.018-2.9.037-4.357.037-.467,0-.9,0-1.329-.006-1.624-.015-3.223-.082-4.709-.152l-.292-.013a5.316,5.316,0,0,1-3.286-.889,4.272,4.272,0,0,1-1.489-3.505c-.031-1.949-.031-3.93-.031-5.846,0-.956,0-1.944,0-2.916l-.038-9.586c0-.126,0-.254-.005-.382a5.864,5.864,0,0,1,.258-2.252c.958-2.511,3.5-2.539,5.534-2.562.217,0,.422,0,.626-.009C2611.141,3093.978,2615.019,3093.938,2619.707,3093.938Zm6.225,27.209c1.486,0,2.693-.032,3.8-.1.255-.016.514-.027.788-.039,2.087-.092,4.245-.186,4.94-2.116a5.113,5.113,0,0,0,.173-1.855c0-.13-.006-.26-.008-.39l-.006-.542q-.1-9.128-.2-18.256a.51.51,0,0,0-.019-.129l-.007-.027,0-.027c-.264-1.744-1.5-2.64-3.665-2.663-2.3-.024-4.583-.042-6.8-.052-1.987-.009-3.644-.013-5.214-.013-4.68,0-8.55.04-12.18.125-.21.005-.428.007-.638.01-2,.022-3.9.043-4.611,1.917a5.045,5.045,0,0,0-.193,1.879c0,.133,0,.265.005.4l.038,9.586c0,.973,0,1.963,0,2.92,0,1.912,0,3.889.031,5.83a3.181,3.181,0,0,0,1.1,2.733,4.429,4.429,0,0,0,2.713.678l.3.013c1.476.07,3.063.136,4.67.151.425,0,.857.006,1.321.006,1.447,0,2.92-.019,4.344-.037,1.3-.017,2.648-.033,3.973-.036h.242c.851,0,1.716.01,2.553.02S2625.083,3121.147,2625.932,3121.147Zm4.423-25.37c.981,0,3.922.006,4.123,2.016l0,.044q.067,6.007.133,12.012l.013,1.16-.852-.787c-1.191-1.1-2.179-2-3.108-2.842-.139-.125-.281-.258-.419-.386a4.889,4.889,0,0,0-2.742-1.654c-.049,0-.1,0-.148,0a4.994,4.994,0,0,0-2.919,1.5l-.128.1a30.039,30.039,0,0,0-3.111,2.925l-.352.382-.368-.366a19.638,19.638,0,0,0-6.557-4.661,3.417,3.417,0,0,0-1.248-.26c-1.252,0-2.2.916-3.307,1.977l-.254.244-6.031,5.764-.039-9.635c0-.559-.027-1.125-.053-1.725a22.866,22.866,0,0,1,.035-3.638c.232-1.952,2.111-1.952,3.233-1.952h.154c.129,0,.278,0,.417,0,1.2-.031,2.5-.057,3.975-.079,2.6-.038,5.439-.058,8.686-.061h.829c2.278,0,4.692.009,7.173.026h.034c.259,0,.605-.019,1.007-.041.55-.03,1.173-.063,1.815-.063Zm3.125,2.1c-.09-.728-1.145-1.1-3.135-1.1-.615,0-1.224.033-1.761.062-.416.022-.776.042-1.061.042h-.041c-2.479-.017-4.89-.026-7.166-.026h-.828c-3.242,0-6.079.023-8.672.061-1.472.022-2.769.047-3.964.078-.15,0-.307,0-.442,0h-.154c-1.49,0-2.131.149-2.24,1.07a22.16,22.16,0,0,0-.029,3.477c.025.583.052,1.185.054,1.764l.029,7.309,4.349-4.157.252-.242c1.206-1.16,2.345-2.256,4-2.256a4.39,4.39,0,0,1,1.611.328,19.945,19.945,0,0,1,6.532,4.522,31.121,31.121,0,0,1,2.862-2.646l.127-.1a5.8,5.8,0,0,1,3.552-1.729c.07,0,.142,0,.212.007a5.69,5.69,0,0,1,3.361,1.921c.141.131.273.255.406.375.7.632,1.436,1.3,2.266,2.064Q2633.541,3103.289,2633.48,3097.874Zm-20.694,8.116a4.646,4.646,0,0,1,2.417.967c3.466,2.2,6.244,5.29,8.93,8.283l.49.545a.361.361,0,0,0,.267.142.544.544,0,0,0,.442-.334.428.428,0,0,0-.084-.494c-.383-.426-.764-.857-1.168-1.314-.737-.834-1.5-1.7-2.29-2.544l-.307-.329.295-.34c1.557-1.794,3.836-4.179,5.641-4.179a1.867,1.867,0,0,1,.768.159,8.728,8.728,0,0,1,2.386,1.93c.268.273.521.531.76.749,1,.911,2.032,1.863,3.154,2.909l.155.145,0,.212c.01.531.036,1.088.062,1.627a25.56,25.56,0,0,1-.008,3.814c-.067.647-.458,1.511-1.937,1.953a10.94,10.94,0,0,1-3.083.335c-.428,0-.837-.01-1.2-.02-.292-.007-.544-.014-.758-.014h-.047c-.621,0-1.3,0-2.074,0l-2.094,0-2.092,0c-.816,0-1.5,0-2.149,0-1.038.005-2.094.019-3.116.033-1.318.017-2.68.035-4.021.035-.417,0-.807,0-1.19-.005-1.132-.01-2.331-.044-3.665-.1-.2-.009-.42-.009-.653-.01a6.717,6.717,0,0,1-2.082-.22,2,2,0,0,1-1.434-1.75,21.994,21.994,0,0,1-.063-3.546l.015-.416.177-.143.05-.038,0,0,4.93-4.713c.286-.273.565-.558.86-.859a19.211,19.211,0,0,1,1.874-1.75A2.97,2.97,0,0,1,2612.787,3105.99Zm12.1,10.937a1.357,1.357,0,0,1-1.011-.474l-.49-.546c-2.64-2.942-5.371-5.985-8.72-8.106a3.887,3.887,0,0,0-1.882-.811,2,2,0,0,0-1.222.509,18.455,18.455,0,0,0-1.773,1.66c-.288.294-.586.6-.884.883l-.043.041-4.824,4.612a21.084,21.084,0,0,0,.057,3.355c.132,1.021,1.042,1.1,2.526,1.1.244,0,.474,0,.7.011,1.322.059,2.509.093,3.629.1.38,0,.767.005,1.181.005,1.335,0,2.694-.018,4.008-.035,1.023-.013,2.082-.027,3.124-.033.652,0,1.337,0,2.155,0l2.094,0,2.092,0c.773,0,1.45,0,2.069,0h.052c.226,0,.5.007.783.014.355.009.757.019,1.172.019,2.612,0,3.929-.455,4.026-1.392a24.816,24.816,0,0,0,0-3.663c-.023-.475-.046-.964-.058-1.443-1.06-.988-2.04-1.891-2.991-2.758-.26-.237-.522-.5-.8-.788a8.069,8.069,0,0,0-2.08-1.717.862.862,0,0,0-.36-.072,4.231,4.231,0,0,0-2.439,1.323,23.335,23.335,0,0,0-2.151,2.174c.689.749,1.354,1.5,2,2.232.4.455.782.885,1.162,1.308a1.425,1.425,0,0,1,.254,1.569A1.531,1.531,0,0,1,2624.89,3116.927Z" transform="translate(-2601.581 -3094.438)" fill="rgba(0,0,0,0)"/>
        <path id="Path_1017-2" data-name="Path 1017" d="M2651.259,3112.6a3.756,3.756,0,0,0,3.861-3.644,3.91,3.91,0,0,0-3.867-3.865c-2.278-.028-3.566,1.631-3.62,3.753A3.629,3.629,0,0,0,2651.259,3112.6Zm-.164-5.6a1.976,1.976,0,0,1,2.09,1.952,1.788,1.788,0,0,1-1.761,1.719,1.691,1.691,0,0,1-1.855-1.831C2649.592,3107.85,2649.965,3107.058,2651.094,3107.008Z" transform="translate(-2632.779 -3101.693)"/>
        <path id="Path_1017_-_Outline-2" data-name="Path 1017 - Outline" d="M2651.247,3113.1a3.975,3.975,0,0,1-2.971-1.274,4.511,4.511,0,0,1-1.144-2.972v-.023a4,4,0,0,1,4.063-4.24h.063a4.421,4.421,0,0,1,3.075,1.3,4.281,4.281,0,0,1,1.286,3.071,4.019,4.019,0,0,1-1.32,2.97,4.491,4.491,0,0,1-3.039,1.172Zm-3.114-4.256a3.144,3.144,0,0,0,3.114,3.256h.01a3.24,3.24,0,0,0,3.362-3.146,3.392,3.392,0,0,0-3.373-3.363h-.05A3.02,3.02,0,0,0,2648.133,3108.848Zm3.115,2.337a2.192,2.192,0,0,1-2.18-2.328v-.023c.048-1.949,1.277-2.294,2-2.327l.114,0a2.545,2.545,0,0,1,1.793.742,2.4,2.4,0,0,1,.705,1.714,2.284,2.284,0,0,1-2.221,2.214C2651.391,3111.182,2651.318,3111.185,2651.248,3111.185Zm-1.18-2.337c.017.649.335,1.337,1.18,1.337.044,0,.089,0,.135-.006a1.3,1.3,0,0,0,1.3-1.223,1.4,1.4,0,0,0-.414-1,1.533,1.533,0,0,0-1.154-.446C2650.615,3107.529,2650.1,3107.706,2650.068,3108.848Z" transform="translate(-2632.779 -3101.693)" fill="rgba(0,0,0,0)"/>
      </g>
    </g>
    <g id="Group_32" data-name="Group 32" transform="translate(0 -5.6)">
      <path id="Path_1022" data-name="Path 1022" d="M13.69,0H101.31A13.69,13.69,0,0,1,115,13.69V95.833a13.69,13.69,0,0,1-13.69,13.69H13.69A13.69,13.69,0,0,1,0,95.833V13.69A13.69,13.69,0,0,1,13.69,0Z" transform="translate(19 458)" fill="#75ffb1"/>
      <path id="Path_1022_-_Outline" data-name="Path 1022 - Outline" d="M13.69,2A11.691,11.691,0,0,0,2,13.69V95.833a11.691,11.691,0,0,0,11.69,11.69H101.31A11.691,11.691,0,0,0,113,95.833V13.69A11.691,11.691,0,0,0,101.31,2H13.69m0-2H101.31A13.69,13.69,0,0,1,115,13.69V95.833a13.69,13.69,0,0,1-13.69,13.69H13.69A13.69,13.69,0,0,1,0,95.833V13.69A13.69,13.69,0,0,1,13.69,0Z" transform="translate(19 458)"/>
      <g id="Group_14" data-name="Group 14" transform="translate(58 498)">
        <g id="Group_15" data-name="Group 15">
          <path id="Path_1016-3" data-name="Path 1016" d="M2638.9,3098.14a1.1,1.1,0,0,0-.039-.274c-.361-2.384-2.159-3.331-4.515-3.356q-3.7-.04-7.394-.057c-6.307-.029-12.616-.027-18.921.122-2.349.055-5.195-.192-6.2,2.444a7.326,7.326,0,0,0-.24,2.668l.042,10.42c.013,3.171-.012,6.346.038,9.517a4.048,4.048,0,0,0,1.409,3.391,5.839,5.839,0,0,0,3.58.865c1.7.08,3.4.149,5.1.164,3.494.031,6.988-.066,10.482-.073,3.315-.008,6.662.138,9.972-.067,2.424-.15,5.713.049,6.7-2.7a7.415,7.415,0,0,0,.212-2.631Q2639.014,3108.356,2638.9,3098.14Zm-35.211.181c.223-1.875,2.176-1.61,3.608-1.646s2.876-.064,4.314-.085q4.716-.069,9.433-.066,4.347,0,8.693.028c1.724.012,6.823-.762,7.059,1.589q.073,6.529.145,13.057-1.683-1.556-3.384-3.093c-1.065-.96-2.224-2.257-3.765-2.357-1.522-.1-2.75.965-3.851,1.863a33.038,33.038,0,0,0-3.438,3.233,22.238,22.238,0,0,0-7.313-5.187c-2.6-1.015-4.046.569-5.8,2.245l-5.641,5.392-.037-9.209A48.5,48.5,0,0,1,2603.69,3098.32Zm33.349,21.6c-.255,2.455-5.208,1.955-7.1,1.964-3.047.015-6.094-.01-9.141.005-3.014.016-6.029.095-9.043.068-1.323-.011-2.643-.053-3.964-.112-1.491-.067-3.763.286-4.017-1.679a24.809,24.809,0,0,1-.057-3.97c.027-.022.054-.038.08-.062l5.37-5.133c.957-.914,1.883-1.986,2.929-2.8,1.529-1.189,2.577-.6,4,.3,3.931,2.489,7.049,6.08,10.125,9.5.9,1,2.385-.474,1.488-1.472-1.189-1.323-2.438-2.777-3.765-4.2,1.576-1.816,4.548-5.029,6.333-4.23,1.2.535,2.31,1.938,3.275,2.817q1.721,1.568,3.423,3.158A49.073,49.073,0,0,1,2637.039,3119.925Z" transform="translate(-2601.58 -3094.438)"/>
          <path id="Path_1016_-_Outline-3" data-name="Path 1016 - Outline" d="M2621.28,3093.938c1.71,0,3.514,0,5.675.015,2.428.011,4.917.03,7.4.057a5.857,5.857,0,0,1,3.281.88,4.076,4.076,0,0,1,1.719,2.876,1.576,1.576,0,0,1,.049.37q.076,6.822.151,13.645l.075,6.788c0,.136,0,.274.008.411a6.423,6.423,0,0,1-.25,2.395,3.978,3.978,0,0,1-2.716,2.513,13.831,13.831,0,0,1-3.59.476c-.293.013-.569.025-.837.042-1.223.075-2.554.111-4.19.111-.93,0-1.875-.011-2.788-.022s-1.847-.021-2.767-.021h-.256c-1.433,0-2.891.021-4.3.04-1.552.02-3.156.04-4.735.04-.5,0-.991,0-1.452-.006-1.767-.016-3.5-.089-5.116-.165l-.318-.014a5.743,5.743,0,0,1-3.547-.957,4.6,4.6,0,0,1-1.6-3.777c-.034-2.12-.034-4.275-.034-6.359,0-1.037,0-2.11,0-3.164l-.042-10.42c0-.138,0-.277-.006-.416a6.345,6.345,0,0,1,.278-2.432c1.031-2.7,3.772-2.732,5.976-2.756.236,0,.458,0,.68-.01C2611.974,3093.981,2616.188,3093.938,2621.28,3093.938Zm6.772,29.575c1.615,0,2.927-.034,4.129-.109.277-.017.558-.03.855-.042a12.9,12.9,0,0,0,3.324-.428,3,3,0,0,0,2.084-1.9,5.593,5.593,0,0,0,.191-2.032c0-.142-.007-.283-.008-.424l-.075-6.788q-.075-6.823-.151-13.645a.589.589,0,0,0-.023-.152l-.007-.026,0-.027c-.291-1.92-1.646-2.906-4.026-2.931-2.478-.027-4.965-.046-7.391-.057-2.16-.01-3.962-.015-5.67-.015-5.085,0-9.291.043-13.237.136-.228.005-.465.008-.693.01a11.26,11.26,0,0,0-3.094.31,2.838,2.838,0,0,0-1.957,1.8,5.506,5.506,0,0,0-.212,2.058c0,.144,0,.287.006.43l.042,10.42c0,1.056,0,2.129,0,3.168,0,2.08,0,4.231.034,6.343a3.5,3.5,0,0,0,1.217,3,4.843,4.843,0,0,0,2.974.746l.322.014c1.6.076,3.328.148,5.078.164.457,0,.943.006,1.443.006,1.573,0,3.174-.02,4.723-.04,1.412-.018,2.873-.036,4.311-.04,1.007,0,2.041.01,3.037.021C2626.187,3123.5,2627.128,3123.513,2628.052,3123.513Zm4.794-27.576a8.945,8.945,0,0,1,2.787.343,2.124,2.124,0,0,1,1.662,1.809l0,.044q.073,6.529.145,13.057l.013,1.16-.852-.787c-1.3-1.2-2.374-2.183-3.379-3.089-.151-.136-.306-.281-.455-.42a5.343,5.343,0,0,0-3.007-1.809c-.054,0-.109-.005-.164-.005a5.459,5.459,0,0,0-3.2,1.643l-.14.114a32.668,32.668,0,0,0-3.386,3.184l-.352.382-.368-.366a21.389,21.389,0,0,0-7.142-5.076,3.755,3.755,0,0,0-1.373-.285c-1.378,0-2.419,1-3.624,2.16l-.276.265-6.482,6.2-.042-10.372c0-.609-.029-1.225-.057-1.877a24.815,24.815,0,0,1,.038-3.948,2.075,2.075,0,0,1,1.385-1.833,5.938,5.938,0,0,1,2.086-.25h.166c.141,0,.3,0,.454,0,1.306-.034,2.719-.062,4.32-.086,2.828-.041,5.916-.063,9.44-.066h.9c2.5,0,5.047.009,7.8.028h.037c.282,0,.66-.021,1.1-.044C2631.473,3095.974,2632.15,3095.938,2632.846,3095.938Zm3.451,2.232c-.1-.829-1.229-1.232-3.451-1.232-.67,0-1.332.036-1.916.067-.452.024-.842.046-1.151.046h-.044c-2.75-.019-5.3-.028-7.793-.028h-.9c-3.52,0-6.6.025-9.427.066-1.6.023-3.007.052-4.309.085-.163,0-.333,0-.48,0h-.166c-1.615,0-2.356.174-2.479,1.2a24.077,24.077,0,0,0-.031,3.786c.027.633.056,1.288.058,1.916l.032,8.046,4.8-4.588.274-.263c1.3-1.255,2.536-2.44,4.317-2.44a4.733,4.733,0,0,1,1.736.354,21.7,21.7,0,0,1,7.117,4.937,33.7,33.7,0,0,1,3.137-2.9l.138-.113a6.269,6.269,0,0,1,3.833-1.869c.076,0,.152,0,.228.007a6.149,6.149,0,0,1,3.625,2.076c.153.143.3.278.442.408.78.7,1.6,1.451,2.536,2.312Q2636.364,3104.107,2636.3,3098.17Zm-22.537,8.868a5.019,5.019,0,0,1,2.6,1.044c3.762,2.382,6.778,5.743,9.695,8.993l.534.6a.433.433,0,0,0,.323.169.636.636,0,0,0,.521-.389.506.506,0,0,0-.1-.583c-.417-.464-.832-.933-1.272-1.431-.8-.906-1.628-1.842-2.487-2.762l-.307-.329.295-.34c1.687-1.944,4.155-4.528,6.1-4.528a1.987,1.987,0,0,1,.817.169,9.456,9.456,0,0,1,2.58,2.088c.292.3.567.578.828.816,1.075.979,2.2,2.013,3.427,3.162l.155.145,0,.212c.01.578.04,1.183.067,1.769a27.727,27.727,0,0,1-.008,4.14c-.1,1-.8,1.705-2.075,2.086a11.854,11.854,0,0,1-3.339.363c-.465,0-.909-.011-1.3-.021-.318-.008-.592-.015-.825-.015h-.052c-.677,0-1.418,0-2.265,0l-2.269,0-2.267,0c-.889,0-1.633,0-2.34.005-1.128.006-2.277.021-3.387.035-1.431.019-2.91.038-4.367.038-.455,0-.878,0-1.3-.006-1.225-.011-2.528-.047-3.982-.112a10.919,10.919,0,0,1-2.961-.248,2.128,2.128,0,0,1-1.53-1.867,23.9,23.9,0,0,1-.068-3.853l.015-.426.176-.143c.018-.015.036-.028.054-.041l.006,0,5.361-5.125c.312-.3.615-.607.936-.935a20.88,20.88,0,0,1,2.032-1.9A3.186,3.186,0,0,1,2613.761,3107.038Zm13.155,11.8a1.413,1.413,0,0,1-1.066-.5l-.535-.6c-2.871-3.2-5.84-6.508-9.485-8.816a4.254,4.254,0,0,0-2.069-.888,2.211,2.211,0,0,0-1.355.563,20.1,20.1,0,0,0-1.931,1.808c-.313.319-.636.649-.959.958l-5.3,5.069a23.037,23.037,0,0,0,.061,3.671c.147,1.142,1.2,1.229,2.789,1.232.264,0,.514,0,.754.012,1.442.064,2.733.1,3.946.111.414,0,.835.006,1.287.006,1.45,0,2.927-.02,4.354-.038,1.112-.015,2.263-.03,3.4-.036.709,0,1.455-.005,2.346-.005l2.269,0,2.267,0c.845,0,1.584,0,2.26,0H2630c.245,0,.539.008.85.015.386.01.823.021,1.276.021,2.865,0,4.311-.508,4.419-1.552a27.016,27.016,0,0,0,0-3.989c-.025-.522-.051-1.059-.064-1.585-1.168-1.089-2.238-2.075-3.264-3.01-.282-.257-.567-.547-.869-.855a8.8,8.8,0,0,0-2.274-1.875.979.979,0,0,0-.409-.082c-1.089,0-2.786,1.293-5.047,3.846.758.822,1.488,1.648,2.2,2.45.438.5.852.964,1.266,1.425a1.506,1.506,0,0,1,.269,1.659A1.62,1.62,0,0,1,2626.916,3118.839Z" transform="translate(-2601.58 -3094.438)" fill="rgba(0,0,0,0)"/>
          <path id="Path_1017-3" data-name="Path 1017" d="M2651.574,3113.257a4.083,4.083,0,0,0,4.2-3.961,4.25,4.25,0,0,0-4.2-4.2c-2.476-.03-3.876,1.773-3.935,4.079A3.944,3.944,0,0,0,2651.574,3113.257Zm-.179-6.083a2.147,2.147,0,0,1,2.271,2.122,1.943,1.943,0,0,1-1.915,1.868,1.838,1.838,0,0,1-2.017-1.99C2649.763,3108.089,2650.167,3107.228,2651.4,3107.174Z" transform="translate(-2631.487 -3101.397)"/>
          <path id="Path_1017_-_Outline-3" data-name="Path 1017 - Outline" d="M2651.561,3113.757a4.279,4.279,0,0,1-3.2-1.371,4.86,4.86,0,0,1-1.232-3.2v-.023c.069-2.731,1.826-4.567,4.373-4.567h.067a4.762,4.762,0,0,1,3.312,1.4,4.61,4.61,0,0,1,1.385,3.307,4.325,4.325,0,0,1-1.421,3.2,4.838,4.838,0,0,1-3.274,1.262Zm-3.429-4.582a3.459,3.459,0,0,0,3.429,3.582h.011a3.565,3.565,0,0,0,3.7-3.463,3.73,3.73,0,0,0-3.71-3.7h-.055C2649.515,3105.594,2648.192,3107,2648.133,3109.175Zm3.429,2.5a2.341,2.341,0,0,1-2.326-2.488v-.023c.052-2.084,1.361-2.452,2.137-2.487l.121,0a2.723,2.723,0,0,1,1.918.794,2.563,2.563,0,0,1,.754,1.832,2.44,2.44,0,0,1-2.374,2.364C2651.716,3111.668,2651.638,3111.671,2651.562,3111.671Zm-1.326-2.5a1.351,1.351,0,0,0,1.326,1.5c.049,0,.1,0,.15-.006a1.456,1.456,0,0,0,1.455-1.372,1.569,1.569,0,0,0-.463-1.122,1.716,1.716,0,0,0-1.209-.5l-.077,0C2650.853,3107.7,2650.271,3107.9,2650.236,3109.174Z" transform="translate(-2631.487 -3101.397)" fill="rgba(0,0,0,0)"/>
        </g>
      </g>
    </g>
    <g id="Icon_-_Cart" data-name="Icon - Cart">
      <rect id="Rectangle_12" data-name="Rectangle 12" width="35" height="30" transform="translate(268 12)" fill="#fff"/>
      <g id="Icon_-_Cart-2" data-name="Icon - Cart" transform="translate(271.268 15.362)">
        <g id="Icon-Cart" transform="translate(0 0)">
          <path id="Fill-110" d="M-44-448.261H-61.769a.682.682,0,0,1-.645-.333.653.653,0,0,1-.059-.722l1.525-3.666-1.525-13.663H-67.4V-468.2h5.631a.81.81,0,0,1,.821.667l1.642,14.5a1.031,1.031,0,0,1-.059.389l-1.173,2.777h16.119c4.135,0,.422,1.611.422,1.611h0" transform="translate(67.798 468.599)"/>
          <path id="Fill-110_-_Outline" data-name="Fill-110 - Outline" d="M-53.6-457.463H-71.371a1.081,1.081,0,0,1-.979-.513,1.05,1.05,0,0,1-.077-1.128l1.47-3.537-1.474-13.206H-77.4V-478.2h6.029a1.2,1.2,0,0,1,1.214,1.006l1.647,14.533v.023a1.43,1.43,0,0,1-.081.522l-.948,2.245H-54.02c1.552,0,2.23.216,2.339.746.136.657-.882,1.249-1.76,1.63l-.158-.366ZM-76.6-476.645h4.885l1.576,14.12-1.565,3.761a.281.281,0,0,0,0,.32l.023.029.017.033a.321.321,0,0,0,.294.121h17.689a4.939,4.939,0,0,0,1.136-.678,5.255,5.255,0,0,0-1.474-.134H-70.74l1.407-3.332a.586.586,0,0,0,.027-.211l-1.64-14.473a.411.411,0,0,0-.426-.313H-76.6Z" transform="translate(77.4 478.2)"/>
          <path id="Fill-111" d="M-55.4-448.829l-.352-1.589,18.712-3.884v-6.65H-56.4V-462.6h20.178a.8.8,0,0,1,.821.824v8.122a.765.765,0,0,1-.645.765L-55.4-448.829" transform="translate(63.25 465.454)"/>
          <path id="Fill-111_-_Outline" data-name="Fill-111 - Outline" d="M-65.308-457.959l-.525-2.369,18.79-3.9v-5.926H-66.4V-472.6h20.576a1.208,1.208,0,0,1,1.219,1.223v8.122a1.169,1.169,0,0,1-.978,1.159Zm.427-1.751.179.809,18.972-3.98a.372.372,0,0,0,.329-.375v-8.122a.406.406,0,0,0-.424-.425H-65.6v.85h19.357v7.374Z" transform="translate(72.852 475.055)"/>
          <path id="Fill-112" d="M-28.374-428.527a3.26,3.26,0,0,1-3.226-3.237A3.26,3.26,0,0,1-28.374-435a3.26,3.26,0,0,1,3.226,3.237,3.26,3.26,0,0,1-3.226,3.237Zm0-4.885a1.662,1.662,0,0,0-.321.032,1.638,1.638,0,0,0-1.321,1.616,1.606,1.606,0,0,0,1.642,1.648,1.606,1.606,0,0,0,1.642-1.648,1.642,1.642,0,0,0-1.642-1.648Z" transform="translate(52.957 453.67)"/>
          <path id="Fill-112_-_Outline" data-name="Fill-112 - Outline" d="M-37.976-437.729a3.678,3.678,0,0,1-3.624-3.636A3.678,3.678,0,0,1-37.976-445a3.678,3.678,0,0,1,3.624,3.636A3.678,3.678,0,0,1-37.976-437.729Zm0-6.474a2.871,2.871,0,0,0-2.828,2.838,2.871,2.871,0,0,0,2.828,2.838,2.871,2.871,0,0,0,2.828-2.838A2.871,2.871,0,0,0-37.976-444.2Zm0,4.885a2,2,0,0,1-2.04-2.047,2.041,2.041,0,0,1,1.644-2.008,2.063,2.063,0,0,1,.4-.039,2.046,2.046,0,0,1,2.04,2.047A2,2,0,0,1-37.976-439.318Zm0-3.3a1.27,1.27,0,0,0-.246.025,1.243,1.243,0,0,0-1,1.224,1.206,1.206,0,0,0,1.245,1.249,1.206,1.206,0,0,0,1.245-1.249A1.248,1.248,0,0,0-37.976-442.614Z" transform="translate(62.559 463.271)"/>
          <path id="Fill-113" d="M-61.374-428.527a3.26,3.26,0,0,1-3.226-3.237A3.26,3.26,0,0,1-61.374-435a3.26,3.26,0,0,1,3.226,3.237,3.26,3.26,0,0,1-3.226,3.237Zm0-4.885a1.642,1.642,0,0,0-1.642,1.648,1.606,1.606,0,0,0,1.642,1.648,1.606,1.606,0,0,0,1.642-1.648,1.642,1.642,0,0,0-1.642-1.648Z" transform="translate(66.64 453.749)"/>
          <path id="Fill-113_-_Outline" data-name="Fill-113 - Outline" d="M-70.976-437.729a3.678,3.678,0,0,1-3.624-3.636A3.678,3.678,0,0,1-70.976-445a3.678,3.678,0,0,1,3.624,3.636A3.678,3.678,0,0,1-70.976-437.729Zm0-6.474a2.871,2.871,0,0,0-2.828,2.838,2.871,2.871,0,0,0,2.828,2.838,2.871,2.871,0,0,0,2.828-2.838A2.871,2.871,0,0,0-70.976-444.2Zm0,4.885a2,2,0,0,1-2.04-2.047,2.046,2.046,0,0,1,2.04-2.047,2.046,2.046,0,0,1,2.04,2.047A2,2,0,0,1-70.976-439.318Zm0-3.3a1.248,1.248,0,0,0-1.245,1.249,1.206,1.206,0,0,0,1.245,1.249,1.206,1.206,0,0,0,1.245-1.249A1.248,1.248,0,0,0-70.976-442.614Z" transform="translate(76.242 463.35)"/>
        </g>
      </g>
    </g>
    <g id="Icon_-_Home" data-name="Icon - Home">
      <rect id="Rectangle_16" data-name="Rectangle 16" width="35" height="30" transform="translate(176 13)" fill="#fff"/>
      <g id="Home" transform="translate(178 14.012)">
        <path id="Path_1025" data-name="Path 1025" d="M32.279,18.575,18.072,4.321a1.09,1.09,0,0,0-1.545,0L2.32,18.575a1.1,1.1,0,0,0,.773,1.872H6.371v8.772a1.1,1.1,0,0,0,1.093,1.1H27.135a1.094,1.094,0,0,0,1.093-1.1V20.447h3.279a1.1,1.1,0,0,0,.773-1.872ZM15.114,28.122V22.64a2.186,2.186,0,1,1,4.371,0v5.482Zm12.021-9.868a1.094,1.094,0,0,0-1.093,1.1v8.772H21.671V22.64a4.371,4.371,0,1,0-8.743,0v5.482H8.557V19.35a1.1,1.1,0,0,0-1.093-1.1H5.731L17.3,6.647,28.868,18.254Z" transform="translate(-1.84 -3.84)"/>
        <path id="Path_1025_-_Outline" data-name="Path 1025 - Outline" d="M26.794,30.136H7.123A1.256,1.256,0,0,1,5.87,28.879V20.268H2.752a1.257,1.257,0,0,1-.886-2.145L16.073,3.868a1.249,1.249,0,0,1,1.771,0L32.051,18.122a1.257,1.257,0,0,1-.886,2.145H28.047v8.611A1.256,1.256,0,0,1,26.794,30.136ZM16.958,3.821a.926.926,0,0,0-.66.274L2.092,18.349a.936.936,0,0,0,.66,1.6H6.19v8.932a.936.936,0,0,0,.933.936H26.794a.936.936,0,0,0,.933-.936V19.947h3.438a.936.936,0,0,0,.66-1.6L17.618,4.095A.925.925,0,0,0,16.958,3.821Zm8.9,24.122H21.17V22.3a4.212,4.212,0,1,0-8.423,0v5.643H8.056V19.011a.936.936,0,0,0-.933-.936H5L16.958,6.081,28.913,18.075H26.794a.936.936,0,0,0-.933.936Zm-4.371-.321h4.052V19.011a1.256,1.256,0,0,1,1.253-1.257h1.347L16.958,6.534,5.776,17.754H7.123a1.256,1.256,0,0,1,1.253,1.257v8.611h4.052V22.3a4.531,4.531,0,1,1,9.062,0Zm-2.186.321H14.613V22.3a2.345,2.345,0,1,1,4.691,0Zm-4.371-.321h4.052V22.3a2.026,2.026,0,1,0-4.052,0Z" transform="translate(-1.498 -3.5)"/>
      </g>
    </g>
    <g id="Icon_-_Menu" data-name="Icon - Menu">
      <rect id="Rectangle_13" data-name="Rectangle 13" width="35" height="30" transform="translate(318 13)" fill="#fff"/>
      <g id="Group_18" data-name="Group 18" transform="translate(322 20)">
        <path id="Line_1" data-name="Line 1" d="M28,1.5H0A1.5,1.5,0,0,1-1.5,0,1.5,1.5,0,0,1,0-1.5H28A1.5,1.5,0,0,1,29.5,0,1.5,1.5,0,0,1,28,1.5Z" transform="translate(0 0)"/>
        <path id="Line_2" data-name="Line 2" d="M28,1.5H0A1.5,1.5,0,0,1-1.5,0,1.5,1.5,0,0,1,0-1.5H28A1.5,1.5,0,0,1,29.5,0,1.5,1.5,0,0,1,28,1.5Z" transform="translate(0 8)"/>
        <path id="Line_3" data-name="Line 3" d="M28,1.5H0A1.5,1.5,0,0,1-1.5,0,1.5,1.5,0,0,1,0-1.5H28A1.5,1.5,0,0,1,29.5,0,1.5,1.5,0,0,1,28,1.5Z" transform="translate(0 16)"/>
      </g>
    </g>
    <g id="Icon_-_Account" data-name="Icon - Account">
      <rect id="Rectangle_14" data-name="Rectangle 14" width="35" height="30" transform="translate(224 13)" fill="#fff"/>
      <g id="Group_19" data-name="Group 19" transform="translate(228.036 14.52)">
        <path id="Icon_-_Account-2" data-name="Icon - Account" d="M27.75,14.42A13.375,13.375,0,1,0,5.095,24.062a.817.817,0,0,0,.211.192,13.265,13.265,0,0,0,18.14,0,.817.817,0,0,0,.211-.192A13.393,13.393,0,0,0,27.75,14.42ZM14.375,2.677a11.733,11.733,0,0,1,9.173,19.012,7.981,7.981,0,0,0-5.6-5.028,6.1,6.1,0,1,0-7.137,0,7.981,7.981,0,0,0-5.6,5.028A11.733,11.733,0,0,1,14.375,2.677ZM9.946,11.714a4.429,4.429,0,1,1,4.429,4.436A4.437,4.437,0,0,1,9.946,11.714ZM6.607,23.178c.251-3.075,3.5-5.351,7.768-5.351s7.517,2.276,7.768,5.351a11.6,11.6,0,0,1-15.536,0Z" transform="translate(-0.68 -1)"/>
        <path id="Icon_-_Account_-_Outline" data-name="Icon - Account - Outline" d="M13.695,0a13.733,13.733,0,0,1,9.518,23.6,1.125,1.125,0,0,1-.251.23,13.584,13.584,0,0,1-18.535,0,1.125,1.125,0,0,1-.251-.23,13.76,13.76,0,0,1-3.047-4.405A13.738,13.738,0,0,1,13.695,0Zm0,26.839a12.978,12.978,0,0,0,8.853-3.5l.021-.019.024-.015a.5.5,0,0,0,.13-.118l.014-.019.017-.016a13.056,13.056,0,1,0-18.117,0l.017.016.014.019a.5.5,0,0,0,.13.118l.024.015.021.019A12.978,12.978,0,0,0,13.695,26.839Zm0-25.162a12.051,12.051,0,0,1,9.423,19.532l-.376.477-.18-.581a7.638,7.638,0,0,0-5.391-4.815l-.62-.186.524-.38a5.781,5.781,0,1,0-6.762,0l.524.38-.62.186a7.638,7.638,0,0,0-5.391,4.815l-.18.581-.376-.477a12.1,12.1,0,0,1-1.908-3.447A12.059,12.059,0,0,1,13.695,1.677Zm9.273,18.667a11.293,11.293,0,0,0,2.111-6.6,11.384,11.384,0,1,0-22.767,0,11.293,11.293,0,0,0,2.111,6.6,6.893,6.893,0,0,1,.62-1.167A7.643,7.643,0,0,1,6.33,17.694a9.6,9.6,0,0,1,3.136-1.831A6.514,6.514,0,0,1,8,14a6.42,6.42,0,1,1,11.384,0,6.514,6.514,0,0,1-1.463,1.859,9.6,9.6,0,0,1,3.136,1.831,7.642,7.642,0,0,1,1.288,1.483A6.893,6.893,0,0,1,22.967,20.344ZM13.695,6.278a4.756,4.756,0,1,1-4.749,4.756A4.758,4.758,0,0,1,13.695,6.278Zm0,8.871a4.115,4.115,0,1,0-4.109-4.115A4.117,4.117,0,0,0,13.695,15.149Zm0,1.677a11.091,11.091,0,0,1,3.066.416,8.525,8.525,0,0,1,2.5,1.163,5.516,5.516,0,0,1,2.515,4.067l.013.159-.119.106a12.061,12.061,0,0,1-3.637,2.244,11.9,11.9,0,0,1-8.686,0,12.061,12.061,0,0,1-3.637-2.244L5.6,22.632l.013-.159a5.516,5.516,0,0,1,2.515-4.067,8.525,8.525,0,0,1,2.5-1.163A11.091,11.091,0,0,1,13.695,16.827Zm7.434,5.54A4.928,4.928,0,0,0,18.9,18.934a9.218,9.218,0,0,0-5.208-1.466,9.218,9.218,0,0,0-5.208,1.466,4.928,4.928,0,0,0-2.225,3.433,11.282,11.282,0,0,0,14.867,0Z" transform="translate(0 0)"/>
        <path id="Icon_-_Account_-_Outline-2" data-name="Icon - Account - Outline" d="M9.562-4a13.6,13.6,0,0,1,9.41,23.383.913.913,0,0,1-.239.215,13.446,13.446,0,0,1-18.367-.02.879.879,0,0,1-.232-.215A13.485,13.485,0,0,1-4,9.607,13.6,13.6,0,0,1,9.562-4Zm0,26.839A13.111,13.111,0,0,0,18.5,19.3a.759.759,0,0,0,.189-.169A13.19,13.19,0,1,0,.411,19.114a.722.722,0,0,0,.182.169A13.148,13.148,0,0,0,9.562,22.839Zm0-25.162A11.923,11.923,0,0,1,21.451,9.607a11.817,11.817,0,0,1-2.571,7.386l-.22.278-.1-.339a7.768,7.768,0,0,0-5.48-4.9l-.362-.109.306-.222a5.914,5.914,0,1,0-6.918,0l.306.222-.362.109a7.768,7.768,0,0,0-5.48,4.9l-.1.339-.22-.278A11.817,11.817,0,0,1-2.328,9.607,11.923,11.923,0,0,1,9.562-2.323ZM18.8,16.485a11.432,11.432,0,0,0,2.28-6.879,11.517,11.517,0,1,0-23.034,0,11.432,11.432,0,0,0,2.28,6.879A8.133,8.133,0,0,1,5.6,11.779a6.287,6.287,0,1,1,7.93,0A8.133,8.133,0,0,1,18.8,16.485ZM9.562,2.278A4.623,4.623,0,1,1,4.946,6.9,4.624,4.624,0,0,1,9.562,2.278Zm0,8.871A4.248,4.248,0,1,0,5.319,6.9,4.25,4.25,0,0,0,9.562,11.149Zm0,1.677c4.347,0,7.692,2.323,7.954,5.523l.008.093-.069.062a11.79,11.79,0,0,1-15.784,0L1.6,18.443l.008-.093C1.869,15.15,5.214,12.827,9.562,12.827Zm7.574,5.461c-.3-2.953-3.468-5.087-7.574-5.087s-7.271,2.134-7.574,5.087a11.416,11.416,0,0,0,15.147,0Z" transform="translate(4.133 4)"/>
      </g>
    </g>
  </g>
</svg>
